<svg width="123" height="123" viewBox="0 0 123 123" fill="none" xmlns="http://www.w3.org/2000/svg">
<path d="M61.0792 122.207C94.8096 122.207 122.153 94.8499 122.153 61.1034C122.153 27.3569 94.8096 0 61.0792 0C27.3488 0 0.00488281 27.3569 0.00488281 61.1034C0.00488281 94.8499 27.3488 122.207 61.0792 122.207Z" fill="url(#paint0_radial_18_3519)"/>
<path opacity="0.56" d="M61.0796 3.15328e-05C52.8442 -0.00834878 44.6926 1.65375 37.1174 4.88591C29.5421 8.11806 22.7005 12.8532 17.0059 18.8051C28.5197 7.65324 43.9532 1.47572 59.9781 1.60482C76.003 1.73391 91.3352 8.15929 102.668 19.4952C114.001 30.8312 120.426 46.1693 120.559 62.2019C120.691 78.2344 114.519 93.6766 103.375 105.198C112.155 96.7541 118.211 85.8766 120.766 73.9631C123.32 62.0495 122.256 49.644 117.71 38.34C113.164 27.0361 105.344 17.3499 95.2549 10.5259C85.1654 3.70183 73.267 0.0515149 61.0883 0.0438452L61.0796 3.15328e-05Z" fill="#F6FFBB"/>
<path opacity="0.25" d="M66.6319 60.1745C61.06 61.7958 55.2432 62.4071 49.4562 61.9797C46.4695 61.5766 48.0636 62.374 39.6728 61.375C31.2819 60.3761 29.8893 60.9807 23.1013 59.5787C16.3133 58.1766 14.7193 56.9498 14.9207 53.988C15.1222 51.0261 17.1104 50.588 14.5178 46.3993C11.9252 42.2107 6.73132 39.8009 6.73132 33.4128C6.73588 33.3486 6.73588 33.2842 6.73132 33.22C5.90216 34.844 5.14017 36.509 4.44531 38.2148C5.72478 39.4037 6.65725 40.9182 7.143 42.5962C7.94004 46.9777 5.94304 51.99 9.5341 57.3792C13.1252 62.7683 16.3221 63.5745 24.1086 66.5714C31.895 69.5683 39.0859 67.9735 45.6724 69.3668C52.259 70.7601 54.2647 69.7699 61.0527 76.5611C67.8406 83.3523 68.4363 84.3513 68.6377 89.7054C68.8392 95.0595 69.6362 95.9007 65.0466 100.098C60.4571 104.296 57.4529 106.486 53.4589 106.486C49.4649 106.486 44.8754 107.687 36.6948 107.091C28.5142 106.495 27.7084 102.49 27.0602 100.081C26.4121 97.6708 23.4692 94.2883 25.3085 89.092C27.1478 83.8956 28.7068 81.5033 33.4978 80.1013C38.2888 78.6992 47.2753 85.4992 47.4679 89.4951C47.6606 93.4909 45.2783 90.2925 45.7162 95.0858C46.1541 99.879 49.1146 99.6775 45.1206 100.081C41.1267 100.484 35.7313 99.2832 35.9328 97.4517C36.1342 95.6203 36.7386 89.0657 38.9282 88.8641C41.1179 88.6626 41.5558 91.493 41.5558 91.493C41.5558 91.493 43.5529 89.7404 42.7471 88.5049C41.9413 87.2693 40.9515 85.5079 39.5589 87.1028C38.1663 88.6976 35.9591 86.5069 33.7694 89.7316C31.5797 92.9564 28.1726 100.124 32.1666 102.517C36.1605 104.909 44.3499 103.516 49.9379 102.122C55.5259 100.729 52.3378 99.4935 54.1333 90.1347C55.9289 80.776 51.1378 73.5554 46.5483 72.5565C41.9587 71.5575 26.78 69.7611 22.024 73.5554C17.268 77.3497 16.4272 82.143 16.0331 87.3394C15.6389 92.5358 15.8316 96.3301 17.8286 103.113C17.9687 103.603 18.0913 104.05 18.1877 104.471C25.9572 112.196 35.6632 117.683 46.2855 120.358C48.5062 118.102 50.9442 116.071 53.564 114.294C59.3623 110.701 61.9548 109.913 67.9457 106.504C73.9367 103.095 76.7044 102.508 78.1233 96.5141C79.5422 90.5203 84.7186 91.3265 84.7186 81.9327C84.7186 72.5389 85.7084 72.7492 83.1158 67.5529C80.5232 62.3565 73.2185 58.1854 66.6319 60.1745Z" fill="#AD2455"/>
<path opacity="0.25" d="M0.0234375 62.5405H0.557703C2.5722 62.5405 4.57796 64.2405 5.34872 67.6405C6.11948 71.0404 8.13395 69.9626 9.21127 71.1982C10.2886 72.4337 9.67547 76.4559 9.36892 77.5337C9.0024 78.7282 8.29471 79.7895 7.33295 80.5866C6.37119 81.3838 5.19736 81.8822 3.95607 82.0203H3.68455C4.44642 84.0949 5.32366 86.1252 6.31215 88.1017C8.29161 88.5924 7.60846 86.7961 10.0083 84.1497C13.1001 80.7497 12.0228 79.5141 13.2578 74.8698C14.4927 70.2255 13.2578 69.4631 9.8594 65.1343C6.46104 60.8054 8.93099 60.9631 6.14574 58.7987C4.2936 57.4514 2.34712 56.239 0.321256 55.1709C0.128565 57.1163 0.0322047 59.0967 0.0322047 61.0946C0.0234461 61.5853 0.0234375 62.0673 0.0234375 62.5405Z" fill="#AD2455"/>
<path opacity="0.25" d="M3.64865 72.7141C2.91152 71.4386 1.86271 70.3712 0.600586 69.6121C1.05192 72.879 1.77261 76.1031 2.75524 79.2512C3.33205 79.0777 3.88968 78.8457 4.41942 78.5589C6.58281 77.3584 5.04128 75.194 3.64865 72.7141Z" fill="#AD2455"/>
<path opacity="0.25" d="M112.555 80.3553C110.96 77.3584 107.764 74.16 111.355 70.5672C114.946 66.9745 116.549 59.7801 117.144 66.9745C117.74 74.1688 120.14 70.1641 118.546 72.1621C117.319 73.4852 115.718 74.4023 113.956 74.7909C113.956 74.7909 116.951 77.1832 118.143 75.3868C119.334 73.5904 120.543 72.1884 119.894 70.1904C119.246 68.1925 119.894 64.5997 118.502 62.1987C117.109 59.7977 117.503 57.4054 112.309 62.1987C107.115 66.992 104.926 68.394 104.926 71.5925C104.926 74.7909 107.317 77.5863 108.92 80.7847C110.523 83.9832 110.111 86.9713 114.306 86.9713C114.963 86.9513 115.61 87.1383 116.154 87.5058C117.03 85.7533 117.74 84.0007 118.405 82.1692C115.83 83.5625 113.886 82.8878 112.555 80.3553Z" fill="#AD2455"/>
<path opacity="0.25" d="M112.449 94.1745C111.58 93.9344 110.744 93.587 109.961 93.1404C108.963 92.343 109.76 89.7405 107.334 87.1466C104.908 84.5528 103.541 83.3523 103.541 81.1529C103.541 78.9534 100.747 73.9585 100.747 70.7689C100.747 67.5792 101.343 67.772 103.147 65.5725C104.951 63.373 106.537 58.7813 109.935 56.8096C113.333 54.838 115.322 51.2189 119.114 54.4086C120.022 55.1584 120.972 55.8547 121.961 56.4942C121.425 49.384 119.646 42.423 116.705 35.9277C113.675 37.6803 105.897 42.4999 104.934 45.2251C103.734 48.6164 104.732 50.6143 102.14 52.6122C99.5473 54.6102 94.9489 60.4024 94.1519 62.8034C93.3548 65.2044 92.7505 66.7993 92.9519 69.8137C93.1534 72.8281 89.1595 76.2018 93.5476 81.7925C97.9357 87.3832 97.7429 90.5554 97.7429 93.7801C97.7429 97.0049 96.543 99.3796 99.7399 102.771C100.73 103.822 102.622 104.05 104.767 103.814C107.645 100.867 110.219 97.6376 112.449 94.1745Z" fill="#AD2455"/>
<path opacity="0.25" d="M91.3936 53.3833C89.2888 53.8048 87.1462 54.0074 84.9998 53.9879C81.2073 53.9879 76.6177 54.9869 78.6147 55.3812C79.5518 55.6781 80.4039 56.1961 81.099 56.8916C81.7941 57.587 82.3118 58.4395 82.6086 59.3771C82.8013 60.5776 82.8013 61.375 85.2362 63.1714C87.6711 64.9678 86.4362 68.7708 86.6376 69.9714C86.8391 71.1719 87.8288 66.1683 90.8243 62.5755C93.8197 58.9827 96.6138 52.9889 98.0152 51.3853C99.4165 49.7817 94.1876 52.1915 91.3936 53.3833Z" fill="#AD2455"/>
<path opacity="0.25" d="M61.0795 4.26028e-05C53.8296 -0.008539 46.6366 1.27941 39.8397 3.80312C39.1677 4.92158 38.7074 6.15436 38.482 7.43971C38.4638 8.71413 38.329 9.98421 38.0792 11.234C37.4836 15.4314 33.6998 15.8345 34.6896 19.2258C35.6793 22.617 36.2836 26.236 36.8792 26.8232C37.4748 27.4103 37.6763 25.2195 37.6763 23.2216C37.6763 21.2237 38.8762 19.2258 39.6733 17.4294C40.4703 15.633 39.0777 18.034 40.8732 12.6361C42.6687 7.23816 41.0746 8.84177 45.4715 6.24796C49.8684 3.65416 48.8611 4.25003 53.8536 3.25106C58.846 2.2521 63.4355 4.25003 64.2326 0.254166C64.2367 0.19582 64.2367 0.137255 64.2326 0.0789085C63.2078 0.0263313 62.148 4.26028e-05 61.0795 4.26028e-05Z" fill="#AD2455"/>
<path opacity="0.25" d="M90.4732 10.4279C90.4732 10.4279 89.0806 11.0501 90.6308 12.1279C92.1811 13.2057 91.7082 15.3701 93.1008 15.8346C94.4934 16.299 94.7999 15.0635 96.1925 15.6856C97.5852 16.3078 97.7341 15.3701 96.0349 13.6702C94.3357 11.9702 91.5593 10.1212 90.4732 10.4279Z" fill="#AD2455"/>
<path opacity="0.25" d="M114.831 32.0633C113.767 30.1114 112.598 28.2188 111.328 26.3937C111.258 26.5275 111.202 26.6685 111.162 26.8143C110.855 27.8922 111.932 31.6076 108.841 31.4499C105.749 31.2922 102.499 30.7927 102.219 29.7499C101.939 28.7071 99.749 27.7432 100.826 25.1143C101.904 22.4855 101.439 21.8633 104.382 21.2499C105.263 21.0639 106.156 20.941 107.054 20.8819C104.698 18.1918 102.113 15.7113 99.3286 13.4685C98.4527 15.002 97.6645 16.8948 97.8922 18.4633C98.3564 21.7144 96.3419 22.7922 97.5856 26.8143C98.8294 30.8365 102.99 35.0076 107.01 35.3143C111.03 35.621 112.616 33.7282 114.831 32.0633Z" fill="#AD2455"/>
<path opacity="0.25" d="M91.2445 86.6298C91.2445 86.6298 85.8404 89.5653 84.4477 93.1231C83.0551 96.6808 81.5136 96.0586 80.5851 98.8364C79.6567 101.614 82.442 100.072 87.0753 100.694C91.7087 101.316 96.342 103.481 96.8062 103.323C97.2704 103.165 94.3363 101.001 93.7231 98.3808C93.11 95.7607 94.9581 93.4298 94.599 91.572C94.2399 89.7143 92.6371 82.6076 91.2445 86.6298Z" fill="#AD2455"/>
<path opacity="0.25" d="M76.5731 33.299C74.2218 34.5048 72.042 36.0195 70.0917 37.8031C67.6217 40.2742 66.5357 41.0541 64.2234 41.2031C61.9111 41.352 61.9023 41.8252 57.7332 41.2031C53.5641 40.5809 49.2373 39.6608 48.922 38.8897C48.6067 38.1185 49.7015 34.7098 50.9365 35.0253C52.1714 35.3407 51.7072 35.6386 52.7845 35.6386C53.8619 35.6386 56.034 38.4252 60.3608 36.1031C64.6876 33.7809 64.2234 32.8608 66.3868 32.8608C68.5502 32.8608 74.7163 32.6856 76.5731 33.299Z" fill="#AD2455"/>
<path opacity="0.25" d="M95.3695 31.3623C91.9186 28.7334 95.7987 25.3159 95.3695 20.5752C94.9403 15.8345 92.3478 19.6989 90.1932 17.552C88.0385 15.4051 88.4414 12.8026 85.8751 12.8026C83.3088 12.8026 80.6987 7.62371 76.8099 5.46805C72.921 3.31239 71.6335 5.02991 65.5988 6.34433C59.564 7.65876 63.4354 8.09691 55.2372 8.97319C47.0391 9.84948 51.3571 10.7258 48.7733 13.2845C46.1895 15.8433 46.1457 14.5814 46.1457 18.034C46.1457 21.4866 43.5181 22.3541 43.5181 28.8298C43.5181 35.3056 46.5399 29.7061 51.7163 29.2592C56.8927 28.8123 56.4634 31.0118 72.4305 28.3829C88.3976 25.7541 81.0578 20.1809 79.3324 17.5958C77.6069 15.0108 68.1125 17.5958 68.1125 17.5958C68.1125 17.5958 77.6069 15.4314 77.1778 21.9072C76.7486 28.3829 68.1125 28.3829 57.3306 25.7979C46.5486 23.2128 48.2653 18.8927 54.703 14.5727C61.1406 10.2526 78.439 7.22939 85.3583 15.002C92.2777 22.7747 87.6093 35.6824 68.6205 43.4463C49.6317 51.2102 35.828 37.803 29.802 33.518C25.2213 30.2494 30.3101 14.3361 33.0428 6.81753C26.092 10.4239 19.8959 15.3289 14.7897 21.2675C18.2931 22.0386 10.8921 35.5597 11.6803 38.7056C13.4633 39.2772 15.1949 39.9983 16.8567 40.8612C18.153 41.7375 20.7456 42.1581 23.3294 42.6138C25.9132 43.0695 25.0811 49.5189 26.3511 54.6978C27.6211 59.8766 39.7256 57.3266 44.902 55.9947C50.4353 54.6058 56.0568 53.5957 61.7274 52.9715C66.4746 52.5421 69.4964 55.6004 72.5181 53.4009C75.5399 51.2014 78.9908 51.6483 82.8709 50.3865C86.751 49.1246 91.4982 50.8158 98.838 44.7695C106.178 38.7231 98.8204 33.9561 95.3695 31.3623ZM97.4278 39.9499C97.4278 40.5721 96.0352 41.6499 90.3245 43.5076C84.6138 45.3653 83.519 43.1922 83.519 43.1922L77.3442 43.8143C79.3853 42.3667 81.4989 41.0243 83.6767 39.7922C86.3043 38.4076 88.0035 38.0922 89.8603 35.621C90.3887 34.9328 91.1393 34.4492 91.9842 34.2527C92.8291 34.0561 93.716 34.1588 94.4936 34.5432C97.5854 35.3143 97.4278 39.3277 97.4278 39.9499Z" fill="#AD2455"/>
<g opacity="0.25">
<path opacity="0.25" d="M86.1457 116.152C86.1457 113.216 83.2115 115.845 80.7416 115.223C78.2716 114.601 72.3946 116.459 71.7814 118.159C71.5012 118.938 72.4646 119.999 73.6033 120.928C77.9227 120.026 82.1312 118.657 86.1545 116.844C86.1545 116.616 86.1457 116.388 86.1457 116.152Z" fill="#AD2455"/>
<path opacity="0.25" d="M96.7788 110.693C96.5335 107.477 94.6241 109.273 90.3236 108.265C85.6815 107.187 83.6758 108.265 76.1083 108.581C68.5408 108.896 69.4605 109.659 66.3774 112.752C63.2944 115.845 62.1996 116.31 59.2654 118.158C58.6435 118.59 58.1645 119.198 57.8899 119.903C57.6153 120.609 57.5575 121.381 57.7239 122.119C58.8362 122.181 59.9573 122.216 61.0784 122.216C62.6025 122.216 64.1089 122.154 65.6067 122.049C65.3301 121.35 65.1703 120.61 65.1337 119.858C65.1337 118.316 68.532 118.316 70.2312 115.845C71.9304 113.374 72.7187 112.287 76.2222 111.665C79.7257 111.043 80.7066 109.194 83.7985 109.194C86.8903 109.194 89.3602 111.21 90.7441 111.823C91.2871 112.068 91.4098 113.05 91.3572 114.171C93.2234 113.106 95.033 111.945 96.7788 110.693Z" fill="#AD2455"/>
</g>
<path style="mix-blend-mode:multiply" opacity="0.7" d="M61.0792 122.207C94.8096 122.207 122.153 94.8499 122.153 61.1034C122.153 27.3569 94.8096 0 61.0792 0C27.3488 0 0.00488281 27.3569 0.00488281 61.1034C0.00488281 94.8499 27.3488 122.207 61.0792 122.207Z" fill="url(#paint1_linear_18_3519)"/>
<defs>
<radialGradient id="paint0_radial_18_3519" cx="0" cy="0" r="1" gradientUnits="userSpaceOnUse" gradientTransform="translate(65.3972 45.5669) scale(71.83 71.8642)">
<stop stop-color="#E7A092"/>
<stop offset="1" stop-color="#A653AF"/>
</radialGradient>
<linearGradient id="paint1_linear_18_3519" x1="115.602" y1="17.9463" x2="6.39369" y2="104.324" gradientUnits="userSpaceOnUse">
<stop stop-color="#A3A3DE"/>
<stop offset="1" stop-color="#160027"/>
</linearGradient>
</defs>
</svg>
