<svg width="354" height="468" viewBox="0 0 354 468" fill="none" xmlns="http://www.w3.org/2000/svg">
<path opacity="0.25" d="M28.1012 467.742H31.6178L231.606 151.196L197.569 129.076L0.00488281 296.898C45.2986 262.441 108.634 216.813 110.26 229.839C112.794 250.076 18.2399 357.389 18.2399 357.389C18.2399 357.389 147.4 229.802 149.934 249.231C152.468 268.66 32.6278 457.003 32.6278 457.003L28.1012 467.742Z" fill="url(#paint0_linear_18_3538)"/>
<path d="M175.221 135.01C179.738 111.2 197.982 80.224 219.348 58.5447C255.157 22.1675 291.113 20.8079 312.736 42.1382C334.359 63.4685 333.496 99.4139 297.641 135.837C276.275 157.516 245.572 176.201 221.837 181.051L175.221 135.01Z" fill="url(#paint1_linear_18_3538)"/>
<path style="mix-blend-mode:screen" opacity="0.37" d="M321.854 67.8228C321.854 67.8228 318.273 71.4972 319.017 86.5533C319.76 101.609 308.65 119.403 308.65 119.403C314.225 112.983 318.651 105.649 321.734 97.7237C325.82 86.8657 327.225 72.2597 321.854 67.8228Z" fill="url(#paint2_linear_18_3538)"/>
<path opacity="0.24" d="M221.837 181.015L175.221 135.01C177.415 123.436 182.86 110.208 190.334 97.0898C189.811 98.8628 187.359 107.92 188.856 115.462C190.508 123.84 199.286 111.88 199.286 111.88C193.887 123.289 195.32 136.903 212.031 150.59C228.741 164.277 241.697 157.682 241.697 157.682C225.032 174.153 270.739 154.384 270.739 154.384L272.575 156.938C255.745 168.815 237.299 177.845 221.837 181.015Z" fill="#140D26"/>
<path opacity="0.4" d="M314.591 44.0671C319.367 49.2482 322.933 55.4262 325.031 62.1547C324.911 63.9092 323.727 64.6717 320.587 63.2754C310.046 58.6088 303.766 48.7245 298.257 41.6603C294.584 36.9754 293.666 31.9322 296.503 31.4729C299.637 32.7101 302.629 34.2807 305.428 36.1578L314.591 44.0671Z" fill="#140D26"/>
<path opacity="0.5" d="M285.394 31.4913C285.394 31.4913 295.695 42.0462 286.44 48.3755C277.185 54.7047 270.831 65.921 256.948 57.7362C243.065 49.5513 233.076 50.13 244.911 41.495C255.553 33.7603 272.686 26.8798 285.394 31.4913Z" fill="url(#paint3_linear_18_3538)"/>
<path opacity="0.21" d="M317.574 53.6209C317.574 53.6209 322.11 67.4644 310.339 93.351C298.568 119.238 270.04 139.19 257.02 148.358C244.001 157.525 218.65 176.936 218.65 176.936L216.152 174.07C216.152 174.07 267.019 138.657 288.082 119.081C309.145 99.5057 319.594 68.8515 315.389 53.8046C311.184 38.7577 317.574 53.6209 317.574 53.6209Z" fill="#140D26"/>
<path opacity="0.21" d="M300.038 36.3235C300.038 36.3235 286.137 31.9784 260.428 44.1409C234.719 56.3034 215.189 85.102 206.21 98.2565C197.23 111.411 178.178 137.04 178.178 137.04L181.079 139.493C181.079 139.493 215.759 88.115 235.022 66.7664C254.286 45.4178 284.797 34.5413 299.891 38.5373C314.986 42.5333 300.038 36.3235 300.038 36.3235Z" fill="#140D26"/>
<path d="M168.068 136.434C165.745 138.786 165.506 142.322 167.544 144.334L212.59 188.814C214.629 190.825 218.164 190.541 220.487 188.18L222.424 186.214C224.747 183.853 224.977 180.316 222.947 178.314L177.856 133.834C175.826 131.823 172.291 132.107 169.968 134.459L168.068 136.434Z" fill="url(#paint4_linear_18_3538)"/>
<path opacity="0.21" d="M169.859 135.763L221.718 186.921L220.497 188.152C218.174 190.513 214.639 190.798 212.601 188.786L167.518 144.307C165.48 142.295 165.682 138.795 168.041 136.407L169.299 135.13C169.472 135.353 169.659 135.565 169.859 135.763Z" fill="#140D26"/>
<path opacity="0.4" d="M216.759 96.8233C215.116 116.564 229.962 135.258 249.933 138.584C269.903 141.909 287.413 128.598 289.056 108.857C290.7 89.1161 275.844 70.4223 255.883 67.1061C235.921 63.7899 218.403 77.0823 216.759 96.8233Z" fill="#140D26"/>
<path d="M218.246 97.0715C216.676 115.995 230.917 133.917 250.052 137.105C269.187 140.292 285.98 127.533 287.56 108.628C289.139 89.7226 274.898 71.7636 255.745 68.576C236.591 65.3884 219.826 78.1296 218.246 97.0715Z" fill="url(#paint5_linear_18_3538)"/>
<g style="mix-blend-mode:overlay" opacity="0.22">
<path d="M239.952 133.89C243.193 130.629 242.587 125.622 245.195 127.055C249.354 129.352 271.106 119.284 273.897 125.668C275.072 128.36 276.826 128.819 278.488 128.424C271.482 135.405 261.171 138.924 250.025 137.077C246.533 136.498 243.141 135.425 239.952 133.89Z" fill="#6FEAD6"/>
</g>
<g style="mix-blend-mode:overlay" opacity="0.59">
<path d="M255.919 72.6822C240.089 70.0458 225.959 78.249 221.193 91.6792C224.728 76.4945 239.236 66.7847 255.588 69.5038C261.896 70.6215 267.797 73.3855 272.695 77.5164C277.593 81.6473 281.314 86.9986 283.483 93.0295C280.801 87.7161 276.91 83.1067 272.122 79.5726C267.335 76.0385 261.785 73.6784 255.919 72.6822Z" fill="#6FEAD6"/>
</g>
<g style="mix-blend-mode:overlay" opacity="0.59">
<path d="M255.745 68.5758C260.166 69.321 264.417 70.8549 268.296 73.1045C267.424 74.1885 267.185 76.1819 269.802 79.838C274.99 87.0675 252.247 79.7094 243.827 79.691C235.407 79.6726 233.993 83.0991 231.973 86.1213C230.201 88.7669 228.76 79.8931 224.104 81.0138C230.954 71.5796 242.799 66.417 255.745 68.5758Z" fill="#6FEAD6"/>
</g>
<path opacity="0.4" d="M223.204 97.898C221.864 114.112 234.057 129.471 250.456 132.199C266.854 134.927 281.251 123.996 282.592 107.782C283.932 91.5687 271.739 76.2095 255.34 73.4812C238.942 70.7529 224.526 81.6844 223.204 97.898Z" fill="#140D26"/>
<path d="M225.821 98.3391C224.591 113.129 235.719 127.138 250.677 129.627C265.634 132.117 278.754 122.15 279.985 107.36C281.215 92.5702 270.087 78.5613 255.13 76.0718C240.173 73.5824 227.052 83.5493 225.821 98.3391Z" fill="url(#paint6_linear_18_3538)"/>
<g style="mix-blend-mode:overlay" opacity="0.59">
<path d="M255.13 76.0627C257.933 76.5314 260.653 77.4104 263.2 78.6716C259.261 78.2582 254.074 79.1401 250.869 85.2765C245.131 96.2447 263.724 96.5754 266.047 109.583C267.314 116.61 268.59 121.755 271.088 124.474C268.249 126.739 264.959 128.369 261.439 129.257C257.918 130.144 254.249 130.267 250.676 129.618C246.484 128.909 242.493 127.301 238.979 124.906C245.755 125.944 253.67 125.438 256.241 118.043C261.024 104.264 254.129 100.406 248.399 97.5767C242.67 94.7474 239.787 90.8984 239.594 87.3709C239.493 85.3959 235.921 83.7791 231.891 83.9169C234.772 80.7325 238.421 78.3391 242.489 76.9643C246.556 75.5895 250.908 75.2791 255.13 76.0627Z" fill="#6FEAD6"/>
</g>
<path style="mix-blend-mode:screen" opacity="0.68" d="M235.748 87.5637C235.169 94.5451 243.378 95.0136 253.413 96.6855C263.449 98.3574 271.52 100.599 272.098 93.6082C272.677 86.6175 265.019 79.6084 254.974 77.9365C244.929 76.2647 236.326 80.573 235.748 87.5637Z" fill="url(#paint7_linear_18_3538)"/>
<path style="mix-blend-mode:screen" opacity="0.68" d="M228.961 97.3008C229.288 98.1508 229.919 98.8489 230.732 99.2597C231.545 99.6705 232.481 99.7646 233.359 99.5238C235.296 99.1104 236.471 97.4294 235.985 95.7851C235.656 94.9387 235.026 94.2441 234.215 93.8353C233.405 93.4265 232.472 93.3324 231.596 93.5712C229.659 93.9846 228.474 95.6564 228.961 97.3008Z" fill="url(#paint8_linear_18_3538)"/>
<path opacity="0.07" d="M225.757 99.5884C226.905 108.775 232.184 117.345 244.212 117.86C262.328 118.631 262.576 101.453 273.3 100.608C276.431 100.36 278.543 101.334 279.975 102.831C280.104 104.335 280.104 105.847 279.975 107.351C278.745 122.14 265.624 132.107 250.667 129.618C236.141 127.202 225.224 113.956 225.757 99.5884Z" fill="#170426"/>
<path opacity="0.74" d="M256.093 127.174C269.682 125.576 276.559 115.609 279.966 106.965C279.966 107.093 279.966 107.222 279.966 107.351C278.735 122.14 265.615 132.107 250.658 129.618C245.545 128.711 240.751 126.508 236.732 123.219C232.713 119.931 229.605 115.666 227.703 110.832C234.626 120.239 244.304 128.562 256.093 127.174Z" fill="#6FEAD6"/>
<path d="M246.224 79.2503C246.123 80.4628 249.768 82.0704 254.368 82.8329C258.968 83.5953 262.778 83.2371 262.879 82.0245C262.98 80.8119 259.335 79.2135 254.735 78.4419C250.135 77.6702 246.325 78.0377 246.224 79.2503Z" fill="white"/>
<path d="M241.458 80.527C241.394 81.216 242.165 81.9141 243.175 82.0887C244.185 82.2632 245.011 81.8315 245.103 81.1701C245.195 80.5087 244.387 79.783 243.377 79.6084C242.367 79.4339 241.513 79.8381 241.458 80.527Z" fill="white"/>
<path d="M245.415 70.6427C245.489 71.2122 247.252 71.5613 249.419 71.497C251.586 71.4327 253.229 70.8632 253.147 70.2844C253.064 69.7057 251.31 69.3658 249.152 69.4301C246.995 69.4944 245.342 70.0732 245.415 70.6427Z" fill="white"/>
<path d="M255.12 70.8725C255.065 71.488 255.772 72.1034 256.69 72.2504C257.608 72.3974 258.398 72.0391 258.453 71.4328C258.508 70.8266 257.792 70.2111 256.874 70.0549C255.956 69.8987 255.166 70.2754 255.12 70.8725Z" fill="white"/>
<path d="M241.715 71.589C241.715 72.0667 242.174 72.5076 242.835 72.6454C243.496 72.7832 244.056 72.4617 244.093 71.984C244.13 71.5063 243.634 71.0654 242.973 70.9276C242.312 70.7898 241.752 71.1113 241.715 71.589Z" fill="white"/>
<path opacity="0.56" d="M280.765 123.077C273.961 132.567 262.053 137.775 249.051 135.598C244.546 134.842 240.217 133.267 236.279 130.95C244.212 133.89 251.319 135.809 261.309 134.073C270.968 132.401 277.469 126.458 280.765 123.077Z" fill="#8CDBF4"/>
<path d="M324.848 50.9477C326.289 48.5684 325.426 45.3074 323.076 43.4701C318.638 40.0134 314.573 36.1035 310.946 31.8037C309.018 29.5164 305.731 28.7906 303.417 30.3339L301.076 31.9507C298.771 33.4848 298.624 37.1409 300.966 39.9243C305.291 45.0415 310.137 49.6934 315.427 53.8046C318.301 56.046 321.946 55.7428 323.379 53.3636C323.847 52.5644 324.343 51.756 324.848 50.9477Z" fill="url(#paint9_linear_18_3538)"/>
<path opacity="0.4" d="M312.185 38.2709C308.77 33.3104 310.349 32.1345 311.019 31.8406C314.518 35.983 318.428 39.7595 322.689 43.112C323.347 43.9388 323.81 44.9034 324.044 45.9341C324.278 46.9647 324.276 48.0347 324.039 49.0646C323.605 51.0518 322.868 52.9603 321.854 54.7233C320.806 55.1959 319.645 55.3605 318.507 55.1978C317.369 55.0351 316.301 54.552 315.427 53.8047C313.948 52.6564 312.516 51.4622 311.102 50.2221C312.938 49.478 314.968 47.9623 315.693 46.4649C316.868 43.902 316.29 44.2511 312.185 38.2709Z" fill="#140D26"/>
<path opacity="0.41" d="M306.722 29.5439C308.37 29.719 309.885 30.5296 310.945 31.8037C314.572 36.1035 318.637 40.0134 323.074 43.4702C324.313 44.4293 325.158 45.8078 325.453 47.3467C325.434 47.384 325.409 47.4181 325.379 47.4478C324.259 48.6144 319.181 45.5462 314.04 40.5949C308.898 35.6436 305.684 30.7657 306.722 29.5439Z" fill="url(#paint10_linear_18_3538)"/>
<path d="M311.194 31.0415C309.192 33.1359 311.019 36.9022 314.508 40.2276C317.998 43.553 321.854 45.2524 323.819 43.158C325.784 41.0635 356.488 3.84123 352.999 0.488285C349.509 -2.86466 313.205 28.947 311.194 31.0415Z" fill="url(#paint11_linear_18_3538)"/>
<path opacity="0.56" d="M310.983 31.2801C313.388 29.9022 315.5 26.4022 321.744 21.7632C321.744 21.7632 345.828 1.72823 351.346 0.0196027C351.639 -0.020242 351.937 0.000798762 352.221 0.0814105C352.506 0.162022 352.77 0.300473 352.999 0.488099L353.136 0.635074C352.218 0.772866 334.167 17.951 329.356 21.8918C323.362 26.9096 317.881 32.51 312.994 38.6106C310.661 35.8732 309.624 33.1173 310.983 31.2801Z" fill="#8CDBF4"/>
<path d="M330.283 15.7371C326.61 18.9523 323.855 21.8551 324.232 22.2409C324.608 22.6267 327.84 20.3394 331.522 17.1334C335.204 13.9274 337.949 11.0154 337.582 10.6296C337.215 10.2438 333.974 12.5311 330.283 15.7371Z" fill="white"/>
<path d="M321.706 23.3892C321.183 23.8394 320.953 24.4273 321.192 24.6845C321.431 24.9417 322.037 24.8039 322.56 24.3446C323.083 23.8853 323.313 23.3157 323.074 23.0493C322.835 22.7829 322.23 22.9299 321.706 23.3892Z" fill="white"/>
<path opacity="0.57" d="M299.404 34.4311C299.904 34.4708 300.407 34.4273 300.892 34.3025C302.958 33.8065 304.803 32.5204 305.106 31.6845C305.323 31.0189 305.323 30.3016 305.106 29.636C306.406 29.3819 307.754 29.5796 308.926 30.1963C308.347 30.1963 307.695 30.4627 307.943 31.8131C308.357 34.1004 310.836 37.3891 311.442 38.1607C312.174 38.9768 312.952 39.7497 313.774 40.4756C313.774 40.4756 307.494 36.1306 306.667 36.4705C305.841 36.8104 302.673 38.6017 302.388 39.9245C302.319 40.5706 302.398 41.2239 302.618 41.8352C302.058 41.2105 301.507 40.5675 300.965 39.9245C300.3 39.191 299.813 38.3136 299.542 37.3607C299.271 36.4078 299.224 35.4052 299.404 34.4311Z" fill="url(#paint12_linear_18_3538)"/>
<path d="M274.595 153.704C274.595 153.704 263.87 186.241 249.501 199.286C235.131 212.33 217.897 217.759 217.906 212.064C217.915 206.368 225.344 184.505 225.344 181.281C226.868 173.739 270.27 152.363 274.595 153.704Z" fill="url(#paint13_linear_18_3538)"/>
<path opacity="0.16" d="M263.898 156.974C263.65 157.094 246.6 165.949 240.751 175.346C234.902 184.744 235.049 193.912 227.502 203.309C223.967 207.718 221.075 211.292 219.587 214.13C219.107 214.045 218.674 213.79 218.366 213.413C218.058 213.035 217.895 212.56 217.907 212.073C217.907 206.359 225.344 184.514 225.344 181.29C226.455 175.806 249.621 163.046 263.898 156.974Z" fill="#170426"/>
<path opacity="0.29" d="M271.997 155.854C271.997 155.854 265.065 176.982 256.067 189.181C247.069 201.38 236.289 207.792 234.673 207.471C233.057 207.149 242.23 198.404 246.215 187.344C250.2 176.284 252.045 167.685 258.151 163.46C264.257 159.234 270.042 156.212 271.997 155.854Z" fill="url(#paint14_linear_18_3538)"/>
<path d="M268.26 165.876C268.26 165.876 261.135 183.155 255.828 187.123C250.52 191.092 265.064 161.448 268.26 165.876Z" fill="url(#paint15_linear_18_3538)"/>
<path d="M254.67 191C254.67 191 250.777 197.063 249.373 197.008C247.968 196.953 252.164 188.529 254.67 191Z" fill="url(#paint16_linear_18_3538)"/>
<path d="M201.967 82.052C201.967 82.052 169.601 93.2316 156.765 107.773C143.929 122.315 138.732 139.649 144.434 139.557C150.136 139.465 171.833 131.74 175.092 131.685C182.612 130.077 203.409 86.3971 201.967 82.052Z" fill="url(#paint17_linear_18_3538)"/>
<path opacity="0.16" d="M198.818 92.8274C198.698 93.0754 190.086 110.281 180.785 116.234C171.484 122.186 162.302 122.205 153.019 129.884C148.667 133.485 145.132 136.379 142.322 137.959C142.414 138.436 142.674 138.865 143.055 139.166C143.436 139.468 143.912 139.623 144.397 139.603C150.108 139.511 171.796 131.786 175.055 131.731C180.555 130.491 192.978 107.167 198.818 92.8274Z" fill="#170426"/>
<path opacity="0.29" d="M199.856 84.6792C199.856 84.6792 178.848 91.9087 166.774 101.095C154.7 110.281 148.41 121.13 148.796 122.747C149.182 124.363 157.748 115.067 168.748 110.924C179.748 106.781 188.314 104.769 192.391 98.6789C196.468 92.5885 199.562 86.645 199.856 84.6792Z" fill="url(#paint18_linear_18_3538)"/>
<path d="M189.894 88.5649C189.894 88.5649 172.724 95.9139 168.83 101.297C164.937 106.68 194.365 91.6974 189.894 88.5649Z" fill="url(#paint19_linear_18_3538)"/>
<path d="M164.965 102.5C164.965 102.5 158.969 106.487 159.043 107.883C159.116 109.28 167.471 104.981 164.965 102.5Z" fill="url(#paint20_linear_18_3538)"/>
<path opacity="0.4" d="M279.975 65.8844C279.078 66.6535 278.433 67.6757 278.126 68.8173C277.819 69.9588 277.864 71.1666 278.254 72.2824C278.645 73.3981 279.363 74.37 280.315 75.0706C281.266 75.7713 282.407 76.1681 283.588 76.2091C284.769 76.2502 285.935 75.9335 286.933 75.3006C287.931 74.6676 288.715 73.748 289.182 72.662C289.649 71.576 289.777 70.3742 289.55 69.2141C289.322 68.0539 288.751 66.9895 287.909 66.16C286.892 65.0725 285.486 64.4327 283.999 64.3811C282.512 64.3294 281.065 64.8701 279.975 65.8844Z" fill="#140D26"/>
<path d="M280.876 66.7569C280.175 67.3584 279.671 68.1574 279.431 69.0496C279.191 69.9418 279.226 70.8857 279.53 71.758C279.835 72.6303 280.395 73.3905 281.138 73.9392C281.881 74.4879 282.772 74.7996 283.695 74.8337C284.618 74.8677 285.53 74.6225 286.311 74.13C287.093 73.6376 287.707 72.9208 288.075 72.0733C288.443 71.2257 288.547 70.2869 288.373 69.3795C288.199 68.472 287.756 67.6381 287.101 66.9866C286.306 66.1308 285.203 65.6259 284.036 65.5828C282.869 65.5398 281.732 65.9621 280.876 66.7569Z" fill="url(#paint21_linear_18_3538)"/>
<g style="mix-blend-mode:overlay" opacity="0.59">
<path d="M286.568 66.95C286.568 66.95 288.35 68.3922 287.78 70.1651C287.211 71.938 285.026 68.1993 283.299 68.135L280.545 68.0339C280.545 68.0339 282.794 64.1849 286.568 66.95Z" fill="#6FEAD6"/>
</g>
<path d="M286.302 67.1062C286.302 67.1062 286.669 68.0799 285.127 67.4828C283.584 66.8857 283.079 66.9041 283.162 66.5183C283.245 66.1325 285.274 65.7191 286.302 67.1062Z" fill="white"/>
<path d="M282.905 66.5643C282.905 66.5643 282.997 66.9777 282.483 66.9593C281.968 66.9409 282.501 66.1877 282.905 66.5643Z" fill="white"/>
<g style="mix-blend-mode:overlay" opacity="0.79">
<path d="M282.602 73.3435C285.255 74.8868 287.551 72.6821 288.285 71.8186C288.089 72.3451 287.775 72.8196 287.367 73.2057C286.512 74.0017 285.376 74.4256 284.209 74.3843C283.041 74.343 281.938 73.8398 281.142 72.9852C280.248 72.1132 279.731 70.9265 279.7 69.6782C280.173 71.2209 281.209 72.5292 282.602 73.3435Z" fill="#6FEAD6"/>
</g>
<path opacity="0.4" d="M216.585 130.197C215.687 130.964 215.042 131.985 214.733 133.126C214.425 134.266 214.467 135.473 214.856 136.589C215.244 137.705 215.96 138.678 216.91 139.38C217.86 140.082 218.999 140.481 220.18 140.525C221.36 140.569 222.526 140.255 223.525 139.625C224.524 138.995 225.31 138.078 225.78 136.994C226.249 135.91 226.381 134.709 226.158 133.548C225.934 132.388 225.366 131.322 224.527 130.491C224.026 129.948 223.422 129.511 222.751 129.202C222.08 128.894 221.355 128.721 220.617 128.694C219.879 128.666 219.143 128.785 218.451 129.043C217.759 129.301 217.125 129.693 216.585 130.197Z" fill="#140D26"/>
<path d="M217.475 131.078C216.776 131.681 216.275 132.481 216.038 133.374C215.8 134.266 215.837 135.209 216.143 136.08C216.449 136.952 217.011 137.71 217.754 138.257C218.498 138.804 219.389 139.114 220.312 139.147C221.234 139.18 222.145 138.933 222.925 138.44C223.706 137.947 224.319 137.23 224.686 136.383C225.053 135.535 225.156 134.597 224.982 133.69C224.808 132.783 224.365 131.95 223.71 131.299C222.912 130.444 221.807 129.94 220.638 129.899C219.47 129.858 218.332 130.282 217.475 131.078Z" fill="url(#paint22_linear_18_3538)"/>
<g style="mix-blend-mode:overlay" opacity="0.59">
<path d="M223.178 131.271C223.178 131.271 224.95 132.714 224.39 134.477C223.83 136.241 221.635 132.512 219.909 132.456L217.154 132.355C217.44 131.844 217.835 131.402 218.311 131.062C218.788 130.722 219.333 130.491 219.91 130.388C220.486 130.284 221.078 130.31 221.643 130.462C222.208 130.615 222.732 130.892 223.178 131.271Z" fill="#6FEAD6"/>
</g>
<path d="M222.902 131.409C222.902 131.409 223.269 132.383 221.736 131.786C220.202 131.189 219.679 131.207 219.771 130.812C219.863 130.417 221.873 130.031 222.902 131.409Z" fill="white"/>
<path d="M219.514 130.876C219.514 130.876 219.597 131.299 219.082 131.281C218.568 131.262 219.11 130.491 219.514 130.876Z" fill="white"/>
<g style="mix-blend-mode:overlay" opacity="0.79">
<path d="M219.21 137.665C221.864 139.199 224.15 137.004 224.894 136.14C224.694 136.665 224.38 137.139 223.975 137.527C223.12 138.323 221.984 138.747 220.817 138.706C219.65 138.665 218.547 138.161 217.75 137.307C216.853 136.438 216.335 135.249 216.309 134C216.782 135.542 217.817 136.851 219.21 137.665Z" fill="#6FEAD6"/>
</g>
<path opacity="0.4" d="M204.327 142.662C203.429 143.43 202.783 144.452 202.475 145.593C202.166 146.734 202.21 147.942 202.599 149.058C202.988 150.174 203.705 151.147 204.656 151.849C205.607 152.551 206.747 152.949 207.928 152.991C209.109 153.033 210.275 152.718 211.274 152.086C212.273 151.455 213.058 150.536 213.526 149.45C213.994 148.365 214.124 147.163 213.898 146.003C213.672 144.843 213.101 143.777 212.26 142.947C211.244 141.86 209.839 141.221 208.352 141.167C206.866 141.114 205.419 141.651 204.327 142.662Z" fill="#140D26"/>
<path d="M205.19 143.544C204.49 144.146 203.988 144.946 203.749 145.839C203.51 146.731 203.546 147.675 203.852 148.547C204.157 149.419 204.719 150.178 205.463 150.726C206.207 151.274 207.098 151.584 208.021 151.617C208.944 151.649 209.856 151.403 210.636 150.909C211.417 150.416 212.031 149.698 212.397 148.85C212.764 148.002 212.866 147.063 212.691 146.156C212.516 145.248 212.071 144.415 211.416 143.765C210.618 142.912 209.515 142.411 208.348 142.369C207.182 142.328 206.047 142.75 205.19 143.544Z" fill="url(#paint23_linear_18_3538)"/>
<g style="mix-blend-mode:overlay" opacity="0.59">
<path d="M210.892 143.737C210.892 143.737 212.664 145.179 212.104 146.943C211.544 148.707 209.349 144.977 207.614 144.922L204.859 144.821C205.144 144.308 205.54 143.865 206.017 143.524C206.494 143.182 207.041 142.951 207.619 142.848C208.196 142.744 208.789 142.77 209.355 142.924C209.921 143.078 210.446 143.355 210.892 143.737Z" fill="#6FEAD6"/>
</g>
<path d="M210.617 143.884C210.617 143.884 210.985 144.858 209.451 144.26C207.918 143.663 207.394 143.682 207.477 143.287C207.56 142.892 209.589 142.497 210.617 143.884Z" fill="white"/>
<path d="M207.229 143.351C207.229 143.351 207.312 143.774 206.797 143.755C206.283 143.737 206.825 142.947 207.229 143.351Z" fill="white"/>
<g style="mix-blend-mode:overlay" opacity="0.79">
<path d="M206.916 150.131C209.579 151.665 211.865 149.469 212.609 148.606C212.402 149.127 212.089 149.599 211.691 149.993C210.836 150.789 209.7 151.213 208.532 151.171C207.365 151.13 206.262 150.627 205.465 149.772C204.566 148.904 204.045 147.716 204.015 146.465C204.493 148.005 205.528 149.312 206.916 150.131Z" fill="#6FEAD6"/>
</g>
<path opacity="0.4" d="M292.582 53.0972C291.688 53.8658 291.046 54.8866 290.741 56.0261C290.435 57.1655 290.481 58.3705 290.871 59.4836C291.262 60.5967 291.979 61.566 292.929 62.2648C293.879 62.9636 295.017 63.3593 296.196 63.4002C297.374 63.4412 298.537 63.1254 299.533 62.4942C300.529 61.863 301.312 60.9458 301.779 59.8625C302.245 58.7792 302.374 57.5802 302.149 56.4224C301.923 55.2645 301.354 54.2017 300.515 53.3728C300.012 52.8332 299.408 52.3981 298.738 52.0922C298.067 51.7863 297.342 51.6156 296.606 51.5901C295.869 51.5645 295.134 51.6844 294.444 51.943C293.753 52.2016 293.121 52.5938 292.582 53.0972Z" fill="#140D26"/>
<path d="M293.473 53.979C292.774 54.5831 292.274 55.3837 292.038 56.2763C291.802 57.169 291.839 58.1123 292.147 58.983C292.454 59.8537 293.017 60.6115 293.762 61.1575C294.506 61.7034 295.398 62.0122 296.32 62.0434C297.243 62.0747 298.153 61.827 298.933 61.3327C299.713 60.8384 300.325 60.1205 300.691 59.2725C301.057 58.4246 301.158 57.4861 300.983 56.5795C300.807 55.6729 300.363 54.8402 299.707 54.1902C299.312 53.7653 298.838 53.4226 298.31 53.1819C297.783 52.9411 297.213 52.8071 296.634 52.7874C296.054 52.7678 295.477 52.863 294.934 53.0675C294.392 53.2719 293.895 53.5817 293.473 53.979Z" fill="url(#paint24_linear_18_3538)"/>
<g style="mix-blend-mode:overlay" opacity="0.59">
<path d="M299.175 54.1628C299.175 54.1628 300.947 55.6051 300.387 57.378C299.827 59.1509 297.632 55.4121 295.906 55.3478L293.151 55.2468C293.434 54.7328 293.828 54.2884 294.304 53.9462C294.781 53.6039 295.328 53.3724 295.905 53.2685C296.482 53.1647 297.075 53.1911 297.641 53.3458C298.206 53.5005 298.73 53.7796 299.175 54.1628Z" fill="#6FEAD6"/>
</g>
<path d="M298.899 54.3098C298.899 54.3098 299.276 55.2835 297.733 54.6864C296.191 54.0893 295.686 54.1077 295.768 53.7678C295.851 53.4279 297.871 52.9319 298.899 54.3098Z" fill="white"/>
<path d="M295.511 53.7768C295.511 53.7768 295.594 54.1902 295.079 54.1718C294.565 54.1535 295.107 53.3727 295.511 53.7768Z" fill="white"/>
<g style="mix-blend-mode:overlay" opacity="0.79">
<path d="M295.227 60.5564C297.88 62.0997 300.166 59.895 300.91 59.0315C300.714 59.558 300.4 60.0325 299.992 60.4186C299.137 61.2146 298.001 61.6385 296.834 61.5972C295.666 61.5559 294.563 61.0527 293.767 60.1981C292.869 59.329 292.351 58.1405 292.325 56.8911C292.798 58.4338 293.834 59.7421 295.227 60.5564Z" fill="#6FEAD6"/>
</g>
<g style="mix-blend-mode:overlay" opacity="0.59">
<path d="M176.01 139.006C175.23 139.796 182.272 148.009 191.748 157.378C201.223 166.748 209.524 173.665 210.304 172.839C211.085 172.012 204.042 163.827 194.576 154.466C185.109 145.106 176.782 138.207 176.01 139.006Z" fill="#6FEAD6"/>
</g>
<path d="M188.469 151.417C187.928 151.977 189.305 154.228 191.564 156.451C193.822 158.674 196.09 160.024 196.632 159.473C197.174 158.922 195.787 156.671 193.538 154.448C191.288 152.225 189.011 150.866 188.469 151.417Z" fill="white"/>
<path opacity="0.4" d="M307.098 122.637C307.098 122.637 305.372 120.028 300.864 121.718C296.356 123.408 285.889 131.538 281.582 137.334C277.276 143.131 273.741 149.387 276.496 152.106C279.25 154.825 293.886 142.626 294.345 142.157C294.804 141.689 308.632 124.143 307.098 122.637Z" fill="#140D26"/>
<path d="M306.116 133.026C306.116 133.026 310.578 125.2 307.787 122.444C304.996 119.688 298.229 121.957 287.789 131.887C277.35 141.817 274.255 149.892 278.699 152.29C283.143 154.687 291.921 146.107 291.921 146.107L306.116 133.026Z" fill="url(#paint25_linear_18_3538)"/>
<g style="mix-blend-mode:overlay" opacity="0.59">
<path d="M298.9 123.298C303.187 120.946 306.181 120.836 307.815 122.443C308.186 122.874 308.459 123.378 308.618 123.924C308.776 124.469 308.816 125.042 308.733 125.603C307.837 127.486 306.398 129.057 304.601 130.114C302.435 131.501 294.162 132.952 296.136 129.719C298.11 126.485 296.981 124.437 298.9 123.298Z" fill="#6FEAD6"/>
</g>
<path opacity="0.4" d="M307.227 129.921C307.227 129.921 308.678 125.117 305.841 124.63C303.004 124.143 295.043 127.909 287.257 137.445C279.471 146.98 278.36 151.995 283.419 150.305C288.478 148.615 306.07 132.383 307.227 129.921Z" fill="#140D26"/>
<path d="M306.244 125.668C306.244 125.668 310.128 132.787 302.691 142.414C295.649 151.536 285.539 152.583 281.5 149.763C277.46 146.943 300.735 122.352 306.244 125.668Z" fill="url(#paint26_linear_18_3538)"/>
<path opacity="0.07" d="M290.728 139.043C290.939 143.324 295.319 143.765 294.042 147.118C293.61 148.203 293.029 149.224 292.316 150.149C287.872 151.711 283.74 151.343 281.482 149.782C278.654 147.834 289.194 135.203 297.669 128.911C297.458 129.085 290.516 134.827 290.728 139.043Z" fill="#170426"/>
<path opacity="0.56" d="M282.694 151.279C282.694 151.279 278.773 152.4 279.425 148.055C280.077 143.709 283.621 140.54 283.621 140.54C283.621 140.54 279.296 143.489 278.498 146.971C277.699 150.452 278.424 153.355 282.694 151.279Z" fill="#8CDBF4"/>
<path style="mix-blend-mode:screen" opacity="0.49" d="M306.024 128.424C306.61 132.271 305.682 136.196 303.435 139.374C299.643 144.885 299.661 137.123 299.533 134.597C299.404 132.071 302.82 124.529 306.024 128.424Z" fill="url(#paint27_linear_18_3538)"/>
<path d="M307.796 124.979C307.796 124.979 307.64 123.812 305.96 123.757C304.28 123.702 300.983 125.126 302.287 123.821C303.591 122.517 308.081 121.865 307.796 124.979Z" fill="url(#paint28_linear_18_3538)"/>
<path d="M305.326 131.409C305.326 131.409 305.795 132.98 304.408 135.837C303.022 138.694 303.26 127.551 305.326 131.409Z" fill="white"/>
<path d="M304.344 128.892C304.286 128.955 304.241 129.029 304.211 129.11C304.182 129.19 304.169 129.276 304.174 129.361C304.178 129.447 304.199 129.531 304.236 129.608C304.274 129.685 304.326 129.754 304.39 129.811C304.448 129.874 304.519 129.925 304.598 129.96C304.677 129.994 304.763 130.012 304.849 130.012C304.935 130.012 305.021 129.994 305.1 129.96C305.179 129.925 305.25 129.874 305.308 129.811C305.363 129.751 305.405 129.68 305.432 129.604C305.459 129.527 305.471 129.446 305.467 129.365C305.463 129.284 305.442 129.204 305.407 129.131C305.372 129.058 305.323 128.992 305.262 128.938C305.206 128.873 305.137 128.82 305.06 128.782C304.983 128.744 304.899 128.722 304.813 128.718C304.727 128.714 304.641 128.727 304.561 128.757C304.48 128.787 304.406 128.833 304.344 128.892Z" fill="white"/>
<path opacity="0.74" d="M290.828 134.891C287.945 138.703 282.078 146.833 282.767 148.753C283.054 149.574 283.543 150.31 284.19 150.893C283.207 150.71 282.27 150.332 281.435 149.781C279.397 148.348 284.575 141.11 290.828 134.891Z" fill="#6FEAD6"/>
<path opacity="0.4" d="M232.433 48.9728C232.433 48.9728 235.068 50.663 233.479 55.1918C231.891 59.7206 223.875 70.3122 218.173 74.6664C212.471 79.0207 206.237 82.6951 203.482 79.976C200.728 77.2569 212.664 62.4489 213.178 61.9712C213.693 61.4935 230.899 47.4662 232.433 48.9728Z" fill="#140D26"/>
<path d="M222.066 50.0933C222.066 50.0933 229.825 45.5002 232.616 48.2561C235.407 51.0119 233.24 57.8097 223.434 68.3921C213.628 78.9746 205.631 82.1714 203.179 77.7712C200.728 73.371 209.184 64.4513 209.184 64.4513L222.066 50.0933Z" fill="url(#paint29_linear_18_3538)"/>
<g style="mix-blend-mode:overlay" opacity="0.59">
<path d="M231.873 57.2125C234.159 52.8858 234.223 49.8636 232.598 48.2836C232.162 47.9223 231.653 47.659 231.107 47.5116C230.56 47.3642 229.989 47.3361 229.43 47.4292C227.559 48.3501 226.005 49.8087 224.968 51.6181C223.627 53.8044 222.287 62.0996 225.491 60.0786C228.696 58.0576 230.78 59.1232 231.873 57.2125Z" fill="#6FEAD6"/>
</g>
<path opacity="0.4" d="M225.151 48.9451C225.151 48.9451 229.926 47.4294 230.458 50.2587C230.991 53.088 227.337 61.1075 217.907 69.0352C208.477 76.9629 203.491 78.1295 205.052 73.0404C206.613 67.9512 222.691 50.1393 225.151 48.9451Z" fill="#140D26"/>
<path d="M229.412 49.8913C229.412 49.8913 222.241 46.0974 212.728 53.676C203.712 60.8504 202.803 70.9735 205.658 74.9787C208.514 78.9838 232.791 55.3203 229.412 49.8913Z" fill="url(#paint30_linear_18_3538)"/>
<path opacity="0.07" d="M216.263 65.5812C211.984 65.425 211.479 61.0433 208.146 62.3753C207.07 62.8285 206.06 63.4248 205.144 64.1482C203.647 68.6126 204.06 72.7464 205.658 74.9787C207.65 77.7804 220.119 67.0602 226.29 58.4895C226.124 58.71 220.477 65.7282 216.263 65.5812Z" fill="#170426"/>
<path opacity="0.56" d="M204.152 73.7845C204.152 73.7845 203.078 77.7254 207.412 77.0088C211.746 76.2923 214.867 72.7097 214.867 72.7097C214.867 72.7097 211.975 77.0731 208.523 77.9183C205.071 78.7634 202.132 78.1295 204.152 73.7845Z" fill="#8CDBF4"/>
<path style="mix-blend-mode:screen" opacity="0.49" d="M226.666 50.1302C222.808 49.6019 218.895 50.5896 215.749 52.886C210.304 56.7626 218.054 56.634 220.579 56.7258C223.104 56.8177 230.605 53.2718 226.666 50.1302Z" fill="url(#paint31_linear_18_3538)"/>
<path d="M230.036 48.302C230.036 48.302 231.202 48.449 231.285 50.1392C231.368 51.8295 229.981 55.1365 231.285 53.8137C232.589 52.4909 233.186 48.0264 230.036 48.302Z" fill="url(#paint32_linear_18_3538)"/>
<path d="M223.691 50.8926C223.691 50.8926 222.121 50.4516 219.275 51.903C216.428 53.3545 227.575 52.8768 223.691 50.8926Z" fill="white"/>
<path d="M226.216 51.8112C226.091 51.9154 225.931 51.9691 225.769 51.9618C225.606 51.9544 225.452 51.8865 225.337 51.7714C225.222 51.6563 225.154 51.5023 225.147 51.3397C225.14 51.1771 225.194 51.0176 225.298 50.8925C225.423 50.7883 225.582 50.7345 225.745 50.7419C225.907 50.7492 226.061 50.8171 226.176 50.9322C226.291 51.0474 226.359 51.2014 226.366 51.364C226.374 51.5266 226.32 51.6861 226.216 51.8112Z" fill="white"/>
<path opacity="0.74" d="M220.413 65.4158C216.639 68.3553 208.614 74.3355 206.64 73.6833C205.817 73.4021 205.076 72.9226 204.482 72.287C204.687 73.2501 205.077 74.1643 205.63 74.9786C207.127 77.0363 214.279 71.7634 220.413 65.4158Z" fill="#6FEAD6"/>
<path style="mix-blend-mode:screen" opacity="0.37" d="M284.603 40.6131C284.603 40.6131 288.597 45.7482 280.389 47.962C272.18 50.1759 265.606 52.0223 265.441 48.6877C265.276 45.3531 278.92 38.9596 284.603 40.6131Z" fill="url(#paint33_linear_18_3538)"/>
<path style="mix-blend-mode:screen" opacity="0.37" d="M261.51 49.1564C261.51 49.1564 265.404 52.2062 259.674 53.676C253.945 55.1457 256.828 48.2745 261.51 49.1564Z" fill="url(#paint34_linear_18_3538)"/>
<path opacity="0.5" d="M255.441 61.0156C255.441 61.0156 248.169 56.5695 246.26 58.4894C244.35 60.4093 235.664 65.3055 240.245 65.4617C244.827 65.6179 259.481 63.0641 255.441 61.0156Z" fill="url(#paint35_linear_18_3538)"/>
<defs>
<linearGradient id="paint0_linear_18_3538" x1="-50.2286" y1="436.785" x2="222.559" y2="208.021" gradientUnits="userSpaceOnUse">
<stop offset="0.03" stop-color="#FF73E3"/>
<stop offset="1" stop-color="#8BE2FF"/>
</linearGradient>
<linearGradient id="paint1_linear_18_3538" x1="266.593" y1="15.1041" x2="242.182" y2="162.248" gradientUnits="userSpaceOnUse">
<stop stop-color="#E6007A"/>
<stop offset="1" stop-color="#8C006E"/>
</linearGradient>
<linearGradient id="paint2_linear_18_3538" x1="288.005" y1="119.983" x2="326.99" y2="82.6001" gradientUnits="userSpaceOnUse">
<stop stop-color="#FFC645"/>
<stop offset="0.98" stop-color="#F5FF7D"/>
</linearGradient>
<linearGradient id="paint3_linear_18_3538" x1="265.912" y1="82.8851" x2="301.272" y2="45.0029" gradientUnits="userSpaceOnUse">
<stop stop-color="#FFC645"/>
<stop offset="0.98" stop-color="#F5A3C4"/>
</linearGradient>
<linearGradient id="paint4_linear_18_3538" x1="193.102" y1="147.39" x2="246.355" y2="199.868" gradientUnits="userSpaceOnUse">
<stop stop-color="#A6C7C8"/>
<stop offset="0.75" stop-color="#87788A"/>
<stop offset="1" stop-color="#87A1A6"/>
</linearGradient>
<linearGradient id="paint5_linear_18_3538" x1="265.253" y1="174.831" x2="274.13" y2="110.842" gradientUnits="userSpaceOnUse">
<stop stop-color="#87A1A6"/>
<stop offset="0.25" stop-color="#87788A"/>
<stop offset="1" stop-color="#A6C7C8"/>
</linearGradient>
<linearGradient id="paint6_linear_18_3538" x1="278.486" y1="176.759" x2="258.684" y2="93.0935" gradientUnits="userSpaceOnUse">
<stop stop-color="#39A9DC"/>
<stop offset="1" stop-color="#7DFAC9"/>
</linearGradient>
<linearGradient id="paint7_linear_18_3538" x1="269.785" y1="138.118" x2="272.907" y2="112.373" gradientUnits="userSpaceOnUse">
<stop stop-color="#99F7DE"/>
<stop offset="0.98" stop-color="#E6FFE0"/>
</linearGradient>
<linearGradient id="paint8_linear_18_3538" x1="217.99" y1="109.822" x2="214.683" y2="99.3191" gradientUnits="userSpaceOnUse">
<stop stop-color="#99F7DE"/>
<stop offset="0.98" stop-color="#E6FFE0"/>
</linearGradient>
<linearGradient id="paint9_linear_18_3538" x1="343.449" y1="70.454" x2="321.068" y2="49.0153" gradientUnits="userSpaceOnUse">
<stop stop-color="#F26117"/>
<stop offset="1" stop-color="#FF9C26"/>
</linearGradient>
<linearGradient id="paint10_linear_18_3538" x1="341.524" y1="68.305" x2="328.973" y2="41.6168" gradientUnits="userSpaceOnUse">
<stop stop-color="#FFC645"/>
<stop offset="0.98" stop-color="#F5FF7D"/>
</linearGradient>
<linearGradient id="paint11_linear_18_3538" x1="359.897" y1="42.7166" x2="345.481" y2="31.6849" gradientUnits="userSpaceOnUse">
<stop stop-color="#87A1A6"/>
<stop offset="0.25" stop-color="#87788A"/>
<stop offset="1" stop-color="#A6C7C8"/>
</linearGradient>
<linearGradient id="paint12_linear_18_3538" x1="325.053" y1="62.9801" x2="327.548" y2="48.0383" gradientUnits="userSpaceOnUse">
<stop stop-color="#FFC645"/>
<stop offset="0.98" stop-color="#F5FF7D"/>
</linearGradient>
<linearGradient id="paint13_linear_18_3538" x1="237.12" y1="188.353" x2="287.321" y2="199.67" gradientUnits="userSpaceOnUse">
<stop stop-color="#F26117"/>
<stop offset="1" stop-color="#FF9C26"/>
</linearGradient>
<linearGradient id="paint14_linear_18_3538" x1="268.09" y1="194.642" x2="290.507" y2="192.717" gradientUnits="userSpaceOnUse">
<stop stop-color="#FFC645"/>
<stop offset="0.98" stop-color="#F5FF7D"/>
</linearGradient>
<linearGradient id="paint15_linear_18_3538" x1="282.2" y1="188.895" x2="290.429" y2="188.189" gradientUnits="userSpaceOnUse">
<stop stop-color="#FFC645"/>
<stop offset="0.98" stop-color="#F5FF7D"/>
</linearGradient>
<linearGradient id="paint16_linear_18_3538" x1="274.727" y1="205.988" x2="277.962" y2="205.706" gradientUnits="userSpaceOnUse">
<stop stop-color="#FFC645"/>
<stop offset="0.98" stop-color="#F5FF7D"/>
</linearGradient>
<linearGradient id="paint17_linear_18_3538" x1="180.489" y1="144.341" x2="168.408" y2="94.1312" gradientUnits="userSpaceOnUse">
<stop stop-color="#F26117"/>
<stop offset="1" stop-color="#FF9C26"/>
</linearGradient>
<linearGradient id="paint18_linear_18_3538" x1="173.742" y1="113.351" x2="175.352" y2="90.8389" gradientUnits="userSpaceOnUse">
<stop stop-color="#FFC645"/>
<stop offset="0.98" stop-color="#F5FF7D"/>
</linearGradient>
<linearGradient id="paint19_linear_18_3538" x1="179.297" y1="99.1192" x2="179.889" y2="90.8526" gradientUnits="userSpaceOnUse">
<stop stop-color="#FFC645"/>
<stop offset="0.98" stop-color="#F5FF7D"/>
</linearGradient>
<linearGradient id="paint20_linear_18_3538" x1="162.282" y1="106.858" x2="162.513" y2="103.602" gradientUnits="userSpaceOnUse">
<stop stop-color="#FFC645"/>
<stop offset="0.98" stop-color="#F5FF7D"/>
</linearGradient>
<linearGradient id="paint21_linear_18_3538" x1="306.266" y1="82.6376" x2="310.957" y2="82.2355" gradientUnits="userSpaceOnUse">
<stop stop-color="#87A1A6"/>
<stop offset="0.25" stop-color="#87788A"/>
<stop offset="1" stop-color="#A6C7C8"/>
</linearGradient>
<linearGradient id="paint22_linear_18_3538" x1="243.06" y1="146.777" x2="247.764" y2="146.374" gradientUnits="userSpaceOnUse">
<stop stop-color="#87A1A6"/>
<stop offset="0.25" stop-color="#87788A"/>
<stop offset="1" stop-color="#A6C7C8"/>
</linearGradient>
<linearGradient id="paint23_linear_18_3538" x1="230.817" y1="159.201" x2="235.514" y2="158.806" gradientUnits="userSpaceOnUse">
<stop stop-color="#87A1A6"/>
<stop offset="0.25" stop-color="#87788A"/>
<stop offset="1" stop-color="#A6C7C8"/>
</linearGradient>
<linearGradient id="paint24_linear_18_3538" x1="318.824" y1="69.8803" x2="323.521" y2="69.4847" gradientUnits="userSpaceOnUse">
<stop stop-color="#87A1A6"/>
<stop offset="0.25" stop-color="#87788A"/>
<stop offset="1" stop-color="#A6C7C8"/>
</linearGradient>
<linearGradient id="paint25_linear_18_3538" x1="297.245" y1="148.802" x2="340.774" y2="149.962" gradientUnits="userSpaceOnUse">
<stop stop-color="#87A1A6"/>
<stop offset="0.25" stop-color="#87788A"/>
<stop offset="1" stop-color="#A6C7C8"/>
</linearGradient>
<linearGradient id="paint26_linear_18_3538" x1="302.186" y1="150.062" x2="337.939" y2="151.025" gradientUnits="userSpaceOnUse">
<stop stop-color="#39A9DC"/>
<stop offset="1" stop-color="#7DFAC9"/>
</linearGradient>
<linearGradient id="paint27_linear_18_3538" x1="320.27" y1="148.658" x2="329.829" y2="145.574" gradientUnits="userSpaceOnUse">
<stop stop-color="#99F7DE"/>
<stop offset="0.98" stop-color="#E6FFE0"/>
</linearGradient>
<linearGradient id="paint28_linear_18_3538" x1="324.848" y1="137.919" x2="330.565" y2="136.073" gradientUnits="userSpaceOnUse">
<stop stop-color="#99F7DE"/>
<stop offset="0.98" stop-color="#E6FFE0"/>
</linearGradient>
<linearGradient id="paint29_linear_18_3538" x1="219.148" y1="83.3153" x2="217.361" y2="39.6503" gradientUnits="userSpaceOnUse">
<stop stop-color="#87A1A6"/>
<stop offset="0.25" stop-color="#87788A"/>
<stop offset="1" stop-color="#A6C7C8"/>
</linearGradient>
<linearGradient id="paint30_linear_18_3538" x1="217.802" y1="78.375" x2="216.336" y2="42.5092" gradientUnits="userSpaceOnUse">
<stop stop-color="#39A9DC"/>
<stop offset="1" stop-color="#7DFAC9"/>
</linearGradient>
<linearGradient id="paint31_linear_18_3538" x1="218.961" y1="60.2178" x2="221.915" y2="50.5777" gradientUnits="userSpaceOnUse">
<stop stop-color="#99F7DE"/>
<stop offset="0.98" stop-color="#E6FFE0"/>
</linearGradient>
<linearGradient id="paint32_linear_18_3538" x1="229.66" y1="55.4725" x2="231.427" y2="49.7054" gradientUnits="userSpaceOnUse">
<stop stop-color="#99F7DE"/>
<stop offset="0.98" stop-color="#E6FFE0"/>
</linearGradient>
<linearGradient id="paint33_linear_18_3538" x1="286.012" y1="81.052" x2="302.034" y2="54.8576" gradientUnits="userSpaceOnUse">
<stop stop-color="#FFC645"/>
<stop offset="0.98" stop-color="#F5FF7D"/>
</linearGradient>
<linearGradient id="paint34_linear_18_3538" x1="276.935" y1="75.5597" x2="293.066" y2="49.1766" gradientUnits="userSpaceOnUse">
<stop stop-color="#FFC645"/>
<stop offset="0.98" stop-color="#F5FF7D"/>
</linearGradient>
<linearGradient id="paint35_linear_18_3538" x1="275.435" y1="79.4432" x2="267.948" y2="72.0648" gradientUnits="userSpaceOnUse">
<stop stop-color="#FFC645"/>
<stop offset="0.98" stop-color="#F5A3C4"/>
</linearGradient>
</defs>
</svg>
