<svg width="1440" height="614" viewBox="0 0 1440 614" fill="none" xmlns="http://www.w3.org/2000/svg">
<g opacity="0.12">
<path opacity="0.12" d="M1447.39 493.508C1404.9 530.668 1310.8 595.022 1214.65 541.366C1084.65 468.826 997.558 404.409 853.652 400.627C709.747 396.845 533.648 554.068 382.17 538.916C230.691 523.763 145.477 455.564 45.1176 472.608C29.1764 475.32 14.1057 477.584 0.00488281 479.388V538.853C40.2308 531.563 93.0281 528.055 139.795 544.638C230.691 576.834 409.812 599.128 624.532 514.321C788.06 449.742 1022.1 449.891 1186.87 560.724C1290.31 630.266 1386.95 618.473 1447.39 596.08V493.508Z" fill="#B06CB7"/>
<path opacity="0.6" d="M0.00488281 295.119C64.6648 306.241 161.543 328.397 212.45 366.901C293.175 427.971 481.385 445.413 613.553 378.906C745.72 312.399 902.881 238.527 1071.39 280.203C1227.8 318.88 1345.05 398.276 1447.39 353.49V269.155C1389.77 304.449 1298.97 341.41 1214.63 296.525C1077.08 223.374 921.819 185.543 783.583 223.374C645.348 261.206 436.186 419.425 289.893 369.725C156.954 324.528 86.9724 268.795 0.00488281 253.294V295.119Z" fill="#B06CB7"/>
<path opacity="0.6" d="M1447.39 77.3101C1406.61 81.8011 1349.32 77.8823 1283.57 44.1063C1152.42 -23.2965 954.124 -11.6273 791.852 75.6306C629.581 162.888 525.018 155.797 413.368 129.199C301.718 102.602 177.645 28.1326 28.7661 36.9903C18.7189 37.5999 9.15674 38.2344 0.00488281 38.9061V77.733C68.0097 73.3042 198.511 75.0459 340.713 130.978C548.072 212.539 735.623 155.524 897.061 88.2826C1058.5 21.0415 1228.64 21.1037 1342.07 90.186C1382.04 114.557 1417.82 124.82 1447.4 127.918L1447.39 77.3101Z" fill="#B06CB7"/>
</g>
<g opacity="0.58">
<g style="mix-blend-mode:screen" opacity="0.72">
<path d="M1065.36 27.548C1062.12 23.368 1060.89 18.8397 1060.73 1.52246C1060.56 18.9392 1059.33 23.3805 1056.06 27.6476C1052.53 31.0936 1048.78 32.5118 1035.25 32.8104V32.9597C1048.78 33.2458 1052.54 34.664 1056.11 38.1722C1059.43 42.4767 1060.68 47.1792 1060.68 66.885C1060.68 47.1792 1061.92 42.4518 1065.34 38.0105C1068.91 34.5147 1072.71 33.0343 1086.65 32.8353V32.6984C1072.77 32.4372 1068.97 31.0189 1065.36 27.548Z" fill="#FF9CFA"/>
</g>
<g style="mix-blend-mode:screen" opacity="0.52">
<path d="M516.985 534.761C513.752 530.568 512.521 526.115 512.347 508.723C512.198 526.139 510.967 530.581 507.684 534.848C504.165 538.294 500.397 539.712 486.881 540.011V540.098C500.397 540.384 504.177 541.802 507.734 545.298C511.141 549.702 512.322 554.417 512.384 574.122C512.384 554.417 513.628 549.689 517.06 545.248C520.628 541.752 524.433 540.334 538.36 540.06V539.936C524.408 539.712 520.591 538.294 516.985 534.761Z" fill="#FF9CFA"/>
</g>
<g style="mix-blend-mode:screen" opacity="0.39">
<path d="M877.725 221.807C875.5 218.933 874.654 215.873 874.542 203.917C874.443 215.873 873.585 218.946 871.334 221.857C868.847 224.22 866.36 225.203 857.034 225.415V225.514C866.323 225.701 868.922 226.684 871.371 229.085C873.709 232.108 874.53 235.305 874.567 248.902C874.567 235.355 875.412 232.108 877.775 228.998C880.262 226.597 882.836 225.626 892.411 225.44V225.353C882.861 225.216 880.212 224.245 877.725 221.807Z" fill="#FF9CFA"/>
</g>
<g style="mix-blend-mode:screen" opacity="0.72">
<path d="M1029.59 89.564C1027.4 86.7276 1026.57 83.7045 1026.45 71.9233C1026.34 83.717 1025.51 86.74 1023.28 89.6138C1020.9 91.9526 1018.31 92.9105 1009.17 93.122V93.2215C1018.35 93.4081 1020.91 94.3785 1023.32 96.7546C1025.63 99.7279 1026.44 102.975 1026.48 116.299C1026.48 102.925 1027.31 99.7279 1029.65 96.7049C1032.06 94.3412 1034.62 93.3833 1044.1 93.1966V93.1096C1034.64 92.9354 1032.08 91.965 1029.59 89.564Z" fill="#E59FFF"/>
</g>
<g style="mix-blend-mode:screen" opacity="0.46">
<path d="M1402.99 148.122C1400.8 145.285 1399.95 142.262 1399.84 130.469C1399.73 142.262 1398.9 145.298 1396.67 148.159C1394.28 150.498 1391.7 151.468 1382.56 151.667V151.767C1391.73 151.953 1394.3 152.924 1396.71 155.3C1399.01 158.286 1399.82 161.52 1399.85 174.844C1399.85 161.47 1400.69 158.273 1403.02 155.262C1405.44 152.886 1408 151.928 1417.46 151.742V151.655C1408.02 151.481 1405.44 150.523 1402.99 148.122Z" fill="#E59FFF"/>
</g>
<g style="mix-blend-mode:screen" opacity="0.46">
<path d="M470.641 570.975C468.453 568.139 467.62 565.116 467.508 553.322C467.396 565.116 466.563 568.151 464.337 571.012C461.949 573.351 459.363 574.322 450.224 574.521V574.62C459.4 574.819 461.962 575.777 464.374 578.153C466.687 581.139 467.495 584.374 467.533 597.697C467.533 584.336 468.366 581.127 470.703 578.116C473.116 575.752 475.677 574.782 485.152 574.595V574.521C475.677 574.334 473.091 573.376 470.641 570.975Z" fill="#E59FFF"/>
</g>
<g style="mix-blend-mode:screen" opacity="0.46">
<path d="M65.7337 511.484C63.5453 508.648 62.6997 505.625 62.5878 493.831C62.4759 505.625 61.6428 508.648 59.417 511.522C57.0295 513.861 54.4431 514.831 45.3037 515.03V515.217C54.4804 515.403 57.042 516.374 59.4543 518.75C61.7671 521.723 62.5629 524.97 62.6127 538.294C62.6127 524.92 63.4458 521.723 65.7835 518.712C68.1958 516.336 70.7573 515.378 80.2325 515.192V515.105C70.7698 514.893 68.1834 513.973 65.7337 511.484Z" fill="#E59FFF"/>
</g>
<g style="mix-blend-mode:screen" opacity="0.72">
<path d="M1313.93 274.107C1311.74 271.27 1310.9 268.235 1310.79 256.454C1310.67 268.247 1309.84 271.27 1307.61 274.144C1305.23 276.483 1302.64 277.453 1293.5 277.652V277.752C1302.68 277.938 1305.24 278.909 1307.65 281.285C1309.96 284.258 1310.76 287.505 1310.81 300.829C1310.81 287.455 1311.64 284.258 1313.98 281.235C1316.39 278.871 1318.95 277.914 1328.43 277.727V277.603C1318.97 277.466 1316.38 276.495 1313.93 274.107Z" fill="#E59FFF"/>
</g>
<g style="mix-blend-mode:screen" opacity="0.72">
<path d="M725.476 286.46C723.275 283.624 722.442 280.588 722.33 268.807C722.231 280.601 721.398 283.624 719.172 286.498C716.784 288.836 714.198 289.807 705.059 290.006V290.105C714.235 290.292 716.797 291.262 719.209 293.638C721.51 296.612 722.318 299.859 722.355 313.182C722.355 299.809 723.188 296.612 725.526 293.589C727.938 291.225 730.5 290.267 739.963 290.08V290.043C730.512 289.819 727.926 288.799 725.476 286.46Z" fill="#E59FFF"/>
</g>
<g style="mix-blend-mode:screen" opacity="0.58">
<path d="M953.738 566.31C951.537 563.473 950.704 560.45 950.592 548.657C950.492 560.45 949.647 563.486 947.421 566.36C945.046 568.686 942.447 569.656 933.32 569.855V569.955C942.485 570.154 945.046 571.112 947.471 573.488C949.771 576.474 950.58 579.708 950.617 593.032C950.617 579.671 951.438 576.461 953.775 573.451C956.262 571.087 958.749 570.117 968.224 569.93V569.855C958.712 569.669 956.138 568.711 953.738 566.31Z" fill="#E59FFF"/>
</g>
<g style="mix-blend-mode:screen" opacity="0.72">
<path d="M1344.26 327.514C1342.06 324.678 1341.23 321.654 1341.11 309.861C1341.01 321.654 1340.18 324.69 1337.95 327.564C1335.57 329.89 1332.98 330.86 1323.84 331.06V331.159C1333.02 331.358 1335.58 332.316 1337.99 334.692C1340.29 337.678 1341.1 340.912 1341.14 354.236C1341.14 340.875 1341.97 337.665 1344.31 334.655C1346.72 332.291 1349.28 331.321 1358.75 331.147V331.097C1349.3 330.873 1346.67 329.915 1344.26 327.514Z" fill="#BF77E0"/>
</g>
<g style="mix-blend-mode:screen" opacity="0.72">
<path d="M748.642 337.852C745.981 334.418 744.911 330.761 744.824 316.479C744.7 330.761 743.68 334.431 740.994 337.902C738.097 340.738 735.013 341.908 723.909 342.157V342.293C735.013 342.53 738.11 343.699 741.044 346.573C743.829 350.181 744.774 354.037 744.849 370.21C744.849 354.037 745.856 350.131 748.691 346.486C751.613 343.624 754.747 342.455 766.187 342.231V342.132C754.784 341.92 751.601 340.763 748.642 337.852Z" fill="#DD78AB"/>
</g>
<g style="mix-blend-mode:screen" opacity="0.38">
<path d="M133.888 27.1127C131.251 23.704 130.244 20.0589 130.157 5.88916C130.033 20.0714 129.026 23.7164 126.352 27.1625C123.48 29.974 120.408 31.131 109.379 31.3798V31.5042C120.408 31.7281 123.492 32.8851 126.402 35.7464C129.162 39.3293 130.132 43.2107 130.132 59.2466C130.132 43.1734 131.139 39.3417 133.937 35.6967C136.847 32.8478 139.956 31.6908 151.346 31.4669V31.3674C139.943 31.1559 136.785 30.0362 133.888 27.1127Z" fill="#DD78AB"/>
</g>
<g style="mix-blend-mode:screen" opacity="0.72">
<path d="M101.446 86.2175C98.7853 82.784 97.7159 79.1264 97.6289 64.8447C97.5045 79.1264 96.4849 82.7964 93.799 86.2797C90.9017 89.1037 87.818 90.2732 76.7139 90.522V90.6339C87.818 90.8703 90.9142 92.0397 93.8487 94.9135C96.6341 98.5212 97.5791 102.378 97.6537 118.55C97.6537 102.378 98.6609 98.4839 101.496 94.8264C104.418 91.9651 107.552 90.7957 118.991 90.5717V90.4722C107.539 90.298 104.455 89.1286 101.446 86.2175Z" fill="#DB8B79"/>
</g>
<g style="mix-blend-mode:screen" opacity="0.72">
<path d="M545.41 58.4006C543.16 55.4895 542.314 52.3918 542.19 40.3369C542.078 52.4042 541.22 55.5019 538.944 58.4379C536.457 60.8265 533.896 61.8217 524.508 62.0208V62.1203C533.896 62.3193 536.52 63.3643 538.982 65.7405C541.344 68.7884 542.165 72.0603 542.215 85.7324C542.215 72.0478 543.073 68.7884 545.46 65.7031C547.947 63.215 550.571 62.2944 560.232 62.1078V62.0208C550.558 61.8341 547.91 60.8513 545.41 58.4006Z" fill="#DB8B79"/>
</g>
<g style="mix-blend-mode:screen" opacity="0.49">
<path d="M964.071 336.371C962.604 334.468 962.044 332.453 961.97 324.565C961.908 332.453 961.348 334.518 959.856 336.396C958.264 337.964 956.561 338.611 950.418 338.748V338.81C956.561 338.934 958.264 339.581 959.881 341.174C961.423 343.164 961.957 345.304 961.995 354.249C961.995 345.304 962.554 343.164 964.108 341.149C965.725 339.556 967.453 338.922 973.77 338.797V338.735C967.416 338.561 965.713 337.976 964.071 336.371Z" fill="#DB8B79"/>
</g>
<g style="mix-blend-mode:screen" opacity="0.72">
<path d="M598.109 111.721C595.908 108.884 595.075 105.861 594.963 94.0676C594.864 105.861 594.03 108.897 591.805 111.77C589.417 114.097 586.831 115.067 577.691 115.266V115.366C586.856 115.565 589.417 116.523 591.842 118.899C594.142 121.885 594.951 125.119 594.988 138.443C594.988 125.082 595.821 121.872 598.146 118.862C600.633 116.498 603.12 115.528 612.595 115.341V115.266C603.157 115.08 600.596 114.122 598.109 111.721Z" fill="#E59FFF"/>
</g>
</g>
</svg>
