<svg width="316" height="294" viewBox="0 0 316 294" fill="none" xmlns="http://www.w3.org/2000/svg">
<path d="M96.9166 231.816C113.128 258.79 137.338 280.039 166.18 292.608C166.843 293.086 167.54 293.554 168.27 294.012H286.979C293.16 290.796 299.281 287.181 305.482 283.437C315.027 277.672 320.61 268.869 328.015 261.241V39.7212C316.933 29.8431 304.453 21.6558 290.98 15.4243C275.563 5.1678 261.211 0.846123 239.702 1.81202C201.164 -4.3817 176.998 5.93455 148.503 23.1416C139.545 28.5685 132.27 30.8787 124.845 37.7197C122.635 39.7113 117.878 46.7713 109.915 56.3009C90.2481 80.0501 73.7957 109.615 75.6669 139.209C79.9765 165.946 75.7963 203.128 96.9166 231.816Z" fill="url(#paint0_linear_18_3384)"/>
<path opacity="0.28" d="M119.987 261.241C124.096 265.318 128.436 269.155 132.986 272.732C131.244 271.328 117.439 259.618 118.753 248.027C120.146 235.66 124.556 228.291 128.019 226.2C131.483 224.109 145.258 219.06 151.14 220.514C157.022 221.968 172.39 234.236 173.704 236.446C175.017 238.657 186.533 238.129 186.533 238.129C186.533 238.129 179.566 230.521 175.933 227.405C172.3 224.288 159.909 217.128 156.863 212.09C153.817 207.051 154.196 188.848 155.868 182.216C157.54 175.585 158.854 146.13 158.854 146.13C159.54 133.921 152.195 149.256 150.652 155.5C149.11 161.743 145.825 170.526 144.551 180.155C143.277 189.784 145.546 210.596 141.326 209.56C139.475 209.102 131.234 214.609 124.128 211.94C115.299 208.614 107.207 196.615 103.923 191.099C97.9512 181.141 82.4444 164.78 81.8472 167.2C81.25 169.62 95.6221 200.817 97.1848 203.416C98.7474 206.015 106.063 212.229 109.009 215.177C111.955 218.124 109.009 229.914 105.585 234.953C104.192 237.004 102.042 237.173 99.9915 236.626C105.773 245.512 112.475 253.762 119.987 261.241Z" fill="#140D26"/>
<path opacity="0.28" d="M328.015 191.049C324.87 194.037 321.983 196.785 319.973 198.916C316.124 203.037 311.549 206.412 306.477 208.874C306.477 208.874 322.591 203.267 326.054 201.196C326.841 200.718 327.468 200.33 328.045 200.071L328.015 191.049Z" fill="#140D26"/>
<path opacity="0.28" d="M216.382 23.719C224.793 15.8623 223.638 10.7739 227.092 8.69277C229.52 7.21902 239.742 3.71389 245.604 1.72234C243.703 1.72234 241.742 1.72236 239.702 1.83189C233.004 0.736022 226.234 0.13362 219.448 0.029541C221.438 3.28573 206.051 17.8639 205.364 20.6421C204.677 23.4203 196.984 32.1831 195.352 38.805C193.719 45.4269 184.304 58.1529 184.304 58.1529C184.304 58.1529 193.261 57.4559 196.416 49.3802C199.572 41.3044 207.962 31.5757 216.382 23.719Z" fill="#140D26"/>
<path opacity="0.28" d="M94.7167 134.18C97.5433 132.478 107.257 118.656 108.173 114.992C109.089 111.327 113.876 105.263 115.996 103.979C118.116 102.694 126.596 104.825 130.707 107.633C134.817 110.441 149.349 123.366 151.479 126.891C153.609 130.416 159.142 139.617 159.142 139.617C159.142 139.617 155.231 129.919 160.138 128.435C165.045 126.951 179.049 121.375 184.304 118.178C189.559 114.982 198.626 107.623 202.219 108.489C205.812 109.356 226.614 115.31 230.336 118.885C234.059 122.46 244.947 130.705 246.679 139.319C248.411 147.932 255.468 177.865 256.284 190.372C257.1 202.879 255.03 200.28 248.839 213.165C242.648 226.051 225.549 232.085 222.444 232.483C219.338 232.882 207.096 232.583 203.981 233.011C200.865 233.439 189.927 237.661 189.927 237.661L194.525 237.283C194.525 237.283 204.011 240.27 207.126 240.997C210.241 241.724 216.452 243.327 217.079 244.373C217.706 245.419 224.683 260.973 226.395 263.811C228.107 266.648 232.994 277.154 231.869 281.685C231.302 284.005 231.551 289.342 231.929 294.012H235.91C237.801 288.227 241.673 277.204 242.24 274.943C242.937 272.105 236.885 256.492 234.109 251.901C231.332 247.31 230.426 244.931 233.322 241.784C236.219 238.637 260.335 216.322 262.873 213.345C265.411 210.367 271.054 214.948 275.185 215.964C279.315 216.979 293.896 233.648 295.16 235.76C296.424 237.871 299.589 249.481 301.799 258.752C304.009 268.023 313.643 272.792 313.643 272.792C313.155 270.317 312.214 267.954 310.866 265.822C308.527 261.938 308.358 250.477 308.358 250.477L314.081 252.787L328.015 256.541V256.173C327.177 255.167 326.412 254.102 325.726 252.986C324.452 250.855 304.894 232.812 304.894 232.812C304.894 232.812 294.643 220.863 284.232 212.707C273.821 204.552 266.456 186.608 265.6 185.204C264.744 183.8 260.295 155.639 260.355 149.356C260.414 143.073 268.247 124.272 275.533 115.45C282.819 106.627 313.822 70.3413 319.824 66.7266C322.361 65.2091 325.127 64.1128 328.015 63.4804V39.751C317.971 30.8079 306.786 23.2371 294.752 17.2366C300.724 23.3407 305.452 28.4988 306.158 29.6838C308.069 32.8603 318.918 43.6246 319.097 47.8865C319.276 52.1485 306.158 64.8147 298.375 75.7683C290.592 86.7218 271.084 102.365 271.084 102.365C271.084 102.365 262.485 112.841 255.06 114.902C247.635 116.963 231.172 110.511 217.766 104.178C204.359 97.8446 191.072 84.6506 185.04 78.656C179.009 72.6614 172.728 72.5917 172.728 72.5917L175.485 74.7924C175.485 74.7924 183.856 84.6804 187.051 92.3778C190.246 100.075 182.164 112.184 168.449 116.605C154.733 121.026 146.442 107.275 139.993 102.953C133.543 98.6312 123.351 93.732 118.385 89.49C113.418 85.248 116.235 75.1509 116.862 72.5619C117.489 69.9728 123.073 69.2857 133.543 68.29C144.014 67.2942 148.712 64.5259 155.958 66.2984C163.203 68.0709 166.209 67.2942 166.209 67.2942C166.209 67.2942 157.361 64.1974 153.121 63.1418C148.881 62.0863 141.177 57.7945 131.045 60.0848C120.913 62.3751 114.503 61.3892 113.866 60.3437C113.548 59.8259 112.543 56.9381 111.607 54.1898C111.079 54.847 110.542 55.4843 109.995 56.1813C107.267 59.4541 104.613 62.8497 102.032 66.3681C102.853 67.1842 103.571 68.0971 104.172 69.0866C108.641 76.5151 110.522 90.7945 104.61 107.275C98.6979 123.755 88.7648 128.983 83.8281 134.37C78.8914 139.757 78.8516 143.65 78.8516 143.65L83.0716 141.101L94.7167 134.18Z" fill="#140D26"/>
<path d="M133.305 101.917C127.333 98.5814 119.231 95.0265 116.245 95.8331C113.259 96.6396 112.473 74.7724 113.199 71.8647C113.926 68.9571 130.498 65.8901 135.843 64.1674C141.187 62.4447 159.889 67.0153 162.885 66.159C162.885 66.159 143.267 61.6282 135.683 62.2356C128.099 62.843 111.507 64.9242 111.507 64.9242C111.507 64.9242 110.184 61.3195 108.989 57.4658C107.662 59.1387 106.335 60.8382 105.008 62.5642C106.478 63.4582 107.548 64.8848 107.994 66.5473C108.661 70.1122 112.204 92.0491 110.91 97.2968C109.616 102.545 99.8426 122.122 97.6628 123.466C95.4831 124.81 80.1455 140.494 80.1455 140.494C80.1455 140.494 96.14 128.365 97.9614 127.27C99.7828 126.174 111.677 101.848 111.677 101.848C114.258 101.517 116.794 100.902 119.241 100.015C123.322 98.5416 154.704 121.793 156.236 124.352C157.769 126.911 172.31 119.702 178.959 115.111C181.131 113.52 183.439 112.123 185.856 110.939C185.856 110.939 161.969 121.126 159.66 120.548C157.351 119.971 139.296 105.263 133.305 101.917Z" fill="url(#paint1_linear_18_3384)"/>
<path d="M193.102 48.8425C193.052 49.0217 193.102 48.9023 193.222 48.5737C193.17 48.6577 193.13 48.748 193.102 48.8425Z" fill="url(#paint2_linear_18_3384)"/>
<path d="M235.602 1.53311C232.179 1.33395 228.735 1.25429 225.291 1.28416C224.437 2.22265 223.515 3.09792 222.534 3.90306C221.539 4.51048 212.084 16.5693 204.539 26.5371C198.02 35.1505 193.999 46.4526 193.223 48.5736C195.024 45.2378 216.543 14.7172 218.971 11.5008C220.494 9.46945 229.073 4.859 235.602 1.53311Z" fill="url(#paint3_linear_18_3384)"/>
<path opacity="0.28" d="M272.915 21.4585C272.915 21.4585 293.259 28.1899 298.047 33.8858C302.834 39.5816 306.009 47.1694 305.392 49.8182C304.775 52.467 286.71 70.5801 278.439 80.1097C270.168 89.6392 261.36 103.54 251.934 105.163C242.509 106.786 217.975 93.0846 216.581 90.7545C215.188 88.4244 201.015 84.0928 204.06 76.3755C207.106 68.6582 223.031 40.7168 230.934 33.6468C238.836 26.5768 245.535 31.6552 249.058 34.4733C252.581 37.2913 260.305 44.8692 260.305 44.8692C260.305 44.8692 268.835 56.0119 265.859 62.3251C262.883 68.6383 255.796 75.6586 254.801 76.266C253.806 76.8734 263.141 61.9567 263.599 60.0946C264.057 58.2325 254.383 42.5889 247.734 37.5602C241.086 32.5315 228.823 39.9202 228.097 42.8478C227.37 45.7753 214.163 66.2086 213.287 69.654C212.411 73.0994 209.913 78.7056 211.117 80.6872C212.321 82.6688 223.887 87.2394 230.734 92.6365C237.582 98.0336 246.5 100.762 251.009 101.887C255.517 103.012 263.679 94.0107 266.336 90.1471C268.994 86.2835 288.95 53.4229 295.2 49.629C301.451 45.8351 293.438 33.9555 293.438 33.9555C293.438 33.9555 271.661 26.5071 272.915 21.4585Z" fill="#140D26"/>
<path d="M328.015 193.349C321.844 198.567 315.385 204.781 315.385 204.781C315.385 204.781 322.571 199.931 328.015 197.143V193.349Z" fill="url(#paint4_linear_18_3384)"/>
<path opacity="0.28" d="M236.059 55.554C236.059 55.554 228.863 65.3126 227.838 69.4948C226.813 73.6771 235.362 77.7299 237.054 80.5479C238.746 83.366 245.017 82.1213 245.017 82.1213C245.017 82.1213 236.766 76.8735 233.571 73.697C230.376 70.5205 234.576 61.5386 236.059 55.554Z" fill="#140D26"/>
<path d="M152.435 216.551L161.641 224.418L184.653 239.265C184.653 239.265 180.243 236.188 178.82 233.848C177.397 231.508 154.585 212.707 154.585 212.707C154.585 212.707 150.514 195.351 152.176 188.6C153.838 181.848 155.829 148.062 155.829 148.062C152.554 150.053 148.971 183.83 147.209 190.96C145.448 198.089 145.388 211.234 145.388 211.234C145.388 211.234 132.549 216.422 127.682 216.8C122.815 217.178 121.76 213.345 117.251 212.229C112.742 211.114 101.555 199.981 99.0268 195.769C96.4988 191.557 85.3613 172.07 85.3613 172.07C85.3613 172.07 95.4637 197.283 97.733 201.017C100.002 204.751 117.082 217.766 117.082 217.766C117.082 217.766 111.667 228.391 110.115 234.774C109.139 238.078 107.19 241.011 104.521 243.188C108.571 248.731 112.99 253.994 117.748 258.941C117.032 251.772 116.315 237.104 116.315 237.104C116.315 237.104 120.784 225.443 126.497 223.282C132.21 221.122 152.435 216.551 152.435 216.551Z" fill="url(#paint5_linear_18_3384)"/>
<path opacity="0.28" d="M199.73 121.126C199.73 121.126 227.32 131.223 230.057 134.798C232.794 138.373 242.18 175.156 242.499 177.616C242.817 180.076 242.17 200.19 242.17 200.19C242.17 200.19 231.958 213.623 226.504 216.631L209.922 225.772C209.922 225.772 223.478 216.421 226.365 213.524C229.251 210.626 240.299 195.918 240.667 192.612C241.035 189.306 233.202 166.105 233.193 160.3C233.183 154.494 230.067 139.219 226.056 136.401C222.045 133.583 200.348 125.995 199.73 121.126Z" fill="#140D26"/>
<path opacity="0.38" d="M255.109 48.1656C255.109 48.1656 247.655 40.1994 243.554 39.1439C239.453 38.0884 237.423 40.5181 237.423 40.5181C237.423 40.5181 252.293 50.7746 253.278 54.7577C254.263 58.7408 253.188 66.1493 251.526 69.1765C249.864 72.2037 247.197 79.3533 248.262 78.6961C252.187 75.3411 255.46 71.2902 257.916 66.7468C260.514 61.4094 261.569 59.3183 259.907 56.5401C258.245 53.7619 256.194 49.3008 255.109 48.1656Z" fill="url(#paint6_linear_18_3384)"/>
<path opacity="0.38" d="M291.637 37.8294C291.637 37.8294 275.174 27.8717 272.995 26.2983C270.815 24.725 265.032 21.9766 258.135 17.9039C251.237 13.8312 239.045 12.9749 239.045 12.9749C239.045 12.9749 264.923 31.805 270.327 35.4993C275.732 39.1936 278.638 56.1019 276.229 61.0111C273.821 65.9202 266.475 72.6019 262.554 78.1384C258.632 83.6749 252.272 89.4006 251.357 93.075C250.441 96.7495 252.163 98.5916 252.85 98.1833C253.536 97.7751 262.942 90.8146 265.789 86.5925C268.635 82.3704 276.219 68.2902 277.931 65.3327C279.643 62.3753 286.949 52.7959 288.7 50.4658C290.452 48.1357 293.737 44.4314 293.737 44.4314C293.737 44.4314 292.881 39.9504 291.637 37.8294Z" fill="url(#paint7_linear_18_3384)"/>
<path opacity="0.38" d="M227.898 62.0964C227.898 62.0964 223.977 70.7995 225.908 74.0457C227.838 77.292 233.532 83.0077 234.228 84.2027C234.925 85.3976 232.477 84.9395 231.491 83.3164C230.506 81.6933 221.459 76.0971 221.17 73.279C220.881 70.461 225.211 64.9742 227.898 62.0964Z" fill="url(#paint8_linear_18_3384)"/>
<path opacity="0.28" d="M179.008 84.2324C179.008 84.2324 160.615 69.7638 152.902 69.5845C145.188 69.4053 129.592 76.7342 129.592 76.7342C129.592 76.7342 125.76 85.2879 127.9 88.8229C130.04 92.3579 147.706 101.051 147.706 101.051L154.723 109.256L163.75 112.791C163.75 112.791 153.598 105.104 149.936 99.0197C146.273 92.9355 136.001 93.6325 131.921 86.0746C127.84 78.5166 135.902 75.7384 144.392 72.6615C152.882 69.5845 163.571 76.9831 168.349 80.3289C171.561 82.4192 175.206 83.7538 179.008 84.2324Z" fill="#140D26"/>
<path opacity="0.28" d="M179.118 90.2667C179.118 90.2667 179.805 97.7449 175.277 100.971C170.748 104.198 169.116 104.676 169.116 104.676C165.976 101.525 163.066 98.1541 160.407 94.5883C157.092 89.8883 149.229 86.0048 149.229 86.0048C149.229 86.0048 154.057 85.2579 158.187 90.1671C162.318 95.0762 166.936 99.4975 168.757 99.9556C170.579 100.414 178.452 92.9353 179.118 90.2667Z" fill="#140D26"/>
<path opacity="0.28" d="M198.257 5.59583L202.657 10.1266C202.657 10.1266 198.277 26.6664 191.509 34.1148C184.741 41.5632 181.337 49.8481 175.157 51.8994C168.976 53.9507 156.584 55.6834 151.658 54.4586C146.731 53.2337 129.91 50.575 128.079 50.117C126.248 49.6589 124.098 45.1381 124.098 45.1381C124.098 45.1381 128.387 48.2748 131.771 49.1212C135.155 49.9676 154.882 48.1254 161.81 48.4839C168.737 48.8424 175.455 47.6873 179.984 43.276C184.512 38.8647 192.345 30.779 193.122 24.5454C193.825 20.3566 195.424 16.369 197.81 12.855C197.81 12.855 197.68 6.17339 197.939 5.10791L198.257 5.59583Z" fill="#140D26"/>
<path opacity="0.28" d="M176.68 14.3191C177.108 17.3961 178.004 25.2726 176.889 29.7636C175.775 34.2545 160.875 40.1495 160.875 40.1495C160.875 40.1495 171.823 39.572 174.411 37.9688C176.999 36.3656 182.264 24.3565 183.16 20.712C184.056 17.0674 183.03 9.75845 183.03 9.75845C183.096 9.43454 183.086 9.09984 183.002 8.78036C182.917 8.46088 182.76 8.1652 182.543 7.91626C180.691 8.49381 178.82 9.10125 176.969 9.73855C176.656 11.244 176.559 12.7863 176.68 14.3191Z" fill="#140D26"/>
<path opacity="0.38" d="M286.252 39.9004C286.252 39.9004 277.633 36.9131 280.798 40.5775C283.963 44.242 283.396 44.8693 282.062 50.2465C280.728 55.6237 276.906 63.7393 276.906 63.7393C276.906 63.7393 285.107 55.2354 287.188 51.0631C289.268 46.8908 290.612 40.9758 286.252 39.9004Z" fill="url(#paint9_linear_18_3384)"/>
<path opacity="0.38" d="M268.457 77.3416C265.73 79.7413 263.342 82.5018 261.36 85.5468C258.375 90.2767 254.871 95.3054 254.871 95.3054C258.277 93.4427 261.249 90.8784 263.59 87.7818C265.932 84.6852 267.591 81.1268 268.457 77.3416Z" fill="url(#paint10_linear_18_3384)"/>
<path opacity="0.28" d="M328.016 113.249C322.76 106.05 317.883 99.5174 317.147 99.3083C315.614 98.9498 319.346 85.0289 322.86 80.6176C324.204 79.0593 326.01 77.9709 328.016 77.5108V74.5234C324.104 75.3201 320.6 76.6544 319.426 78.168C317.037 81.235 310.628 98.0835 310.389 99.0793C310.15 100.075 320.8 112.811 326.931 120.817C327.279 121.275 327.647 121.723 328.016 122.181V113.249Z" fill="#140D26"/>
<path opacity="0.28" d="M312.171 160.061C312.171 160.061 322.522 172.378 323.238 173.573C323.955 174.768 316.769 183.352 307.652 189.814C304.762 191.975 301.418 193.447 297.874 194.12C294.329 194.793 290.678 194.649 287.198 193.698C284.143 192.941 278.549 155.61 279.156 150.68C279.764 145.751 281.018 131.641 281.018 131.641C281.018 131.641 294.464 127.449 298.445 128.445C301.431 129.182 318.481 145.114 328.006 153.459V151.656C318.859 141.908 302.496 124.97 298.147 123.894C292.026 122.39 277.644 127.15 277.126 130.068C276.608 132.986 275.006 161.634 276.997 175.734C278.987 189.834 281.525 196.158 285.725 197.153C289.926 198.149 299.122 201.276 301.65 201.903C304.178 202.531 323.925 179.996 325.936 176.83C327.946 173.663 312.449 157.322 311.872 156.327C311.295 155.331 312.171 160.061 312.171 160.061Z" fill="#140D26"/>
<path opacity="0.28" d="M302.426 154.206C302.426 154.206 293.369 146.488 292.652 149.336C291.935 152.184 290.661 167.161 292.722 173.733C293.826 177.562 296.006 180.994 299.002 183.621C297.248 178.959 295.782 174.193 294.613 169.351C293.07 162.451 294.682 157.571 296.155 155.709C297.628 153.847 303.272 156.635 302.426 154.206Z" fill="#140D26"/>
<path opacity="0.28" d="M169.324 157.163C169.324 157.163 166.338 186.539 169.971 199.782C173.604 213.026 196.347 213.265 196.347 213.265C196.347 213.265 214.909 192.762 215.257 183.591C215.606 174.42 209.544 155.172 203.373 153.648C197.203 152.124 188.573 157.312 188.573 157.312C188.573 157.312 201.91 154.823 204.379 158.906C206.847 162.988 210.709 184.796 207.992 189.516C205.274 194.236 189.887 208.187 189.081 206.842C188.275 205.498 179.357 208.675 178.063 198.319C176.769 187.962 167.971 162.63 169.324 157.163Z" fill="#140D26"/>
<path opacity="0.28" d="M187.778 162.132C187.778 162.132 189.539 178.393 190.913 183.74C191.309 185.271 192.153 186.649 193.335 187.699C194.517 188.749 195.985 189.423 197.551 189.635C197.551 189.635 192.943 194.266 189.38 188.371C185.817 182.476 186.872 165.767 187.778 162.132Z" fill="#140D26"/>
<path opacity="0.28" d="M143.467 277.363C140.471 272.543 138.65 267.085 138.152 261.431C137.485 252.319 148.553 242.79 150.375 243.228C152.196 243.666 195.531 254.022 205.992 260.076C216.453 266.131 223.211 279.395 224.903 285.21C225.599 287.659 226.615 291.005 227.57 294.062H228.277L226.366 285.568C226.366 285.568 218.304 258.862 214.303 257.886C210.302 256.91 196.019 250.666 185.857 248.137C175.695 245.608 147.13 236.238 143.955 238.179C140.78 240.121 135.057 259.887 134.072 263.87C133.086 267.853 138.192 273.758 138.192 273.758L143.467 277.363Z" fill="#140D26"/>
<path opacity="0.28" d="M179.875 275.192C186.085 277.502 196.675 277.413 203.145 280.948C206.36 282.7 211.446 288.566 215.735 294.012H219.507C216.731 290.109 210.819 282.262 207.036 279.215C202.219 275.322 175.674 265.663 171.594 268.112C167.513 270.562 166.1 287.201 166.1 287.201L170.081 292.837C170.081 292.837 167.513 270.572 179.875 275.192Z" fill="#140D26"/>
<path d="M192.296 100.613C190.813 102.973 186.991 108.171 186.991 108.171C186.991 108.171 191.967 105.263 194.356 102.465C195.501 101.131 196.297 100.255 196.804 99.6969C205.683 105.194 227.828 114.315 236.139 121.933C246.152 131.1 250.763 137.267 249.974 140.434C249.197 143.581 263.52 202.929 257.627 206.484C254.831 208.187 246.39 220.425 237.522 227.086C231.547 231.541 224.672 234.637 217.377 236.158L196.994 237.034C196.994 237.034 208.937 238.548 215.297 240.101C221.657 241.655 230.854 267.395 233.213 271.329C235.323 274.814 233.531 290.537 233.103 294.013H233.232C234.228 290.896 238.209 278.2 239.005 274.993C239.911 271.309 231.461 253.594 228.306 248.336C225.151 243.079 258.414 212.279 264.316 208.714C270.218 205.15 294.045 228.341 299.062 237.403C299.201 237.662 299.36 237.901 299.51 238.149C299.551 242.27 300.079 246.371 301.082 250.368C303.003 256.621 308.567 266.888 308.567 266.888C308.567 266.888 303.809 251.812 304.586 248.894C304.883 246.989 304.833 245.045 304.436 243.158C311.822 248.814 322.78 252.18 322.78 252.18C322.78 252.18 309.084 239.872 302.774 233.848C296.464 227.823 265.829 201.634 263.39 187.823C262.524 182.844 258.513 172.817 257.339 159.722C256.075 145.841 260.006 129.082 263.241 125.288C269.531 117.91 309.592 68.6884 319.426 62.7536C322.055 61.1135 324.991 60.0291 328.055 59.5671V39.7512C317.338 30.2075 305.325 22.2287 292.373 16.0518C292.971 16.4501 319.923 33.9757 323.447 44.2223C326.97 54.4688 267.71 107.404 261.638 118.198C255.567 128.993 200.139 96.2913 200.139 96.2913L180.79 77.5409C180.79 77.5409 189.579 90.7847 192.843 96.0424C192.992 97.6755 192.992 99.5674 192.296 100.613Z" fill="url(#paint11_linear_18_3384)"/>
<path opacity="0.28" d="M147.875 137.716C147.875 137.716 131.413 120.06 123.272 118.069C115.13 116.077 99.4939 139.299 98.1801 141.968C96.8663 144.636 96.7668 166.424 100.748 173.026C104.729 179.628 117.32 199.613 117.32 199.613C117.32 199.613 103.963 182.755 100.688 177.318C97.4138 171.881 91.3623 156.157 93.1439 148.988C94.9255 141.818 101.425 132.846 104.689 127.708C107.954 122.57 119.052 109.784 121.221 110.282C123.391 110.78 131.125 114.395 131.125 114.395C131.125 114.395 149.04 133.035 147.875 137.716Z" fill="#140D26"/>
<path opacity="0.28" d="M131.812 189.297C131.812 189.297 139.247 172.628 138.52 163.506C138.367 161.842 138.033 160.199 137.525 158.607C135.305 151.169 130.15 144.397 129.563 143.441C128.856 142.266 119.908 142.366 116.016 144.726C112.125 147.086 111.687 159.523 111.687 159.523C111.687 159.523 114.444 169.79 118.495 170.785C122.546 171.781 125.88 168.983 125.88 168.983C125.88 168.983 121.311 175.475 120.147 176.163C118.982 176.85 110.771 165.916 109.836 161.714C108.9 157.512 112.354 143.481 112.891 141.281C113.429 139.08 130.637 139.08 133.136 139.697C135.634 140.315 140.471 150.113 142.601 158.906C144.731 167.699 134.957 185.792 135.634 186.947C136.311 188.102 127.95 197.9 127.95 197.9L131.812 189.297Z" fill="#140D26"/>
<path opacity="0.28" d="M100.171 77.939C100.171 77.939 100.171 78.7356 100.171 80.05C100.171 83.0373 100.171 88.5639 100.38 93.1942C100.709 99.8858 96.7674 109.127 92.4975 114.394C88.2277 119.662 81.0117 128.753 81.0117 128.753C81.0117 128.753 84.5749 121.046 85.2617 118.228C85.9484 115.41 94.8166 110.332 96.1105 98.4221C97.4043 86.5126 96.5284 83.3161 100.171 77.939Z" fill="#140D26"/>
<path opacity="0.28" d="M248.152 294.013H251.666C252.422 287.948 253.029 280.201 252.203 274.565C250.641 263.89 250.66 252.429 251.208 250.437C251.755 248.446 278.141 237.004 280.738 238.807C283.336 240.609 290.691 256.95 294.882 263.831C299.072 270.711 299.231 284.075 299.231 284.075C299.231 284.075 302.436 272.454 298.793 264.089C298.793 264.089 287.845 237.303 281.545 233.629C275.244 229.954 246.848 246.325 246.241 248.745C245.634 251.164 247.237 272.374 249.008 275.382C250.163 277.313 249.088 287.132 248.152 294.013Z" fill="#140D26"/>
<path opacity="0.28" d="M288.929 286.912C288.929 286.912 279.305 262.546 274.666 261.401C270.028 260.255 265.649 265.722 265.43 266.589C265.211 267.455 262.892 285.389 263.718 286.743C264.544 288.097 264.843 293.594 264.843 293.594C264.843 293.594 266.286 295.347 266.296 282.949C266.306 270.552 266.545 271.557 268.356 269.008C270.168 266.459 275.901 266.877 275.901 266.877C275.901 266.877 284.46 283.288 285.794 285.478C287.128 287.669 286.351 290.756 286.351 290.756C286.351 290.756 289.885 291.593 288.929 286.912Z" fill="#140D26"/>
<path opacity="0.28" d="M326.85 212.17C327.185 212.664 327.576 213.119 328.015 213.524V208.346C327.663 208.125 327.26 207.998 326.845 207.979C326.43 207.96 326.017 208.049 325.646 208.236C321.376 210.805 311.712 227.684 313.563 230.681C315.414 233.678 327.975 248.774 327.975 248.774C327.975 248.774 319.814 233.3 319.206 228.441C318.599 223.581 325.566 210.039 326.85 212.17Z" fill="#140D26"/>
<path opacity="0.38" d="M224.733 141.689C224.733 141.689 209.047 132.209 204.13 130.984C199.213 129.759 186.215 135.375 186.215 135.375C186.215 135.375 187.21 139.617 192.834 141.021C198.457 142.426 214.272 149.924 215.407 151.826C216.542 153.728 224.872 165.388 226.505 173.414C228.137 181.44 226.953 200.788 222.713 203.337C218.473 205.886 203.205 215.754 199.731 221.709C196.257 227.664 206.698 222.645 210.013 220.644C213.327 218.642 223.867 214.868 224.803 211.074C225.738 207.28 240.519 194.534 236.537 187.912C232.556 181.291 228.426 147.833 224.733 141.689Z" fill="url(#paint12_linear_18_3384)"/>
<path opacity="0.38" d="M201.572 164.044C201.572 164.044 197.88 161.057 195.063 162.829C192.246 164.601 197.999 168.804 199.701 174.778C201.403 180.753 201.821 192.154 201.821 192.154C201.821 192.154 203.423 187.325 204.727 182.037C206.031 176.75 204.976 169.68 201.572 164.044Z" fill="url(#paint13_linear_18_3384)"/>
<path opacity="0.38" d="M324.601 160.808C325.725 162.66 326.92 164.88 328.015 167.091V157.521C323.038 152.204 316.957 145.811 313.424 142.784C306.805 137.158 298.295 129.431 295.936 130.835C293.577 132.239 286.978 133.025 286.232 136.053C285.485 139.08 299.459 140.922 302.863 143.361C306.267 145.801 321.187 155.132 324.601 160.808Z" fill="url(#paint14_linear_18_3384)"/>
<path opacity="0.38" d="M301.76 160.768C301.76 160.768 310.051 161.355 312.618 167.738C315.186 174.121 316.809 176.132 310.23 183.312C303.651 190.491 294.176 191.597 289.647 190.482C285.118 189.366 287.756 180.165 287.756 180.165C287.756 180.165 294.006 187.325 298.634 186.449C303.263 185.572 309.274 180.673 308.13 178.791C306.985 176.909 302.914 165.846 302.914 165.846L301.76 160.768Z" fill="url(#paint15_linear_18_3384)"/>
<path opacity="0.38" d="M328.016 127.18C323.726 122.58 319.765 118.218 319.765 118.218C319.765 118.218 311.404 107.902 309.812 105.333C308.22 102.764 306.936 98.3624 307.393 96.4904C307.851 94.6183 311.225 88.335 311.225 88.335C311.225 88.335 304.646 94.8374 301.481 97.3467C298.316 99.8561 298.217 101.24 299.073 102.684C299.929 104.128 308.936 111.298 316.441 121.166C319.803 125.558 323.672 129.539 327.966 133.025L328.016 127.18Z" fill="url(#paint16_linear_18_3384)"/>
<path opacity="0.3" d="M222.085 32.4619C222.085 32.4619 214.371 47.3289 210.788 55.9722C207.205 64.6155 199.661 70.5503 198.844 73.8264C198.028 77.1025 200.775 82.4001 204.816 85.9948C208.857 89.5896 215.844 92.7661 215.844 92.7661C215.844 92.7661 206.05 92.6466 202.029 89.0518C198.008 85.4571 190.713 78.7356 190.972 73.0398C191.23 67.3439 204.537 55.5838 208.389 48.1454C212.241 40.7069 221.059 33.0893 222.085 32.4619Z" fill="url(#paint17_linear_18_3384)"/>
<path opacity="0.38" d="M270.845 144.825C270.845 144.825 272.597 167.429 273.463 174.191C274.329 180.952 274.906 189.187 279.216 196.317C283.525 203.446 295.459 206.414 295.459 206.414C295.459 206.414 301.918 209.461 300.903 210.088C299.888 210.716 282.052 206.862 282.052 206.862C282.052 206.862 272.975 194.494 271.203 190.014C269.432 185.533 264.903 155.918 270.845 144.825Z" fill="url(#paint18_linear_18_3384)"/>
<path opacity="0.38" d="M182.682 161.455C182.682 161.455 181.886 179.01 183.528 184.835C185.17 190.661 191.401 195.102 191.401 195.102C191.401 195.102 188.007 197.153 184.742 196.347C181.478 195.54 179.208 187.175 178.372 181.191C177.536 175.206 179.009 164.581 182.682 161.455Z" fill="url(#paint19_linear_18_3384)"/>
<path opacity="0.53" d="M224.962 151.676C224.962 151.676 220.981 148.958 222.116 153.857C223.25 158.756 229.501 173.035 228.555 176.849C227.61 180.663 230.546 190.929 230.546 190.929C230.546 190.929 237.752 194.445 234.686 187.026C231.621 179.607 224.355 154.116 224.962 151.676Z" fill="url(#paint20_linear_18_3384)"/>
<path opacity="0.53" d="M231.451 195.481C231.451 195.481 228.127 193.798 227.47 196.476C226.813 199.155 224.175 209.8 224.912 206.832C225.648 203.865 234.526 198.269 231.451 195.481Z" fill="url(#paint21_linear_18_3384)"/>
<path opacity="0.53" d="M326.114 157.322C326.114 157.322 319.147 148.082 315.892 147.275C312.637 146.468 320.63 156.187 321.993 157.641C323.357 159.095 329.368 161.305 326.114 157.322Z" fill="url(#paint22_linear_18_3384)"/>
<path opacity="0.38" d="M293.469 268.341C293.469 268.341 282.043 243.258 278.37 244.094C274.697 244.931 263.888 247.749 260.773 251.005C258.767 253.209 257.16 255.746 256.025 258.503C256.025 258.503 272.259 252.419 274.936 253.086C277.614 253.753 282.162 258.911 286.671 266.4C291.18 273.888 293.519 283.119 294.126 284.134C294.733 285.15 296.733 275.152 293.469 268.341Z" fill="url(#paint23_linear_18_3384)"/>
<path opacity="0.22" d="M160.236 256.004C163.41 258.986 167.228 261.198 171.394 262.466C174.23 263.163 184.492 262.924 198.038 266.28C211.584 269.636 215.874 284.144 217.685 287.192C219.419 289.738 221.477 292.047 223.806 294.062H225.319C225.319 293.067 224.324 290.687 221.885 286.146C221.885 286.146 215.127 269.397 209.275 265.872C203.423 262.347 186.383 259.957 174.041 253.654C161.7 247.35 152.423 249.233 151.597 249.73C150.771 250.228 157.28 252.917 160.236 256.004Z" fill="url(#paint24_linear_18_3384)"/>
<path opacity="0.22" d="M211.735 294.013C208.221 289.532 204.17 284.961 201.901 284.393C197.313 283.268 190.326 282.462 185.678 281.536C181.03 280.609 179.248 283.198 179.248 283.198C179.248 283.198 195.252 290.647 199.234 294.013H211.735Z" fill="url(#paint25_linear_18_3384)"/>
<path opacity="0.32" d="M211.007 294.012C209.196 292.409 206.837 290.587 205.035 290.139C202.129 289.422 204.04 291.473 206.09 294.012H211.007Z" fill="url(#paint26_linear_18_3384)"/>
<path opacity="0.32" d="M216.711 278.01C216.711 278.01 212.182 270.044 209.385 267.953C206.588 265.862 200.517 264.179 204.996 267.823C209.475 271.468 210.41 272.175 212.958 276.447C215.506 280.719 218.542 282.72 216.711 278.01Z" fill="url(#paint27_linear_18_3384)"/>
<path opacity="0.32" d="M222.294 286.843C222.294 286.843 218.223 282.86 218.93 286.305C219.637 289.751 220.015 290.219 221.806 290.647C223.598 291.075 225.011 292.817 222.294 286.843Z" fill="url(#paint28_linear_18_3384)"/>
<path opacity="0.22" d="M168.438 235.809C168.438 235.809 153.31 223.223 151.916 222.864C150.523 222.506 145.188 221.48 142.013 222.466C138.835 223.658 135.737 225.051 132.737 226.638L142.998 228.022C142.998 228.022 144.67 230.81 142.242 232.244C139.813 233.678 133.035 237.353 132.349 240.121C131.662 242.889 129.761 255.366 130.039 256.631C130.318 257.895 134.309 246.494 136.369 242.889C138.43 239.284 144.392 234.256 147.159 232.593C149.926 230.93 152.971 230.492 159.5 235.062C166.029 239.633 183.577 246.046 168.438 235.809Z" fill="url(#paint29_linear_18_3384)"/>
<path opacity="0.38" d="M150.006 147.364C150.006 147.364 147.547 139.398 142.969 136.51C138.391 133.623 126.517 123.306 122.774 124.133C119.032 124.959 112.612 133.095 111.577 133.722C110.542 134.35 113.657 134.838 118.644 133.722C123.63 132.607 126.955 131.074 130.836 132.02C134.718 132.965 138.61 138.671 141.954 144.198C145.298 149.724 149.07 165.358 150.006 147.364Z" fill="url(#paint30_linear_18_3384)"/>
<path opacity="0.38" d="M134.996 161.584C134.996 161.584 130.1 145.652 126.357 146.488C122.615 147.325 118.335 148.032 117.788 150.262C117.24 152.493 124.367 148.629 126.387 155.918C128.408 163.207 128.855 173.314 128.746 183.302C128.636 193.29 136.47 168.714 134.996 161.584Z" fill="url(#paint31_linear_18_3384)"/>
<path opacity="0.38" d="M105.356 153.06C105.356 153.06 105.435 161.027 108.571 166.215C110.471 169.371 112.817 172.235 115.538 174.718C115.224 175.12 114.831 175.453 114.382 175.695C113.934 175.937 113.44 176.083 112.932 176.125C112.424 176.166 111.913 176.101 111.431 175.934C110.949 175.768 110.507 175.503 110.133 175.157C108.143 173.593 105.296 167.121 104.082 165.129C100.967 159.921 102.002 156.934 105.356 153.06Z" fill="url(#paint32_linear_18_3384)"/>
<path opacity="0.38" d="M273.991 270.771C273.991 270.771 280.798 278.916 282.68 282.043C284.561 285.17 283.317 290.159 283.317 290.159C283.317 290.159 278.459 283.656 275.951 279.494C273.443 275.332 271.094 275.352 270.835 283.537C270.577 291.722 267.77 278.07 268.845 273.908C269.92 269.745 273.991 270.771 273.991 270.771Z" fill="url(#paint33_linear_18_3384)"/>
<path opacity="0.38" d="M173.414 14.5877C173.414 14.5877 173.962 24.8841 173.345 27.3835C172.728 29.8828 167.214 32.4918 163.053 35.021C158.893 37.5503 143.605 40.3684 140.48 42.2504C137.355 44.1324 151.806 34.0053 155.967 31.4761C160.127 28.9468 165.741 25.9495 166.865 21.359C167.99 16.7685 171.215 10.9432 173.414 14.5877Z" fill="url(#paint34_linear_18_3384)"/>
<path opacity="0.38" d="M175.804 90.2667C175.804 90.2667 171.027 83.7643 165.573 81.0757C160.118 78.3871 151.639 72.8406 147.12 73.8563C142.601 74.872 137.227 79.3928 137.227 79.3928C137.227 79.3928 145.876 78.8651 147.886 79.3928C149.897 79.9206 155.102 81.4541 158.486 84.9592C161.87 88.4643 170.549 96.4206 175.804 90.2667Z" fill="url(#paint35_linear_18_3384)"/>
<path opacity="0.38" d="M289.547 18.8396C289.547 18.8396 276.458 8.95153 270.536 7.47778C264.614 6.00403 248.64 6.13351 248.64 6.13351C248.64 6.13351 265.291 12.1081 272.258 13.8308C279.225 15.5535 283.207 21.7373 287.795 22.8625C292.383 23.9877 304.446 31.8245 305.491 33.5273C306.536 35.23 304.874 31.1274 289.547 18.8396Z" fill="url(#paint36_linear_18_3384)"/>
<path opacity="0.38" d="M304.536 58.4614C304.536 58.4614 292.891 69.634 288.213 76.6044C283.535 83.5749 264.256 107.683 281.793 90.5453C299.33 73.408 306.636 58.9693 304.536 58.4614Z" fill="url(#paint37_linear_18_3384)"/>
<path opacity="0.38" d="M324.074 138.044C324.074 138.044 301.102 112.741 298.316 112.044C295.529 111.347 282.988 115.659 281.694 116.446C280.4 117.232 273.881 125.617 273.881 125.617C273.881 125.617 290.801 116.854 294.673 117.8C298.544 118.746 305.492 124.93 311.862 130.576C315.413 133.83 319.56 136.366 324.074 138.044Z" fill="url(#paint38_linear_18_3384)"/>
<path opacity="0.38" d="M213.496 114.006C213.496 114.006 233.959 123.127 239.643 130.456C245.326 137.785 245.366 148.161 249.307 160.608C253.248 173.055 254.801 196.755 253.686 201.296C252.572 205.836 246.401 212.807 241.096 217.786C235.791 222.764 216.303 229.795 216.303 229.795C216.303 229.795 238.478 216.401 243.076 208.286C247.675 200.17 247.287 183.79 244.549 172.438C241.812 161.086 239.782 140.902 239.682 139.767C239.583 138.631 234.527 129.241 234.527 129.241C234.527 129.241 218.473 119.313 213.496 114.006Z" fill="url(#paint39_linear_18_3384)"/>
<path opacity="0.22" d="M144.073 177.865C144.073 177.865 136.19 196.267 132.717 201.325C130.66 204.274 128.988 207.473 127.74 210.845C131.02 209.819 134.196 208.485 137.226 206.862C140.739 204.801 142.003 186.2 144.073 177.865Z" fill="url(#paint40_linear_18_3384)"/>
<path opacity="0.38" d="M163.85 180.225C163.85 180.225 162.477 197.591 167.463 205.876C172.45 214.161 178.302 213.036 183.089 216.063C187.877 219.09 193.381 222.316 189.549 222.844C185.717 223.372 164.895 216.372 163.313 213.773C161.73 211.174 156.366 189.735 163.85 180.225Z" fill="url(#paint41_linear_18_3384)"/>
<path opacity="0.38" d="M277.941 219.877C277.941 219.877 271.482 217.537 267.222 218.343C262.962 219.15 246.967 231.458 244.529 235.272C242.09 239.085 235.681 247.141 235.681 247.141C235.681 247.141 244.37 238.926 250.889 234.973C257.408 231.02 271.253 227.445 271.253 227.445C271.253 227.445 280.569 227.146 281.355 228.441C282.141 229.735 292.881 241.655 292.881 241.655C292.881 241.655 283.863 225.782 277.941 219.877Z" fill="url(#paint42_linear_18_3384)"/>
<path opacity="0.3" d="M187.299 11.6205C187.299 11.6205 185.309 21.2297 183.925 26.6368C182.542 32.0438 180.86 37.67 176.5 40.2888C172.141 42.9077 161.292 44.6105 161.292 44.6105C166.077 45.253 170.947 44.7268 175.485 43.077C182.88 40.3187 186.085 32.8902 189.25 28.2698C192.415 23.6494 192.375 10.1766 192.375 10.1766C192.375 10.1766 186.971 4.78945 187.299 11.6205Z" fill="url(#paint43_linear_18_3384)"/>
<path opacity="0.38" d="M102.451 84.9892C102.451 84.9892 102.57 98.1534 101.067 104.218C99.5643 110.282 91.2734 119.314 91.2734 119.314C91.2734 119.314 101.346 120.787 104.969 106.179C107.461 96.5855 107.868 86.5686 106.163 76.804C105.437 72.9204 102.501 80.0999 102.451 84.9892Z" fill="url(#paint44_linear_18_3384)"/>
<path opacity="0.38" d="M92.2184 90.6055C92.2184 90.6055 92.6065 103.252 89.0931 108.918C85.5797 114.584 78.334 120.867 78.334 120.867C78.334 120.867 82.9024 110.551 84.3954 104.506C85.8883 98.4621 91.034 95.3055 92.2184 90.6055Z" fill="url(#paint45_linear_18_3384)"/>
<path opacity="0.22" d="M88.367 195.092C88.367 195.092 99.1163 211.582 101.744 215.934C104.371 220.285 102.669 235.361 102.669 235.361C102.669 235.361 99.5343 220.783 96.1901 215.227C92.8459 209.67 85.2418 192.633 84.3062 191.059C83.3706 189.486 88.367 195.092 88.367 195.092Z" fill="url(#paint46_linear_18_3384)"/>
<path opacity="0.4" d="M249.954 171.054C249.954 171.054 245.197 165.547 245.625 173.374C246.053 181.201 246.371 186.688 248.223 189.745C250.074 192.802 253.657 186.479 249.954 171.054Z" fill="url(#paint47_linear_18_3384)"/>
<path opacity="0.4" d="M251.516 197.532C250.899 196.536 248.531 193.3 247.356 197.94C246.182 202.58 245.137 211.592 249.088 207.37C253.039 203.148 253.368 200.589 251.516 197.532Z" fill="url(#paint48_linear_18_3384)"/>
<path opacity="0.38" d="M183.697 97.7948C183.697 97.7948 175.157 106.08 171.753 106.538C168.349 106.996 161.571 101.738 159.958 99.0694C158.346 96.4007 152.673 93.0449 152.673 93.0449C152.673 93.0449 158.953 99.1391 162.407 104.885C165.861 110.63 166.388 112.373 170.16 111.676C173.933 110.979 180.87 109.256 183.697 97.7948Z" fill="url(#paint49_linear_18_3384)"/>
<path opacity="0.53" d="M315.803 170.805C315.803 170.805 305.761 154.873 306.955 166.822C308.15 178.771 304.965 189.028 308.757 184.746C312.549 180.464 317.406 179.11 315.803 170.805Z" fill="url(#paint50_linear_18_3384)"/>
<path opacity="0.53" d="M257.836 58.2526C257.836 58.2526 253.467 50.8639 253.497 56.0121C253.527 61.1602 245.763 70.2218 248.839 70.9487C251.914 71.6756 259.996 65.2728 257.836 58.2526Z" fill="url(#paint51_linear_18_3384)"/>
<path opacity="0.25" d="M96.9157 231.816C113.127 258.79 137.337 280.039 166.179 292.608C166.885 293.096 167.582 293.554 168.289 294.012H224.434C213.983 285.21 209.076 260.723 203.055 255.376C196.346 249.401 193.729 241.027 188.215 231.866C182.701 222.705 178.401 224.676 176.271 215.933C167.751 212.588 153.18 205.796 152.145 188.55C151.11 171.303 157.768 150.272 154.812 140.185C151.856 130.098 166.408 127.867 168.05 121.205C169.692 114.544 182.74 107.344 184.283 101.121C185.826 94.897 173.494 75.9673 173.982 70.8291C174.47 65.6909 175.126 51.8496 182.94 48.1951C190.753 44.5406 195.878 15.942 205.652 5.13779C207.963 2.85118 210.76 1.11531 213.834 0.0593262C189.11 1.00531 170.04 10.0768 148.442 23.0916C139.485 28.5186 132.209 30.8288 124.784 37.6698C122.575 39.6613 117.817 46.7214 109.855 56.2509C90.1875 80.0002 73.7352 109.565 75.6063 139.159C79.9757 165.946 75.7955 203.128 96.9157 231.816Z" fill="#140D26"/>
<path d="M103.366 227.813C104.919 218.702 91.363 205.976 87.78 200.031C84.1969 194.087 79.1308 177.238 80.4744 171.841C81.8181 166.444 80.8228 135.555 80.8228 135.555C80.8228 135.555 78.6132 131.89 80.1559 125.647C81.0119 122.221 82.4352 109.336 83.5499 98.3826C77.9762 111.597 74.851 125.408 75.7368 139.209C79.9967 165.946 75.8164 203.108 96.9367 231.816C98.4097 234.266 99.9226 236.666 101.545 239.006L103.366 227.813Z" fill="#C40E8D"/>
<path d="M166.18 292.608C166.887 293.096 167.583 293.554 168.28 294.012H175.416C174.531 293.484 173.695 292.878 172.918 292.2C172.918 292.2 162.965 290.447 159.093 283.437C155.222 276.427 149.399 276.726 142.054 274.893C134.709 273.061 131.653 267.674 129.055 263.372C127.443 260.684 122.267 259.947 118.545 259.768C119.033 260.256 119.54 260.763 119.988 261.241C133.31 274.47 148.973 285.106 166.18 292.608Z" fill="#C40E8D"/>
<path opacity="0.31" d="M328.015 58.0433H327.756C304.536 58.4714 301.042 57.5752 298.345 47.6175C295.648 37.6597 281.236 30.5101 276.816 31.1374C272.397 31.7647 268.117 47.6374 255.855 70.2913C243.593 92.9452 233.073 92.288 241.752 98.7904C250.431 105.293 249.555 117.949 248.341 135.246C247.127 152.542 253.218 183.7 256.582 207.34C259.946 230.98 251.008 230.173 270.198 229.546C289.387 228.918 297.987 250.178 305.81 261.48C313.633 272.782 318.748 265.324 325.805 255.924C326.48 255.041 327.219 254.209 328.015 253.434V58.0433Z" fill="url(#paint52_linear_18_3384)"/>
<path opacity="0.17" d="M328.015 141.868C325.746 138.741 323.636 135.754 321.974 133.254C314.748 122.42 300.077 108.449 292.812 110.093C285.546 111.736 271.343 123.735 269.133 132.677C266.924 141.619 265.968 166.364 267.611 173.683C269.253 181.002 271.91 194.594 281.784 205.209C291.657 215.824 301.978 208.903 306.029 206.464C308.806 204.791 319.655 195.968 328.015 188.809V141.868Z" fill="url(#paint53_linear_18_3384)"/>
<path d="M265.411 134.489C256.453 144.397 245.037 148.689 239.971 144.069C234.905 139.448 238.04 127.708 247.028 117.8C256.015 107.892 267.402 103.59 272.478 108.211C277.554 112.831 274.399 124.581 265.411 134.489Z" fill="url(#paint54_radial_18_3384)"/>
<path d="M328.016 38.4465C323.093 39.9 318.689 42.7335 315.326 46.6119C307.881 54.8171 305.98 65.1931 311.056 69.7936C314.928 73.3087 321.716 72.4523 327.976 68.2501L328.016 38.4465Z" fill="url(#paint55_radial_18_3384)"/>
<path d="M235.232 246.604C225.528 257.288 213.564 262.218 208.488 257.607C203.412 252.997 207.145 240.609 216.829 229.895C226.513 219.18 238.497 214.311 243.563 218.941C248.629 223.571 244.906 235.919 235.232 246.604Z" fill="url(#paint56_radial_18_3384)"/>
<path d="M129.403 230.014C120.972 239.314 110.024 243.089 104.948 238.488C99.872 233.888 102.579 222.605 111.009 213.305C119.44 204.004 130.388 200.21 135.474 204.831C140.56 209.451 137.823 220.733 129.403 230.014Z" fill="url(#paint57_radial_18_3384)"/>
<path d="M206.051 88.2651C215.009 97.008 218.482 108.081 213.705 113.01C208.927 117.939 197.78 114.822 188.763 106.099C179.745 97.3765 176.331 86.2736 181.119 81.3545C185.906 76.4353 197.053 79.5222 206.051 88.2651Z" fill="url(#paint58_radial_18_3384)"/>
<path d="M308.567 231.209C319.515 242.371 325.855 254.002 322.63 257.179C319.406 260.355 307.88 253.873 296.892 242.68C285.904 231.487 279.604 219.877 282.828 216.7C286.053 213.524 297.579 220.056 308.567 231.209Z" fill="url(#paint59_radial_18_3384)"/>
<path opacity="0.59" d="M328.015 269.676C301.54 257.856 271.741 242.79 240.239 225.075C236.447 222.924 232.615 220.763 228.793 218.553C220.035 213.527 211.183 208.31 202.239 202.899C171.882 184.597 143.625 165.996 118.544 148.132C117.419 147.345 116.304 146.568 115.21 145.742C104.61 138.134 94.6168 130.646 85.2908 123.396C32.1716 81.9821 1.40686 47.6677 9.32945 34.633C16.6151 22.5941 55.2029 31.3868 109.218 54.7377C109.816 53.9507 110.482 53.2177 111.208 52.547C52.8042 27.7024 10.484 18.9097 2.02392 32.8506C-7.13285 47.9465 25.6424 85.8358 82.3945 130.536C89.6403 136.232 97.2709 142.041 105.286 147.962C106.282 148.729 107.396 149.496 108.471 150.292C135.066 169.72 165.373 189.924 198.148 209.69C204.01 213.225 209.853 216.661 215.616 220.066C219.467 222.297 223.279 224.508 227.101 226.668C258.682 244.805 291.168 261.317 324.432 276.138L327.995 277.672L328.015 269.676Z" fill="url(#paint60_linear_18_3384)"/>
<path opacity="0.59" d="M328.016 249.392C320.183 246.404 311.713 242.949 302.715 238.936C282.809 230.064 260.226 218.652 236.418 205.239C233.592 203.666 230.752 202.049 227.899 200.39C221.396 196.645 214.817 192.765 208.162 188.749C185.618 175.127 164.647 161.295 146.035 148.032C145.209 147.444 144.363 146.837 143.567 146.249C135.704 140.583 128.289 135.027 121.381 129.66C82.047 98.93 59.2845 73.4979 65.1468 63.8389C68.7697 57.8642 83.3808 58.86 104.421 65.3724C104.581 64.9741 104.74 64.5857 104.919 64.1974C80.6238 56.7091 64.1117 55.325 59.7324 62.5244C52.9544 73.7269 77.19 101.808 119.232 134.967C124.606 139.189 130.269 143.511 136.211 147.912C136.998 148.51 137.784 149.097 138.59 149.665C158.297 164.103 180.801 179.13 205.136 193.827C209.485 196.446 213.835 199.035 218.075 201.535C220.935 203.208 223.785 204.847 226.624 206.454C250.118 219.974 274.292 232.271 299.053 243.298C309.364 247.828 319.048 251.722 327.916 254.938L328.016 249.392Z" fill="url(#paint61_linear_18_3384)"/>
<path opacity="0.49" d="M76.1145 125.457C76.1041 125.543 76.1041 125.63 76.1145 125.716C76.0548 126.264 75.995 126.802 75.9453 127.359C75.9453 127.688 75.8756 128.046 75.8557 128.355C75.8059 128.923 75.7761 129.5 75.7363 130.068C75.7363 130.396 75.7363 130.705 75.6865 131.064C75.6865 131.671 75.6865 132.259 75.6268 132.866C75.6268 133.175 75.6268 133.473 75.6268 133.772C75.6268 134.419 75.6268 135.077 75.6268 135.764C75.6268 136.013 75.6268 136.242 75.6268 136.471C75.6268 137.367 75.6865 138.273 75.7462 139.179C80.0061 165.916 75.8258 203.078 96.9461 231.786C97.6826 233.031 98.449 234.256 99.2353 235.451C99.8723 236.447 100.539 237.442 101.226 238.438C101.345 238.607 101.465 238.787 101.574 238.966C103.127 241.236 104.739 243.447 106.401 245.628C106.67 245.966 106.929 246.335 107.198 246.693C107.715 247.35 108.243 247.998 108.77 248.685L109.985 250.188C110.442 250.746 110.92 251.304 111.388 251.861L112.911 253.634C113.329 254.092 113.737 254.58 114.165 255.038L114.284 255.187C114.852 255.834 115.449 256.472 116.026 257.089L117.021 258.174C117.26 258.403 117.499 258.662 117.728 258.891C118.484 259.668 119.241 260.435 119.997 261.192C120.993 262.187 121.928 263.094 122.914 264C123.172 264.269 123.441 264.498 123.7 264.747L125.979 266.818L126.775 267.505C127.601 268.242 128.437 268.969 129.293 269.676C129.463 269.835 129.642 269.964 129.821 270.124C140.827 279.279 153.071 286.832 166.189 292.559C166.896 293.036 167.593 293.504 168.299 293.963H286.969C293.16 290.746 299.281 287.132 305.491 283.387C310.01 280.542 314.076 277.034 317.555 272.982C319.884 273.977 322.193 275.073 324.462 276.059L328.025 277.592V269.626C326.234 268.829 324.432 268.023 322.621 267.176C324.362 265.185 326.134 263.133 328.025 261.202V38.4665C327.657 38.5661 327.299 38.6557 326.93 38.7752C326.542 38.4167 326.164 38.098 325.776 37.7794L324.9 37.0425C324.143 36.4052 323.387 35.7779 322.621 35.1605L321.446 34.2145L320.779 33.6867L318.022 31.5857L316.32 30.331C315.325 29.5941 314.33 28.8672 313.275 28.1801L313.096 28.0507C313.006 27.9909 312.936 27.9212 312.847 27.8714L311.702 27.1047C310.707 26.4475 309.712 25.7903 308.716 25.1729L308.199 24.8243L306.955 24.0576C305.959 23.4701 305.063 22.9125 304.108 22.3349L303.62 22.0661L303.342 21.8968C302.934 21.6677 302.516 21.4088 302.098 21.1798C301.212 20.6819 300.326 20.184 299.43 19.6961L299.261 19.6065C298.922 19.4173 298.574 19.248 298.266 19.0688C297.957 18.8895 297.519 18.6505 297.141 18.4713C295.807 17.7643 294.444 17.0971 293.09 16.43C292.835 16.3273 292.589 16.2041 292.354 16.0615L292.403 16.1113C291.936 15.8922 291.478 15.6433 291 15.4342C277.066 6.1436 263.928 1.74226 245.614 1.72234H243.026L239.722 1.82193C238.13 1.57298 236.567 1.36386 235.014 1.16471L233.75 0.985477C232.277 0.806238 230.824 0.65688 229.391 0.527429C229.292 0.517643 229.191 0.517643 229.092 0.527429C227.659 0.401297 226.246 0.301701 224.852 0.228678L223.608 0.158997C222.294 0.0992502 220.981 0.069372 219.697 0.029541H219.418C217.527 0.029541 215.676 0.0295471 213.854 0.129125C212.331 0.178913 210.868 0.258565 209.335 0.397973H209.236C206.25 0.656875 203.354 1.01536 200.507 1.49333C197.671 1.96135 194.884 2.56875 192.157 3.27575H192.087C189.37 3.97279 186.702 4.77939 184.065 5.66563C184.065 5.66563 183.975 5.66563 183.925 5.72538C181.318 6.61162 178.75 7.59742 176.192 8.6629L175.933 8.76248C173.425 9.818 170.924 10.9565 168.429 12.178C168.299 12.178 168.18 12.2975 168.05 12.3373C165.602 13.5522 163.144 14.8367 160.685 16.1611C160.506 16.2507 160.327 16.3702 160.138 16.4698C157.739 17.7742 155.321 19.1584 152.882 20.5624C152.633 20.7317 152.374 20.8711 152.116 21.0205C150.921 21.7275 149.727 22.4245 148.513 23.1614C139.555 28.5884 132.279 30.8986 124.854 37.7396C122.814 39.6216 118.514 45.8452 111.587 54.3591C111.06 55.0163 110.522 55.6536 109.975 56.3506C108.621 57.9936 107.287 59.6466 105.993 61.3295C105.993 61.3295 105.993 61.3992 105.924 61.4091C105.267 62.2456 104.62 63.102 103.933 63.9484C80.1853 56.729 64.0415 55.4743 59.7219 62.5742C55.4023 69.6741 63.9519 84.1527 81.9668 102.336L81.8972 102.525C81.7678 102.833 81.6484 103.152 81.5389 103.441C81.3697 103.919 81.2104 104.437 81.0313 104.855C80.8521 105.273 80.7526 105.651 80.6133 106.06C80.4739 106.468 80.3246 106.946 80.1753 107.404C80.026 107.862 79.8867 108.26 79.7573 108.679C79.6279 109.097 79.4985 109.535 79.3691 109.973C79.2397 110.411 79.1004 110.879 78.971 111.307C78.8416 111.736 78.7321 112.154 78.6326 112.582C78.5331 113.01 78.3738 113.498 78.2644 113.956C78.1549 114.414 78.0553 114.773 77.9557 115.201C77.8562 115.629 77.7269 116.197 77.6174 116.645C77.6174 116.834 77.5278 117.033 77.478 117.232C29.186 78.6261 1.83518 47.0202 9.31985 34.6427C16.6054 22.6038 55.1932 31.3965 109.208 54.7474C109.807 53.9604 110.473 53.2274 111.199 52.5567C52.8045 27.7021 10.4843 18.9094 2.02427 32.8503C-6.79409 47.3488 23.2441 82.9976 76.1145 125.457ZM65.1662 63.799C68.7194 57.904 82.8128 58.7504 103.157 64.9342C95.5857 74.8972 89.1869 85.6995 84.0868 97.1276C68.799 81.713 61.5632 69.7836 65.1462 63.8388L65.1662 63.799Z" fill="url(#paint62_linear_18_3384)"/>
<defs>
<linearGradient id="paint0_linear_18_3384" x1="325.376" y1="89.2806" x2="107.634" y2="229.348" gradientUnits="userSpaceOnUse">
<stop stop-color="#B8007A"/>
<stop offset="1" stop-color="#8C006E"/>
</linearGradient>
<linearGradient id="paint1_linear_18_3384" x1="23.7187" y1="110.863" x2="363.407" y2="54.1179" gradientUnits="userSpaceOnUse">
<stop stop-color="#F26117"/>
<stop offset="1" stop-color="#FF9C26"/>
</linearGradient>
<linearGradient id="paint2_linear_18_3384" x1="14.2228" y1="78.6781" x2="361.707" y2="20.5977" gradientUnits="userSpaceOnUse">
<stop stop-color="#F26117"/>
<stop offset="1" stop-color="#FF9C26"/>
</linearGradient>
<linearGradient id="paint3_linear_18_3384" x1="14.8119" y1="57.4727" x2="354.508" y2="0.722683" gradientUnits="userSpaceOnUse">
<stop stop-color="#F26117"/>
<stop offset="1" stop-color="#FF9C26"/>
</linearGradient>
<linearGradient id="paint4_linear_18_3384" x1="46.152" y1="245.166" x2="385.87" y2="188.414" gradientUnits="userSpaceOnUse">
<stop stop-color="#F26117"/>
<stop offset="1" stop-color="#FF9C26"/>
</linearGradient>
<linearGradient id="paint5_linear_18_3384" x1="41.8369" y1="219.416" x2="381.587" y2="162.657" gradientUnits="userSpaceOnUse">
<stop stop-color="#F26117"/>
<stop offset="1" stop-color="#FF9C26"/>
</linearGradient>
<linearGradient id="paint6_linear_18_3384" x1="282.692" y1="67.6229" x2="231.84" y2="55.6624" gradientUnits="userSpaceOnUse">
<stop stop-color="#FFC645"/>
<stop offset="0.98" stop-color="#F58C87"/>
</linearGradient>
<linearGradient id="paint7_linear_18_3384" x1="304.803" y1="57.0056" x2="246.052" y2="55.6797" gradientUnits="userSpaceOnUse">
<stop stop-color="#FFC645"/>
<stop offset="0.98" stop-color="#F58C87"/>
</linearGradient>
<linearGradient id="paint8_linear_18_3384" x1="248.14" y1="74.8648" x2="210.518" y2="71.8556" gradientUnits="userSpaceOnUse">
<stop stop-color="#FFC645"/>
<stop offset="0.98" stop-color="#F58C87"/>
</linearGradient>
<linearGradient id="paint9_linear_18_3384" x1="298.784" y1="53.3474" x2="271.267" y2="50.4012" gradientUnits="userSpaceOnUse">
<stop stop-color="#FFC645"/>
<stop offset="0.98" stop-color="#F58C87"/>
</linearGradient>
<linearGradient id="paint10_linear_18_3384" x1="278.804" y1="87.6951" x2="246.471" y2="85.1092" gradientUnits="userSpaceOnUse">
<stop stop-color="#FFC645"/>
<stop offset="0.98" stop-color="#F58C87"/>
</linearGradient>
<linearGradient id="paint11_linear_18_3384" x1="37.3915" y1="192.756" x2="377.12" y2="135.999" gradientUnits="userSpaceOnUse">
<stop stop-color="#F26117"/>
<stop offset="1" stop-color="#FF9C26"/>
</linearGradient>
<linearGradient id="paint12_linear_18_3384" x1="286.367" y1="155.122" x2="156.05" y2="189.408" gradientUnits="userSpaceOnUse">
<stop stop-color="#FFC645"/>
<stop offset="0.98" stop-color="#F58C87"/>
</linearGradient>
<linearGradient id="paint13_linear_18_3384" x1="215.201" y1="173.049" x2="192.26" y2="179.089" gradientUnits="userSpaceOnUse">
<stop stop-color="#FFC645"/>
<stop offset="0.98" stop-color="#F58C87"/>
</linearGradient>
<linearGradient id="paint14_linear_18_3384" x1="379.798" y1="131.113" x2="262.346" y2="162.02" gradientUnits="userSpaceOnUse">
<stop stop-color="#FFC645"/>
<stop offset="0.98" stop-color="#F58C87"/>
</linearGradient>
<linearGradient id="paint15_linear_18_3384" x1="349.471" y1="162.509" x2="264.35" y2="184.907" gradientUnits="userSpaceOnUse">
<stop stop-color="#FFC645"/>
<stop offset="0.98" stop-color="#F58C87"/>
</linearGradient>
<linearGradient id="paint16_linear_18_3384" x1="303.74" y1="92.8999" x2="346.278" y2="163.354" gradientUnits="userSpaceOnUse">
<stop stop-color="#FFC645"/>
<stop offset="0.98" stop-color="#F58C87"/>
</linearGradient>
<linearGradient id="paint17_linear_18_3384" x1="258.315" y1="71.4418" x2="194.975" y2="57.8004" gradientUnits="userSpaceOnUse">
<stop stop-color="#FFC645"/>
<stop offset="0.98" stop-color="#F58C87"/>
</linearGradient>
<linearGradient id="paint18_linear_18_3384" x1="362.703" y1="194.411" x2="265.171" y2="173.413" gradientUnits="userSpaceOnUse">
<stop stop-color="#FFC645"/>
<stop offset="0.98" stop-color="#F58C87"/>
</linearGradient>
<linearGradient id="paint19_linear_18_3384" x1="216.673" y1="186.011" x2="177.775" y2="177.636" gradientUnits="userSpaceOnUse">
<stop stop-color="#FFC645"/>
<stop offset="0.98" stop-color="#F58C87"/>
</linearGradient>
<linearGradient id="paint20_linear_18_3384" x1="266.135" y1="179.513" x2="218.818" y2="169.325" gradientUnits="userSpaceOnUse">
<stop stop-color="#FFC645"/>
<stop offset="0.98" stop-color="#F58C87"/>
</linearGradient>
<linearGradient id="paint21_linear_18_3384" x1="237.48" y1="203.374" x2="226.363" y2="200.982" gradientUnits="userSpaceOnUse">
<stop stop-color="#FFC645"/>
<stop offset="0.98" stop-color="#F58C87"/>
</linearGradient>
<linearGradient id="paint22_linear_18_3384" x1="345.949" y1="158.831" x2="314.596" y2="152.074" gradientUnits="userSpaceOnUse">
<stop stop-color="#FFC645"/>
<stop offset="0.98" stop-color="#F58C87"/>
</linearGradient>
<linearGradient id="paint23_linear_18_3384" x1="324.142" y1="254.597" x2="283.49" y2="264.883" gradientUnits="userSpaceOnUse">
<stop stop-color="#FFC645"/>
<stop offset="0.98" stop-color="#F58C87"/>
</linearGradient>
<linearGradient id="paint24_linear_18_3384" x1="247.54" y1="283.924" x2="171.064" y2="266.876" gradientUnits="userSpaceOnUse">
<stop stop-color="#FFC645"/>
<stop offset="0.98" stop-color="#F58C87"/>
</linearGradient>
<linearGradient id="paint25_linear_18_3384" x1="228.932" y1="285.064" x2="198.864" y2="287.596" gradientUnits="userSpaceOnUse">
<stop stop-color="#FFC645"/>
<stop offset="0.98" stop-color="#F58C87"/>
</linearGradient>
<linearGradient id="paint26_linear_18_3384" x1="218.826" y1="291.072" x2="209.609" y2="291.844" gradientUnits="userSpaceOnUse">
<stop stop-color="#FFC645"/>
<stop offset="0.98" stop-color="#F58C87"/>
</linearGradient>
<linearGradient id="paint27_linear_18_3384" x1="220.653" y1="272.36" x2="210.545" y2="273.217" gradientUnits="userSpaceOnUse">
<stop stop-color="#FFC645"/>
<stop offset="0.98" stop-color="#F58C87"/>
</linearGradient>
<linearGradient id="paint28_linear_18_3384" x1="225.053" y1="287.789" x2="221.448" y2="288.093" gradientUnits="userSpaceOnUse">
<stop stop-color="#FFC645"/>
<stop offset="0.98" stop-color="#F58C87"/>
</linearGradient>
<linearGradient id="paint29_linear_18_3384" x1="188.169" y1="235.158" x2="151.754" y2="238.23" gradientUnits="userSpaceOnUse">
<stop stop-color="#FFC645"/>
<stop offset="0.98" stop-color="#F58C87"/>
</linearGradient>
<linearGradient id="paint30_linear_18_3384" x1="160.881" y1="137.806" x2="131.013" y2="140.322" gradientUnits="userSpaceOnUse">
<stop stop-color="#FFC645"/>
<stop offset="0.98" stop-color="#F58C87"/>
</linearGradient>
<linearGradient id="paint31_linear_18_3384" x1="140.481" y1="165.022" x2="127.45" y2="166.119" gradientUnits="userSpaceOnUse">
<stop stop-color="#FFC645"/>
<stop offset="0.98" stop-color="#F58C87"/>
</linearGradient>
<linearGradient id="paint32_linear_18_3384" x1="118.463" y1="163.847" x2="108.838" y2="164.656" gradientUnits="userSpaceOnUse">
<stop stop-color="#FFC645"/>
<stop offset="0.98" stop-color="#F58C87"/>
</linearGradient>
<linearGradient id="paint33_linear_18_3384" x1="287.743" y1="279.609" x2="276.254" y2="280.567" gradientUnits="userSpaceOnUse">
<stop stop-color="#FFC645"/>
<stop offset="0.98" stop-color="#F58C87"/>
</linearGradient>
<linearGradient id="paint34_linear_18_3384" x1="185.442" y1="25.5017" x2="157.005" y2="27.886" gradientUnits="userSpaceOnUse">
<stop stop-color="#FFC645"/>
<stop offset="0.98" stop-color="#F58C87"/>
</linearGradient>
<linearGradient id="paint35_linear_18_3384" x1="186.735" y1="80.8738" x2="156.747" y2="83.4037" gradientUnits="userSpaceOnUse">
<stop stop-color="#FFC645"/>
<stop offset="0.98" stop-color="#F58C87"/>
</linearGradient>
<linearGradient id="paint36_linear_18_3384" x1="321.289" y1="16.3239" x2="277.679" y2="19.9942" gradientUnits="userSpaceOnUse">
<stop stop-color="#FFC645"/>
<stop offset="0.98" stop-color="#F58C87"/>
</linearGradient>
<linearGradient id="paint37_linear_18_3384" x1="316.675" y1="75.2614" x2="290.027" y2="77.5081" gradientUnits="userSpaceOnUse">
<stop stop-color="#FFC645"/>
<stop offset="0.98" stop-color="#F58C87"/>
</linearGradient>
<linearGradient id="paint38_linear_18_3384" x1="338.065" y1="122.71" x2="298.913" y2="126.003" gradientUnits="userSpaceOnUse">
<stop stop-color="#FFC645"/>
<stop offset="0.98" stop-color="#F58C87"/>
</linearGradient>
<linearGradient id="paint39_linear_18_3384" x1="264.796" y1="167.715" x2="232.173" y2="170.463" gradientUnits="userSpaceOnUse">
<stop stop-color="#FFC645"/>
<stop offset="0.98" stop-color="#F58C87"/>
</linearGradient>
<linearGradient id="paint40_linear_18_3384" x1="151.328" y1="193.084" x2="136.15" y2="194.362" gradientUnits="userSpaceOnUse">
<stop stop-color="#FFC645"/>
<stop offset="0.98" stop-color="#F58C87"/>
</linearGradient>
<linearGradient id="paint41_linear_18_3384" x1="157.021" y1="184.367" x2="182.881" y2="227.198" gradientUnits="userSpaceOnUse">
<stop stop-color="#FFC645"/>
<stop offset="0.98" stop-color="#F58C87"/>
</linearGradient>
<linearGradient id="paint42_linear_18_3384" x1="319.182" y1="220.048" x2="244.147" y2="239.222" gradientUnits="userSpaceOnUse">
<stop stop-color="#FFC645"/>
<stop offset="0.98" stop-color="#F58C87"/>
</linearGradient>
<linearGradient id="paint43_linear_18_3384" x1="231.292" y1="13.2649" x2="185.418" y2="24.8767" gradientUnits="userSpaceOnUse">
<stop stop-color="#FFC645"/>
<stop offset="0.98" stop-color="#F58C87"/>
</linearGradient>
<linearGradient id="paint44_linear_18_3384" x1="133.822" y1="88.839" x2="104.253" y2="96.3212" gradientUnits="userSpaceOnUse">
<stop stop-color="#FFC645"/>
<stop offset="0.98" stop-color="#F58C87"/>
</linearGradient>
<linearGradient id="paint45_linear_18_3384" x1="114.828" y1="98.2478" x2="90.0084" y2="104.527" gradientUnits="userSpaceOnUse">
<stop stop-color="#FFC645"/>
<stop offset="0.98" stop-color="#F58C87"/>
</linearGradient>
<linearGradient id="paint46_linear_18_3384" x1="111.203" y1="208.624" x2="97.9922" y2="211.967" gradientUnits="userSpaceOnUse">
<stop stop-color="#FFC645"/>
<stop offset="0.98" stop-color="#F58C87"/>
</linearGradient>
<linearGradient id="paint47_linear_18_3384" x1="279.165" y1="173.787" x2="234.708" y2="182.487" gradientUnits="userSpaceOnUse">
<stop stop-color="#FFC645"/>
<stop offset="0.98" stop-color="#F58C87"/>
</linearGradient>
<linearGradient id="paint48_linear_18_3384" x1="283.357" y1="195.133" x2="238.891" y2="203.839" gradientUnits="userSpaceOnUse">
<stop stop-color="#FFC645"/>
<stop offset="0.98" stop-color="#F58C87"/>
</linearGradient>
<linearGradient id="paint49_linear_18_3384" x1="163.105" y1="86.8361" x2="176.67" y2="109.304" gradientUnits="userSpaceOnUse">
<stop stop-color="#FFC645"/>
<stop offset="0.98" stop-color="#F58C87"/>
</linearGradient>
<linearGradient id="paint50_linear_18_3384" x1="303.583" y1="164.988" x2="313.875" y2="182.034" gradientUnits="userSpaceOnUse">
<stop stop-color="#FFC645"/>
<stop offset="0.98" stop-color="#F58C87"/>
</linearGradient>
<linearGradient id="paint51_linear_18_3384" x1="248.88" y1="57.3788" x2="255.421" y2="68.212" gradientUnits="userSpaceOnUse">
<stop stop-color="#FFC645"/>
<stop offset="0.98" stop-color="#F58C87"/>
</linearGradient>
<linearGradient id="paint52_linear_18_3384" x1="416.741" y1="122.939" x2="218.553" y2="165.746" gradientUnits="userSpaceOnUse">
<stop stop-color="#FFC645"/>
<stop offset="0.98" stop-color="#F58C87"/>
</linearGradient>
<linearGradient id="paint53_linear_18_3384" x1="272.891" y1="121.237" x2="319.484" y2="198.408" gradientUnits="userSpaceOnUse">
<stop stop-color="#FFC645"/>
<stop offset="0.98" stop-color="#F58C87"/>
</linearGradient>
<radialGradient id="paint54_radial_18_3384" cx="0" cy="0" r="1" gradientUnits="userSpaceOnUse" gradientTransform="translate(259.808 120.038) rotate(41.7738) scale(12.3913 24.0715)">
<stop stop-color="#FFEC29"/>
<stop offset="0.15" stop-color="#FFD026"/>
<stop offset="0.56" stop-color="#FF8B1E"/>
<stop offset="0.85" stop-color="#FF6019"/>
<stop offset="1" stop-color="#FF4F17"/>
</radialGradient>
<radialGradient id="paint55_radial_18_3384" cx="0" cy="0" r="1" gradientUnits="userSpaceOnUse" gradientTransform="translate(326.821 49.9826) rotate(41.7739) scale(12.395 20.1023)">
<stop stop-color="#FFEC29"/>
<stop offset="0.15" stop-color="#FFD026"/>
<stop offset="0.56" stop-color="#FF8B1E"/>
<stop offset="0.85" stop-color="#FF6019"/>
<stop offset="1" stop-color="#FF4F17"/>
</radialGradient>
<radialGradient id="paint56_radial_18_3384" cx="0" cy="0" r="1" gradientUnits="userSpaceOnUse" gradientTransform="translate(229.588 234.836) rotate(41.7739) scale(12.3988 26.1981)">
<stop stop-color="#FFEC29"/>
<stop offset="0.15" stop-color="#FFD026"/>
<stop offset="0.56" stop-color="#FF8B1E"/>
<stop offset="0.85" stop-color="#FF6019"/>
<stop offset="1" stop-color="#FF4F17"/>
</radialGradient>
<radialGradient id="paint57_radial_18_3384" cx="0" cy="0" r="1" gradientUnits="userSpaceOnUse" gradientTransform="translate(123.98 217.114) rotate(41.7739) scale(12.395 22.68)">
<stop stop-color="#FFEC29"/>
<stop offset="0.15" stop-color="#FFD026"/>
<stop offset="0.56" stop-color="#FF8B1E"/>
<stop offset="0.85" stop-color="#FF6019"/>
<stop offset="1" stop-color="#FF4F17"/>
</radialGradient>
<radialGradient id="paint58_radial_18_3384" cx="0" cy="0" r="1" gradientUnits="userSpaceOnUse" gradientTransform="translate(191.132 98.2413) rotate(-46.0945) scale(12.3779 22.6498)">
<stop stop-color="#FFEC29"/>
<stop offset="0.15" stop-color="#FFD026"/>
<stop offset="0.56" stop-color="#FF8B1E"/>
<stop offset="0.85" stop-color="#FF6019"/>
<stop offset="1" stop-color="#FF4F17"/>
</radialGradient>
<radialGradient id="paint59_radial_18_3384" cx="0" cy="0" r="1" gradientUnits="userSpaceOnUse" gradientTransform="translate(302.898 237.471) rotate(-43.3771) scale(8.17821 28.2576)">
<stop stop-color="#FFEC29"/>
<stop offset="0.15" stop-color="#FFD026"/>
<stop offset="0.56" stop-color="#FF8B1E"/>
<stop offset="0.85" stop-color="#FF6019"/>
<stop offset="1" stop-color="#FF4F17"/>
</radialGradient>
<linearGradient id="paint60_linear_18_3384" x1="204.1" y1="70.5177" x2="139.4" y2="200.844" gradientUnits="userSpaceOnUse">
<stop stop-color="#9E4A03"/>
<stop offset="0.97" stop-color="#FFA154"/>
</linearGradient>
<linearGradient id="paint61_linear_18_3384" x1="220.882" y1="98.2992" x2="173.04" y2="194.681" gradientUnits="userSpaceOnUse">
<stop stop-color="#FABB4D"/>
<stop offset="0.97" stop-color="#FFFF55"/>
</linearGradient>
<linearGradient id="paint62_linear_18_3384" x1="-15.8513" y1="-93.5335" x2="409.945" y2="338.141" gradientUnits="userSpaceOnUse">
<stop stop-color="#5A003B"/>
<stop offset="0.81" stop-color="#160027"/>
</linearGradient>
</defs>
</svg>
