<svg width="32" height="32" viewBox="0 0 32 32" fill="none" xmlns="http://www.w3.org/2000/svg">
<g clip-path="url(#clip0_1312_51)">
<path d="M5.19922 6.55156L15.9992 2.35156L25.8992 6.55156L24.5492 26.5016L15.9992 29.1266L6.99922 26.5016L5.19922 6.55156Z" fill="url(#paint0_diamond_1312_51)"/>
<path d="M28.3774 7.97285C28.4091 7.50117 28.2896 7.03769 28.0435 6.66855C27.6814 6.12305 26.6267 4.71621 24.679 3.43652C22.2216 1.81641 19.2966 0.996094 15.9814 0.996094C12.6661 0.996094 9.74815 1.81641 7.30479 3.43652C5.36768 4.72031 4.32354 6.13125 3.96495 6.67676C3.72237 7.0459 3.60635 7.50527 3.63799 7.96875V7.98516L5.19893 25.7695C5.25167 26.434 5.60323 27.0205 6.12003 27.3035C6.21495 27.3568 6.40831 27.4799 6.63331 27.6193C8.29268 28.6611 12.1739 31.1016 16.0376 31.1016C19.8907 31.1016 23.7333 28.6652 25.3716 27.6275C25.6001 27.484 25.797 27.3568 25.8919 27.3035C26.4087 27.0205 26.7603 26.434 26.813 25.7695L28.3739 8.00566L28.3774 7.97285ZM24.3415 24.9205C24.2853 24.9574 24.2255 24.9943 24.1622 25.0354C22.6927 25.9664 19.2474 28.1525 16.0376 28.1525C12.8138 28.1525 9.32628 25.9623 7.83565 25.023C7.77588 24.9861 7.72315 24.9533 7.67042 24.9205L6.19737 8.16152C6.56651 7.67754 7.32237 6.82441 8.55284 6.0082C10.6095 4.64238 13.1091 3.95332 15.9778 3.95332C18.8501 3.95332 21.3567 4.64648 23.431 6.0123C24.672 6.82852 25.4384 7.68574 25.8146 8.17383L24.3415 24.9205ZM0.551275 15.3557C0.273541 15.3557 0.104791 15.7166 0.255963 15.9873L1.89424 18.9609C1.96807 19.0963 1.96807 19.2686 1.89424 19.4039L0.255963 22.3775C0.104791 22.6523 0.273541 23.0092 0.551275 23.0092H4.24971L3.57823 15.3516H0.551275V15.3557ZM30.1282 19.4039C30.0544 19.2686 30.0544 19.0963 30.1282 18.9609L31.7665 15.9873C31.9177 15.7125 31.7489 15.3557 31.4712 15.3557H28.4337L27.7622 23.0133H31.4712C31.7489 23.0133 31.9177 22.6523 31.7665 22.3816L30.1282 19.4039Z" fill="#B01D87"/>
<path d="M12.3789 10.8203H9.84766L9.14453 20.2047H14.9559L15.659 17.2516H11.9324L12.3789 10.8203ZM19.2273 15.2664L18.1691 10.8203H15.659L17.466 20.2047H19.8531L23.5727 10.8203H20.8691L19.2273 15.2664Z" fill="white"/>
</g>
<defs>
<radialGradient id="paint0_diamond_1312_51" cx="0" cy="0" r="1" gradientUnits="userSpaceOnUse" gradientTransform="translate(15.5492 15.7391) rotate(90) scale(21.2625 16.4382)">
<stop stop-color="#FFABEB"/>
<stop offset="1" stop-color="#D1618F"/>
</radialGradient>
<clipPath id="clip0_1312_51">
<rect width="32" height="32" fill="white"/>
</clipPath>
</defs>
</svg>
