<svg width="32" height="32" viewBox="0 0 32 32" fill="none" xmlns="http://www.w3.org/2000/svg">
<g clip-path="url(#clip0_1312_51)">
<path d="M12.03 7.97197C12.03 7.97197 1.43746 14.2323 5.60348 24.4263C8.68316 31.9595 21.0406 30.7757 21.0406 30.7757C21.4343 30.7349 33.0711 30.1151 31.0777 18.5927C29.7488 10.9147 23.5156 8.00536 22.8441 7.87177C22.1726 7.74189 12.03 7.97197 12.03 7.97197Z" fill="#FF6A48"/>
<path d="M19.1146 31.2224C15.4056 31.2224 7.6888 30.4839 5.27357 24.5724C1.03372 14.1892 11.7458 7.70616 11.8548 7.64307C11.904 7.61338 11.9638 7.59483 12.0201 7.59483C13.0607 7.57256 22.2224 7.36846 22.9044 7.50205C23.7587 7.66905 30.0798 10.764 31.4228 18.5235C32.0029 21.8782 31.5072 24.6614 29.9462 26.7989C27.3376 30.3726 22.5318 31.0257 21.1185 31.1407C20.9919 31.1519 20.2361 31.2224 19.1146 31.2224ZM12.129 8.34444C11.6896 8.61905 9.38333 10.1331 7.52005 12.6269C4.79544 16.2747 4.26107 20.1935 5.92748 24.2755C8.87005 31.4784 20.8865 30.4097 21.006 30.3985C22.4087 30.2835 26.9579 29.6675 29.3872 26.3388C30.8181 24.3794 31.2681 21.7929 30.7267 18.6571C29.454 11.3058 23.5724 8.39268 22.7779 8.24053C22.3103 8.14776 16.1896 8.25166 12.129 8.34444Z" fill="#7F0518"/>
<path d="M10.5078 9.00098C10.5078 9.00098 10.6871 10.927 13.6895 12.3557C16.6918 13.7844 21.5398 13.558 23.6457 10.8639C25.748 8.16973 24.8832 7.83203 24.8832 7.83203L10.5078 9.00098V9.00098Z" fill="#FFC831"/>
<path d="M17.7903 13.5882C16.2751 13.5882 14.7668 13.2765 13.5434 12.6939C10.3899 11.1947 10.1614 9.12026 10.1543 9.03491C10.1438 8.93472 10.1754 8.83452 10.2352 8.75659C10.295 8.67866 10.3864 8.63042 10.4813 8.623L24.8532 7.45405C24.9024 7.45034 24.9551 7.45776 25.0043 7.47632C25.1415 7.52827 25.3137 7.68413 25.3805 7.95503C25.5458 8.60073 25.0676 9.62866 23.918 11.1019C22.5786 12.8164 20.1774 13.5882 17.7903 13.5882V13.5882ZM10.9629 9.33921C11.1809 9.92183 11.8418 11.0648 13.8352 12.0148C16.7497 13.399 21.3797 13.1689 23.3696 10.6269C24.5719 9.08686 24.702 8.43374 24.702 8.22222L10.9629 9.33921V9.33921ZM10.5094 8.9978H10.52H10.5094Z" fill="#7F0518"/>
<path d="M6.3726 21.473C5.31791 14.3852 10.4718 9.15645 10.6933 8.9375L11.6038 9.9543C11.5546 10.0025 6.73822 14.9084 7.68392 21.2578L6.3726 21.473V21.473Z" fill="#FFC831"/>
<path d="M6.36947 21.8448C6.19721 21.8448 6.04604 21.7112 6.01791 21.5294C4.93158 14.2151 10.2226 8.88624 10.4476 8.65988C10.5917 8.51886 10.8132 8.52628 10.9503 8.67472L11.8609 9.69152C11.9945 9.83996 11.9874 10.0775 11.8468 10.2222C11.8011 10.2704 7.12182 15.0761 8.03236 21.1954C8.04643 21.2919 8.02533 21.3958 7.96908 21.4737C7.91283 21.5554 7.82846 21.6073 7.73705 21.6222L6.42572 21.8374C6.40463 21.8411 6.38705 21.8448 6.36947 21.8448V21.8448ZM10.6831 9.46886C9.6601 10.5896 5.96518 15.0984 6.67182 21.0396L7.28354 20.9394C6.64369 15.4435 10.1347 11.0534 11.1085 9.94757L10.6831 9.46886V9.46886Z" fill="#7F0518"/>
<path d="M8.75418 22.7931C8.68387 23.758 7.88582 24.4816 6.97176 24.4074C6.05769 24.3332 5.37215 23.4908 5.44246 22.5296C5.51277 21.5648 6.3073 20.8412 7.22137 20.9154C8.13894 20.9859 8.82449 21.8283 8.75418 22.7931V22.7931Z" fill="white"/>
<path d="M7.0984 24.7897C7.04918 24.7897 6.99644 24.786 6.94371 24.7823C6.40582 24.7378 5.91715 24.478 5.5691 24.0475C5.21754 23.6171 5.04879 23.0678 5.08746 22.5001C5.12965 21.9323 5.37574 21.4165 5.78355 21.0454C6.19136 20.6743 6.71168 20.4962 7.24957 20.537C7.78746 20.5815 8.27613 20.8413 8.62769 21.2717C8.97926 21.7022 9.14801 22.2514 9.10933 22.8192C9.02847 23.9362 8.14254 24.7897 7.0984 24.7897V24.7897ZM7.09488 21.2829C6.78199 21.2829 6.48668 21.3979 6.24762 21.6169C5.98394 21.8544 5.82222 22.1921 5.79761 22.5594C5.76949 22.9268 5.88199 23.2831 6.10699 23.5614C6.33551 23.8397 6.6484 24.0104 6.99644 24.0364C7.71363 24.1032 8.34293 23.5243 8.39566 22.7673C8.42379 22.3999 8.31129 22.0436 8.08629 21.7653C7.85777 21.487 7.54136 21.3163 7.19332 21.2903C7.16168 21.2866 7.13004 21.2829 7.09488 21.2829V21.2829Z" fill="#7F0518"/>
<path d="M2.02344 17.7104C4.05547 10.8637 10.8723 8.58887 11.1605 8.49609L11.5508 9.83574C11.4875 9.85801 5.10664 11.9992 3.28906 18.1297L2.02344 17.7104V17.7104Z" fill="#FFC831"/>
<path d="M3.29175 18.5054C3.25659 18.5054 3.22144 18.498 3.18628 18.4869L1.92066 18.0675C1.73433 18.0044 1.62886 17.7966 1.68863 17.5962C3.78042 10.5418 10.7625 8.22984 11.0578 8.13706C11.2441 8.07769 11.441 8.18902 11.5007 8.3857L11.891 9.72534C11.9472 9.92202 11.8417 10.1335 11.6554 10.1929C11.5921 10.2152 5.38355 12.3267 3.62573 18.2419C3.59761 18.3384 3.53433 18.4164 3.44995 18.4609C3.40425 18.4906 3.348 18.5054 3.29175 18.5054V18.5054ZM2.47613 17.4664L3.06675 17.663C4.80698 12.4306 9.77808 10.1373 11.1175 9.60659L10.9347 8.97945C9.53902 9.49898 4.33589 11.8146 2.47613 17.4664V17.4664Z" fill="#7F0518"/>
<path d="M3.60276 20.0137C3.13518 20.845 2.11565 21.1196 1.32815 20.6297C0.54065 20.1362 0.280494 19.06 0.748072 18.2288C1.21565 17.3975 2.23518 17.1229 3.02268 17.6165C3.81018 18.1026 4.07034 19.1788 3.60276 20.0137Z" fill="white"/>
<path d="M2.17072 21.2443C1.82268 21.2443 1.4676 21.1479 1.14768 20.9475C0.191427 20.3463 -0.124979 19.04 0.441036 18.0307C1.00705 17.0213 2.24455 16.6873 3.20432 17.2848C4.16057 17.8822 4.47697 19.1922 3.91096 20.2016C3.53479 20.8695 2.8633 21.2443 2.17072 21.2443ZM2.18127 17.7412C1.73479 17.7412 1.29885 17.9824 1.05627 18.4166C0.690646 19.0697 0.894552 19.9158 1.5133 20.3055C2.13557 20.6914 2.93713 20.4762 3.30275 19.823C3.66838 19.1699 3.46447 18.3238 2.84572 17.9342C2.63479 17.8006 2.40627 17.7412 2.18127 17.7412V17.7412ZM3.6051 20.0123H3.61565H3.6051Z" fill="#7F0518"/>
<path d="M26.2637 3.94983C29.9375 2.46546 23.9961 9.00042 23.9961 9.00042C16.1914 14.578 10.7281 8.50315 10.7281 8.50315L7.57812 4.13167C7.57812 4.13167 18.4273 7.11897 26.2637 3.94983V3.94983Z" fill="#FF6A48"/>
<path d="M17.4388 11.7022C13.1884 11.7022 10.513 8.80394 10.4744 8.76312L7.29975 4.36195C7.20834 4.23577 7.20131 4.06136 7.28569 3.92777C7.37006 3.79417 7.52475 3.73109 7.67241 3.77191C7.78139 3.80159 18.5005 6.69241 26.14 3.60492C26.7095 3.37484 27.4091 3.17074 27.715 3.65687C28.2669 4.53636 26.14 7.18968 24.2556 9.26409C21.7173 11.0787 19.4076 11.7022 17.4388 11.7022V11.7022ZM8.46342 4.73304L11.0158 8.27327C11.2056 8.48109 16.3525 14.0141 23.8021 8.6889C25.5634 6.74066 27.0505 4.68109 27.1103 4.10589H27.1068C27.0154 4.10589 26.808 4.13558 26.3931 4.30257C19.8189 6.9596 11.3181 5.38988 8.46342 4.73304V4.73304ZM26.2665 3.95003H26.2771H26.2665Z" fill="#7F0518"/>
<path d="M7.45769 3.14723C7.84441 2.18239 10.2385 1.43278 11.8733 1.9486C15.6632 3.14723 15.5331 1.89664 16.2714 1.45504C17.0096 1.00973 18.7675 0.961488 21.2143 2.07477C23.5768 3.14723 25.3171 1.78532 25.7952 1.79645C29.5499 1.88551 27.4124 4.68727 26.5651 5.53336C24.0303 8.0568 21.3514 6.36461 21.3514 6.36461C21.3514 6.36461 20.0401 5.18825 18.4651 6.23102C16.7917 7.33688 15.3151 8.65055 13.4835 6.95094C11.9753 5.54821 11.2018 6.23102 10.0135 5.93043C9.40183 5.77086 6.60339 5.26989 7.45769 3.14723V3.14723Z" fill="#EE3E2B"/>
<path d="M15.27 8.14141C14.6301 8.14141 13.9586 7.88907 13.245 7.22481C12.3239 6.36758 11.7438 6.37872 11.0688 6.38614C10.7172 6.39356 10.3516 6.39727 9.92972 6.28965L9.79613 6.25626C9.15277 6.10411 7.64457 5.75157 7.12074 4.67911C6.87816 4.18184 6.88168 3.61778 7.13129 2.99805C7.61293 1.80313 10.2391 1.03868 11.9758 1.5879C14.7743 2.47481 15.2278 1.97755 15.625 1.54337C15.7586 1.39864 15.8957 1.24649 16.0926 1.12774C16.8731 0.656451 18.7188 0.530279 21.352 1.72891C23.0079 2.48223 24.3227 1.94415 25.1067 1.62501C25.4161 1.49883 25.5848 1.43575 25.8028 1.4209C27.1387 1.4543 27.9508 1.83282 28.211 2.54903C28.6926 3.87383 27.0016 5.61055 26.8082 5.80352C24.1047 8.49024 21.1938 6.70157 21.1657 6.68301C21.0743 6.6088 19.9774 5.66622 18.6485 6.54571L18.1809 6.86114C17.2493 7.492 16.2965 8.14141 15.27 8.14141V8.14141ZM11.2797 5.63282C11.9442 5.63282 12.7036 5.71817 13.7161 6.66075C15.1715 8.01524 16.3317 7.22481 17.7977 6.22657L18.2723 5.90743C19.6961 4.96485 21.0567 5.60684 21.577 6.07442C21.6297 6.1004 24.0133 7.54766 26.3196 5.25801C26.9207 4.66055 27.7856 3.46934 27.5465 2.81622C27.4024 2.42286 26.7801 2.19278 25.7852 2.17051C25.7289 2.17422 25.525 2.25587 25.3633 2.32266C24.5371 2.66036 22.9938 3.29122 21.0707 2.41544C18.5114 1.25391 16.961 1.46915 16.4442 1.77715C16.3352 1.84395 16.2438 1.94415 16.1348 2.0629C15.5055 2.75313 14.7426 3.24297 11.7684 2.30411C10.218 1.81426 8.06293 2.59356 7.78168 3.28751C7.61644 3.69942 7.6059 4.04083 7.75004 4.33399C8.11918 5.09473 9.44808 5.40645 9.9473 5.52149L10.0914 5.55489C10.4289 5.64024 10.7348 5.64024 11.0547 5.63282C11.1321 5.63653 11.2059 5.63282 11.2797 5.63282V5.63282Z" fill="#7F0518"/>
<path d="M17.5246 27.1904C17.3277 27.1904 17.1695 27.0234 17.1695 26.8156V25.0158H14.8C14.6031 25.0158 14.4449 24.8488 14.4449 24.641V23.3607C14.4449 23.1529 14.6031 22.9859 14.8 22.9859H17.1695V22.8412H14.8C14.6031 22.8412 14.4449 22.6742 14.4449 22.4664V21.1861C14.4449 20.9783 14.6031 20.8113 14.8 20.8113H16.3574L13.4254 15.8758C13.3586 15.7607 13.3515 15.616 13.4148 15.4936C13.4781 15.3748 13.5976 15.3006 13.7242 15.3006H16.6879C16.8285 15.3006 16.9551 15.3859 17.0113 15.5195L18.0836 18.0207C18.4246 18.8111 18.6004 19.2305 18.7726 19.635L18.8078 19.7203C18.9414 19.4123 20.5656 15.5195 20.5656 15.5195C20.6219 15.3822 20.7519 15.2969 20.8926 15.2969H23.8035C23.9336 15.2969 24.0531 15.3711 24.1129 15.4898C24.1762 15.6086 24.1726 15.7533 24.1023 15.8721L21.1703 20.8076H22.7277C22.9246 20.8076 23.0828 20.9746 23.0828 21.1824V22.4627C23.0828 22.6705 22.9246 22.8375 22.7277 22.8375H20.3863V22.9822H22.7277C22.9246 22.9822 23.0828 23.1492 23.0828 23.357V24.6373C23.0828 24.8451 22.9246 25.0121 22.7277 25.0121H20.3863V26.8119C20.3863 27.0197 20.2281 27.1867 20.0312 27.1867H17.5246V27.1904Z" fill="white"/>
<path d="M23.8063 15.6754H23.8098ZM23.8063 15.6754L20.5332 21.1861H22.734V22.4664H20.0375V23.3607H22.734V24.641H20.0375V26.8156H17.5274V24.641H14.8027V23.3607H17.5274V22.4664H14.8027V21.1861H17.0035L13.7305 15.6754H16.6942L17.7664 18.1766C18.3008 19.4123 18.4309 19.7389 18.7684 20.5293H18.8527C19.2043 19.7389 19.359 19.3529 19.8547 18.1766L20.8988 15.6754H23.8063M23.8098 14.9258H20.8988C20.6176 14.9258 20.361 15.1002 20.2485 15.3748L19.2043 17.876L18.9195 18.5588C18.8844 18.6441 18.8492 18.7258 18.8176 18.8037C18.7121 18.5514 18.582 18.2545 18.4133 17.8648L17.341 15.3674C17.225 15.1002 16.9719 14.9258 16.6942 14.9258H13.7305C13.4703 14.9258 13.2348 15.0742 13.1082 15.3117C12.9817 15.5492 12.9922 15.8424 13.1293 16.0725L15.7203 20.4365H14.8027C14.409 20.4365 14.0926 20.7705 14.0926 21.1861V22.4664C14.0926 22.6334 14.1453 22.7893 14.2332 22.9117C14.1453 23.0379 14.0926 23.19 14.0926 23.357V24.6373C14.0926 25.0529 14.409 25.3869 14.8027 25.3869H16.8172V26.8119C16.8172 27.2275 17.1336 27.5615 17.5274 27.5615H20.0375C20.4313 27.5615 20.7477 27.2275 20.7477 26.8119V25.3869H22.7305C23.1242 25.3869 23.4406 25.0529 23.4406 24.6373V23.357C23.4406 23.19 23.3879 23.0342 23.3 22.9117C23.3879 22.7855 23.4406 22.6334 23.4406 22.4664V21.1861C23.4406 20.7705 23.1242 20.4365 22.7305 20.4365H21.8129L24.3828 16.1133C24.4672 15.9908 24.5164 15.8387 24.5164 15.6754C24.5199 15.2635 24.2035 14.9258 23.8098 14.9258V14.9258ZM23.8063 16.425H23.8098H23.8063Z" fill="#7F0518"/>
</g>
<defs>
<clipPath id="clip0_1312_51">
<rect width="32" height="32" fill="white"/>
</clipPath>
</defs>
</svg>
