<svg width="32" height="32" viewBox="0 0 32 32" fill="none" xmlns="http://www.w3.org/2000/svg">
<g clip-path="url(#clip0_1312_51)">
<path d="M4.21484 4H25.1077L25.6434 16L28.8577 17V19.5L25.6434 22V28H4.21484V4Z" fill="white"/>
<path d="M26.6021 16.6884L25.6234 15.7759L17.5084 23.3497C17.4314 23.7716 17.3145 24.4084 17.207 24.9891C17.6463 24.9203 18.1141 24.8463 18.5058 24.7819L18.6243 24.1347L26.6021 16.6884ZM19.1711 8.99219C19.029 8.99219 18.8928 9.04487 18.7923 9.13864C18.6918 9.23241 18.6354 9.35958 18.6354 9.49219V12.4897C18.6354 12.6225 18.6919 12.75 18.7926 12.8439C18.8932 12.9379 19.0298 12.9906 19.1721 12.9906C19.3144 12.9906 19.451 12.9379 19.5516 12.8439C19.6523 12.75 19.7088 12.6225 19.7088 12.4897V9.49313C19.7089 9.42723 19.6951 9.36196 19.6681 9.30106C19.6411 9.24017 19.6015 9.18486 19.5516 9.1383C19.5016 9.09175 19.4422 9.05488 19.377 9.0298C19.3117 9.00473 19.2417 8.99194 19.1711 8.99219V8.99219Z" fill="#80DE1E"/>
<path d="M12.7545 8.99219C12.6124 8.99219 12.4761 9.04487 12.3757 9.13864C12.2752 9.23241 12.2187 9.35958 12.2188 9.49219V12.4897C12.2188 12.6225 12.2753 12.75 12.376 12.8439C12.4766 12.9379 12.6131 12.9906 12.7555 12.9906C12.8978 12.9906 13.0343 12.9379 13.135 12.8439C13.2356 12.75 13.2922 12.6225 13.2922 12.4897V9.49313C13.2923 9.42723 13.2785 9.36196 13.2515 9.30106C13.2245 9.24017 13.1849 9.18486 13.1349 9.1383C13.085 9.09175 13.0256 9.05488 12.9603 9.0298C12.895 9.00473 12.8251 8.99194 12.7545 8.99219V8.99219Z" fill="#80DE1E"/>
<path d="M30.4177 17.7219C30.3445 17.286 30.123 16.8837 29.7859 16.5744L28.1708 15.0675C27.8961 14.8087 27.5538 14.6213 27.1777 14.5238V5.1675C27.1767 4.32781 26.8189 3.52277 26.1828 2.92896C25.5467 2.33516 24.6843 2.00108 23.7846 2H4.95625C4.05647 2.00091 3.19382 2.33492 2.55758 2.92874C1.92134 3.52257 1.56347 4.32771 1.5625 5.1675V26.8325C1.56347 27.6723 1.92134 28.4774 2.55758 29.0713C3.19382 29.6651 4.05647 29.9991 4.95625 30H23.7846C24.6844 29.9991 25.547 29.6651 26.1833 29.0713C26.8195 28.4774 27.1774 27.6723 27.1783 26.8325V21.68L29.9554 19.0884C30.329 18.7394 30.4974 18.2413 30.4177 17.7219V17.7219ZM16.4915 9.49219C16.4915 9.16388 16.5608 8.83879 16.6954 8.53548C16.83 8.23216 17.0273 7.95657 17.2761 7.72442C17.5248 7.49227 17.8201 7.30813 18.145 7.18249C18.47 7.05685 18.8183 6.99219 19.1701 6.99219C19.8805 6.99219 20.5618 7.25558 21.0641 7.72442C21.5665 8.19326 21.8487 8.82915 21.8487 9.49219V12.4897C21.8487 12.818 21.7794 13.1431 21.6448 13.4464C21.5102 13.7497 21.3129 14.0253 21.0641 14.2575C20.8154 14.4896 20.5201 14.6737 20.1951 14.7994C19.8702 14.925 19.5218 14.9897 19.1701 14.9897C18.8183 14.9897 18.47 14.925 18.145 14.7994C17.8201 14.6737 17.5248 14.4896 17.2761 14.2575C17.0273 14.0253 16.83 13.7497 16.6954 13.4464C16.5608 13.1431 16.4915 12.818 16.4915 12.4897V9.49219ZM6.86406 7.98C6.86415 7.71779 6.97579 7.46635 7.17444 7.28094C7.3731 7.09553 7.6425 6.99133 7.92344 6.99125C8.20443 6.99125 8.47392 7.09541 8.67265 7.28083C8.87137 7.46625 8.98306 7.71774 8.98315 7.98V14.0019C8.98315 14.1317 8.95573 14.2603 8.90247 14.3803C8.84922 14.5003 8.77115 14.6093 8.67274 14.7011C8.57434 14.793 8.45751 14.8658 8.32895 14.9155C8.20038 14.9651 8.06258 14.9907 7.92344 14.9906C7.64247 14.9906 7.37302 14.8865 7.17435 14.701C6.97567 14.5156 6.86406 14.2641 6.86406 14.0019V7.98ZM10.0593 23.9944H6.56239C6.27826 23.9943 6.00578 23.889 5.80489 23.7014C5.60399 23.5139 5.49114 23.2596 5.49114 22.9944C5.49114 22.7292 5.60399 22.4749 5.80489 22.2873C6.00578 22.0998 6.27826 21.9944 6.56239 21.9944H10.0593C10.2 21.9944 10.3393 22.0202 10.4693 22.0704C10.5993 22.1207 10.7175 22.1943 10.817 22.2872C10.9165 22.3801 10.9954 22.4903 11.0493 22.6117C11.1031 22.733 11.1309 22.863 11.1309 22.9944C11.1309 23.1257 11.1031 23.2558 11.0493 23.3771C10.9954 23.4984 10.9165 23.6087 10.817 23.7015C10.7175 23.7944 10.5993 23.8681 10.4693 23.9183C10.3393 23.9685 10.2 23.9944 10.0593 23.9944V23.9944ZM14.345 19.9887H6.56239C6.27826 19.9887 6.00578 19.8833 5.80489 19.6958C5.60399 19.5083 5.49114 19.2539 5.49114 18.9887C5.49114 18.7236 5.60399 18.4692 5.80489 18.2817C6.00578 18.0942 6.27826 17.9888 6.56239 17.9888H14.346C14.6301 17.9888 14.9026 18.0942 15.1035 18.2817C15.3044 18.4692 15.4172 18.7236 15.4172 18.9887C15.4172 19.2539 15.3044 19.5083 15.1035 19.6958C14.9026 19.8833 14.6301 19.9887 14.346 19.9887H14.345ZM15.4328 12.4887C15.4328 13.152 15.1505 13.7882 14.648 14.2572C14.1455 14.7262 13.4639 14.9897 12.7532 14.9897C12.0426 14.9897 11.361 14.7262 10.8585 14.2572C10.356 13.7882 10.0737 13.152 10.0737 12.4887V9.49219C10.0737 8.8289 10.356 8.19277 10.8585 7.72376C11.361 7.25474 12.0426 6.99125 12.7532 6.99125C13.4639 6.99125 14.1455 7.25474 14.648 7.72376C15.1505 8.19277 15.4328 8.8289 15.4328 9.49219V12.4887ZM20.0634 25.4922C19.6244 25.5675 18.9458 25.6756 18.3243 25.7734L18.3833 25.4519L18.389 25.4206C18.3913 25.4069 18.394 25.3931 18.3967 25.3794L18.4107 25.3022L18.4204 25.2497C18.4968 24.8341 18.5708 24.4303 18.625 24.1334L26.6021 16.6875L26.7401 16.5587L28.1868 17.9094L20.0634 25.4922Z" fill="#80DE1E"/>
</g>
<defs>
<clipPath id="clip0_1312_51">
<rect width="30" height="28" fill="white" transform="translate(1 2)"/>
</clipPath>
</defs>
</svg>
