<svg width="120" height="120" viewBox="0 0 120 120" fill="none" xmlns="http://www.w3.org/2000/svg">
<g clip-path="url(#clip0_180_3555)">
<g clip-path="url(#clip1_180_3555)">
<path d="M77.7859 61.5153L81.3839 71.4013L50.1185 79.6663L48.5235 75.2831L77.7859 61.5153V61.5153ZM82.9866 48.8993L37.001 70.5333L44.3457 90.7103L93.4785 77.7231L82.9866 48.8993V48.8993Z" fill="#2582FD"/>
<path d="M73.8145 50.6069L82.4616 47.4597L94.0016 79.1656L85.3546 82.3128L73.8145 50.6069Z" fill="#2582FD"/>
<path d="M47.7331 73.1576L50.8803 81.8047L36.4684 87.0502L33.3213 78.403L47.7331 73.1576Z" fill="#2582FD"/>
<path d="M33.647 72.5714L40.4662 91.3067L31.819 94.454L25 75.7186L33.647 72.5714Z" fill="#2582FD"/>
<path d="M67.0932 107.541H57.8911V77.6112L67.0717 75.188L67.0932 107.541V107.541Z" fill="#2582FD"/>
<path d="M67.0717 75.188L59.5337 77.1772L57.8911 77.6127V87.1307L67.0778 84.7014L67.0717 75.188V75.188Z" fill="#1866D6"/>
<path d="M51.7563 98.3388H73.2278V107.541H51.7563V98.3388Z" fill="#2582FD"/>
<path d="M57.8911 98.3388V107.541H67.0932L67.087 98.3388H57.8911Z" fill="#1866D6"/>
</g>
<path d="M27.52 49V19.8H37C39.0267 19.8 40.7867 20.1867 42.28 20.96C43.8 21.7333 44.9733 22.8267 45.8 24.24C46.6533 25.6267 47.08 27.2667 47.08 29.16V39.6C47.08 41.4667 46.6533 43.1067 45.8 44.52C44.9733 45.9333 43.8 47.04 42.28 47.84C40.7867 48.6133 39.0267 49 37 49H27.52ZM33.52 43.4H37C38.2267 43.4 39.2133 43.0533 39.96 42.36C40.7067 41.6667 41.08 40.7467 41.08 39.6V29.16C41.08 28.04 40.7067 27.1333 39.96 26.44C39.2133 25.7467 38.2267 25.4 37 25.4H33.52V43.4Z" fill="white"/>
<path d="M72.6 39V9.8H78.6V21.12H81.44L86.24 9.8H92.76L86.76 23.76L93 39H86.4L81.44 26.64H78.6V39H72.6Z" fill="white"/>
</g>
<defs>
<clipPath id="clip0_180_3555">
<rect width="120" height="120" fill="white"/>
</clipPath>
<clipPath id="clip1_180_3555">
<rect width="69" height="69" fill="white" transform="translate(25 43)"/>
</clipPath>
</defs>
</svg>
