<svg width="760" height="520" viewBox="0 0 760 520" fill="none" xmlns="http://www.w3.org/2000/svg">
<g style="mix-blend-mode:screen" opacity="0.94">
<path d="M395.917 28.6045C257.921 10.631 131.807 103.993 114.133 237.196C96.4594 370.399 194.015 493.018 331.911 510.991C469.807 528.965 596.121 435.603 613.794 302.4C631.468 169.197 533.913 46.6777 395.917 28.6045Z" fill="url(#paint0_radial_693_233)"/>
</g>
<path opacity="0.3" d="M543.501 161.109C531.918 151.823 529.322 133.15 516.042 121.168C502.761 109.186 496.071 99.9993 487.584 97.3033C479.096 94.6072 483.09 88.1169 467.613 82.9245C457.135 77.7065 445.738 74.5859 434.063 73.7381C424.31 73.1773 414.658 71.468 405.305 68.6456C388.83 65.4504 394.022 64.352 380.841 67.9467C367.661 71.5414 364.066 66.9482 347.79 68.5458C331.514 70.1435 316.537 66.8483 297.864 73.838C281.088 78.5116 265.988 87.8624 254.329 100.798C241.148 115.776 231.462 107.688 222.875 119.071C217.683 125.861 208.796 134.448 202.006 141.738C194.771 145.231 188.446 150.358 183.533 156.715C173.548 169.596 174.547 175.088 175.845 189.567C177.143 204.045 168.256 215.828 162.764 232.503C157.272 249.179 149.384 270.847 152.779 287.123C156.174 303.399 168.655 327.063 169.953 345.037C171.074 363.794 175.964 382.133 184.332 398.957C191.621 411.039 204.303 423.421 210.493 432.208C215.118 440.327 221.668 447.185 229.565 452.179C240.05 459.068 251.932 463.162 261.318 470.651C270.704 478.14 276.795 485.03 287.38 486.228C298.298 486.277 309.071 488.732 318.933 493.418C328.918 499.409 324.924 504.701 344.495 498.71C364.066 492.719 373.852 497.811 399.514 493.717C425.176 489.623 430.868 479.139 462.621 466.557C494.374 453.976 502.561 450.381 524.629 428.314C546.696 406.246 551.289 386.975 565.668 371.398C573.3 363.242 579.115 353.561 582.729 342.993C586.344 332.424 587.676 321.21 586.637 310.089C584.94 284.726 589.233 279.035 586.637 258.265C584.428 240.378 579.687 222.895 572.558 206.342C566.834 189.059 556.84 173.5 543.501 161.109V161.109Z" fill="url(#paint1_linear_693_233)"/>
<path opacity="0.4" d="M186.827 175.088C190.422 169.688 192.744 163.542 193.617 157.114C193.617 149.725 191.62 157.114 197.811 150.125C201.599 145.204 203.382 139.032 202.803 132.85C206.52 134.172 210.486 134.643 214.409 134.228C218.332 133.814 222.112 132.524 225.47 130.454C235.455 123.364 223.373 121.167 226.968 119.869C230.562 118.571 234.756 120.968 238.351 119.869C241.946 118.771 245.54 106.489 252.63 103.893C259.719 101.297 259.919 101.796 266.409 99.3995C272.9 97.0031 272.8 93.009 276.395 91.7109C279.989 90.4129 276.395 86.3189 282.585 86.7183C288.776 87.1177 288.277 91.3115 298.961 87.3174C306.045 83.9245 312.576 79.4809 318.333 74.1369C320.629 73.2382 316.835 79.4291 332.012 76.5334C347.19 73.6377 358.174 65.4498 367.061 69.5437C375.947 73.6377 370.456 74.3366 379.043 76.5334C387.63 78.7301 395.219 69.2442 402.508 72.6392C407.05 74.7367 411.257 77.496 414.99 80.827L426.173 82.0253V77.4321C429.459 79.6504 432.303 82.4608 434.561 85.7198C438.754 91.6111 442.05 93.1089 452.634 92.5097C463.218 91.9106 478.995 89.5142 488.481 96.8034C497.967 104.093 487.383 111.981 497.368 113.678C507.353 115.376 506.255 115.775 507.353 117.473C508.451 119.17 514.243 122.665 515.241 120.668C516.24 118.671 520.933 124.263 524.528 125.96C528.122 127.658 516.24 121.667 518.836 128.756C519.767 132.042 521.364 135.101 523.529 137.743C526.724 142.636 524.528 144.133 527.923 149.625C531.318 155.117 536.81 151.722 541.403 164.104C545.996 176.486 547.594 184.074 551.388 185.372C555.182 186.671 554.284 184.274 554.284 184.274C554.284 184.274 556.381 187.17 560.774 193.66C564.023 198.534 566.389 203.942 567.764 209.637C571.458 219.622 573.655 227.61 575.852 233.501C577.872 240.4 578.716 247.59 578.348 254.77C578.348 264.755 580.046 281.031 582.442 282.229C584.185 282.854 586.091 282.854 587.834 282.229C587.834 282.229 580.445 293.013 578.548 297.107C576.513 304.193 576.272 311.673 577.849 318.875C579.646 323.568 579.347 338.845 573.955 341.142C568.563 343.439 570.36 351.127 570.959 353.025C571.558 354.922 570.959 359.815 567.864 360.913C564.768 362.011 563.171 369.101 560.674 374.393C558.178 379.685 550.689 384.378 548.492 385.976C546.295 387.573 543.699 402.851 535.511 409.94C527.324 417.03 520.034 419.027 516.34 427.115C512.645 435.203 513.045 436.401 506.954 439.996C502.74 442.775 498.941 446.136 495.67 449.981C495.67 449.981 501.262 437.799 496.569 439.996C490.624 442.291 485.676 446.603 482.59 452.178C479.594 458.668 462.619 464.959 463.318 467.355C464.017 469.752 452.734 460.466 445.345 465.958C436.282 471.377 425.948 474.305 415.389 474.445C412.493 473.147 407.7 472.947 395.419 477.54C383.137 482.134 392.223 486.627 379.642 486.327C372.455 485.273 365.125 485.818 358.174 487.925C354.314 489.76 349.932 490.184 345.792 489.123C338.532 489.658 331.235 489.423 324.024 488.424C319.631 486.427 317.034 487.626 309.745 484.33C302.456 481.035 299.76 486.028 301.158 490.222C302.556 494.415 297.064 486.327 295.067 481.035C293.07 475.743 292.271 469.952 281.587 471.849C270.903 473.746 273.099 465.758 265.611 459.567C258.122 453.376 250.233 459.567 244.542 457.27C238.85 454.974 253.928 462.563 235.355 445.188C216.783 427.814 218.78 425.817 213.388 437.5C207.996 449.182 212.689 427.514 208.195 425.318C203.702 423.121 196.413 422.222 196.213 413.136C196.38 409.421 195.744 405.714 194.348 402.268C192.952 398.822 190.83 395.717 188.125 393.165C184.93 391.667 188.125 383.779 177.641 375.491C167.156 367.204 172.848 351.726 168.454 339.844C166.445 333.767 163.442 328.064 159.567 322.969C161.433 322.355 163.043 321.14 164.145 319.514C165.247 317.888 165.779 315.943 165.658 313.982C165.658 306.693 158.269 303.298 158.369 294.012C159.182 294.066 159.999 293.959 160.77 293.697C161.542 293.435 162.255 293.023 162.867 292.485C163.48 291.947 163.98 291.293 164.339 290.561C164.698 289.829 164.909 289.034 164.959 288.22C165.958 281.73 155.473 276.937 154.974 269.149C154.475 261.36 151.28 253.671 154.974 255.569C158.669 257.466 163.462 260.461 162.363 257.566C161.265 254.67 168.055 241.989 161.864 241.589C155.673 241.19 151.28 238.694 161.265 233.002C164.709 230.645 167.249 227.185 168.465 223.192C169.681 219.199 169.501 214.912 167.955 211.034C165.958 210.136 175.943 211.034 177.441 207.54C179.1 202.282 180.369 196.908 181.235 191.463C180.447 190.037 179.966 188.462 179.823 186.838C179.68 185.215 179.878 183.579 180.404 182.037C180.931 180.495 181.774 179.08 182.881 177.883C183.987 176.686 185.331 175.734 186.827 175.088V175.088Z" fill="#EF81D6"/>
<path d="M204.2 163.406C204.2 163.406 179.337 185.373 177.939 201.25C176.541 217.126 171.549 232.004 170.25 241.191C168.952 250.377 160.265 255.47 164.759 274.541C169.252 293.613 165.657 305.595 168.353 331.657C171.049 357.718 188.324 371.598 196.811 394.464C207.063 418.826 225.306 438.97 248.535 451.58C268.505 460.666 280.188 463.063 297.662 477.342C315.136 491.62 364.563 484.93 391.523 478.64C418.552 472.176 445.217 464.276 471.405 454.975C492.873 446.986 492.274 428.214 517.038 408.843C529.525 400.164 540.207 389.143 548.491 376.391C548.491 376.391 237.251 167.1 204.2 163.406Z" fill="url(#paint2_linear_693_233)"/>
<path d="M572.158 243.487C577.594 248.772 581.346 255.547 582.942 262.959C584.451 267.84 584.919 272.984 584.317 278.057C583.715 283.131 582.056 288.022 579.447 292.415C575.971 296.671 572.129 300.614 567.964 304.198C574.644 296.044 579.022 286.254 580.645 275.839C580.677 264.501 577.752 253.35 572.158 243.487V243.487Z" fill="#FF94BB"/>
<path d="M520.037 156.417C530.408 163.832 538.723 173.762 544.201 185.274C550.192 201.351 562.874 212.534 566.768 223.318C574.422 240.873 578.137 259.891 577.652 279.036C576.753 306.195 565.27 321.473 565.47 338.947C566.456 346.082 565.887 353.346 563.802 360.24C561.716 367.135 558.163 373.496 553.388 378.888C540.606 396.961 499.467 414.635 478.299 420.027C457.13 425.419 520.736 171.794 520.037 156.417Z" fill="#FF94BB"/>
<path d="M445.445 99.7985C455.489 98.9312 465.607 99.7069 475.401 102.095C483.489 105.79 489.48 118.072 500.464 123.064C506.238 125.192 511.485 128.542 515.845 132.885C520.205 137.228 523.576 142.461 525.727 148.227C530.919 162.206 539.806 169.595 537.409 180.28C535.013 190.964 462.82 107.787 445.445 99.7985Z" fill="#F9A4D9"/>
<path d="M335.808 79.9277C342.628 75.7423 350.596 73.8201 358.574 74.4358C367.6 76.3173 376.821 77.0886 386.034 76.7324C393.955 77.3771 401.582 80.0226 408.201 84.421C412.195 86.3182 418.186 83.2228 421.481 84.421C424.777 85.6192 428.571 94.4062 428.571 94.4062C428.571 94.4062 434.562 105.09 423.179 104.391C411.796 103.692 334.31 80.6266 334.31 80.6266L335.808 79.9277Z" fill="#FFCAE2"/>
<path d="M215.687 138.942C215.687 138.942 195.317 152.622 196.216 172.592C197.115 192.563 176.845 201.849 171.253 235.898C166.805 258.02 166.534 280.778 170.454 302.999C173.15 327.563 167.858 340.444 177.643 367.005C187.351 394.048 206.741 416.532 232.063 430.111C255.834 443 278.481 457.864 299.763 474.545C320.832 489.623 355.78 484.531 385.336 476.742C414.893 468.954 441.354 452.179 473.406 442.193C490.931 435.525 506.509 424.575 518.718 410.343C530.926 396.111 539.378 379.05 543.303 360.714C549.294 325.266 568.965 323.769 570.363 275.74C571.761 227.711 553.588 228.01 540.407 187.17C527.227 146.331 519.538 124.763 463.421 104.992C407.304 85.2212 379.245 62.9542 306.952 85.0215C255.628 100.798 256.527 118.372 215.687 138.942Z" fill="url(#paint3_linear_693_233)"/>
<g opacity="0.09">
<path opacity="0.09" d="M348.289 419.327C348.289 402.352 358.874 407.045 368.26 397.36C377.646 387.674 373.153 392.567 374.95 382.781C376.747 372.996 378.145 374.993 387.332 365.607C391.459 360.849 396.193 356.653 401.411 353.125C409.798 346.435 406.204 347.433 410.397 338.347C414.591 329.26 414.891 333.354 416.688 329.36C418.486 325.366 421.681 326.365 436.659 319.375C456.548 311.494 473.839 298.214 486.585 281.032C502.861 258.066 521.333 233.802 546.496 233.402C551.533 233.332 556.55 232.764 561.474 231.705C552.609 217.828 545.277 203.03 539.606 187.57C536.45 177.185 532.717 166.984 528.423 157.015C528.113 165.637 526.908 174.204 524.828 182.577C520.834 207.64 517.24 200.151 510.649 214.33C504.059 228.509 504.159 238.095 478.597 251.575C453.034 265.055 454.832 268.85 434.162 289.719C413.493 310.588 408.201 327.962 378.445 344.837C348.689 361.712 353.082 374.793 339.103 378.587C325.124 382.382 329.118 383.58 312.742 387.175C302.91 390.408 292.91 393.108 282.786 395.263C266.211 397.859 267.01 393.366 250.634 381.883C234.258 370.4 237.353 372.297 231.163 364.209C224.972 356.121 229.365 348.033 245.641 323.269C261.917 298.506 278.093 308.291 290.275 297.108C298.756 288.953 309.009 282.869 320.231 279.334C334.318 273.147 348.082 266.248 361.47 258.665C387.232 244.885 371.455 252.074 385.934 235.1C400.412 218.125 393.423 222.618 402.509 203.047C411.596 183.476 434.062 171.693 442.45 152.422C445.917 144.05 447.44 135 446.904 125.955C446.367 116.909 443.786 108.103 439.355 100.199C438.229 98.2924 436.852 96.5459 435.261 95.0067C427.372 91.8115 419.883 88.9157 412.494 86.2197C413.97 90.1848 415.95 93.9435 418.386 97.4032C424.269 106.437 426.779 117.256 425.475 127.958C424.277 141.039 419.085 139.042 413.493 151.024C407.901 163.006 407.701 159.911 401.71 172.991C395.719 186.072 398.515 195.458 382.339 205.443C366.163 215.429 366.263 211.734 361.769 221.52C355.685 233.456 345.191 242.553 332.513 246.882C317.635 252.374 317.135 254.371 300.66 260.362C284.184 266.353 279.092 266.353 267.01 260.362C254.927 254.371 256.126 265.055 242.845 265.155C229.565 265.255 232.86 262.359 222.875 257.866C216.093 255.514 209.822 251.888 204.402 247.182C198.111 241.69 192.719 244.885 182.534 235.399C177.98 228.916 175.891 221.019 176.643 213.132C173.861 220.453 172.049 228.107 171.251 235.898C166.803 258.02 166.532 280.778 170.452 302.999C173.148 327.563 167.856 340.444 177.642 367.005C187.35 394.048 206.739 416.533 232.061 430.111C255.833 443 278.479 457.864 299.761 474.546C320.83 489.623 355.778 484.531 385.335 476.742C414.891 468.954 441.352 452.179 473.404 442.193C490.93 435.525 506.507 424.575 518.716 410.343C530.925 396.112 539.376 379.05 543.301 360.714C549.292 325.266 568.963 323.769 570.361 275.74C570.889 264.518 569.574 253.285 566.467 242.489C565.336 242.41 564.203 242.616 563.172 243.088C564.551 252.578 562.305 262.239 556.881 270.148C547.994 281.93 550.391 278.635 549.492 284.327C548.593 290.018 550.89 294.312 549.492 307.293C548.094 320.274 543.301 314.982 532.916 326.065C522.532 337.149 526.526 346.036 517.639 369.701C508.752 393.366 501.762 385.477 483.19 392.267C464.617 399.057 467.813 409.442 453.234 421.524C438.656 433.606 425.675 430.511 404.107 427.615C382.539 424.719 375.15 445.588 353.482 443.991C331.814 442.393 347.99 436.402 348.289 419.327Z" fill="#4F0C39"/>
<path opacity="0.09" d="M518.036 139.042L519.534 140.939L518.036 139.042Z" fill="#4F0C39"/>
</g>
<g opacity="0.18">
<path opacity="0.18" d="M368.658 370.599C485.585 259.863 531.617 216.926 554.783 219.223C548.578 209.197 543.584 198.471 539.905 187.27C536.51 177.285 533.514 167.299 529.92 159.411C537.808 193.561 523.928 225.314 464.716 276.039C408.2 324.567 327.219 414.035 256.424 423.021C240.458 425.402 224.15 422.602 209.893 415.033C216.494 421.083 223.925 426.16 231.96 430.111C235.155 431.575 238.251 433.173 241.246 434.904C273.698 436.601 315.437 421.024 368.658 370.599Z" fill="#B20A69"/>
<path opacity="0.18" d="M525.125 268.751C525.125 268.751 502.259 294.713 498.764 312.386C498.764 313.884 498.065 315.382 497.666 316.88C495.954 321.617 493.638 326.115 490.776 330.26C482.074 342.676 472.497 354.455 462.119 365.508C444.644 385.478 422.777 388.574 393.62 410.042C364.463 431.51 345.99 455.874 323.723 455.475C301.456 455.075 268.006 452.18 268.006 452.18C268.006 452.18 307.947 476.544 343.694 455.974C379.441 435.404 381.638 416.932 397.015 411.34C419.111 403.822 439.948 393.017 458.823 379.287C481.19 362.313 494.071 326.366 504.156 316.48C515.518 302.873 522.788 286.323 525.125 268.751V268.751Z" fill="#B20A69"/>
<path opacity="0.18" d="M551.286 277.836C551.286 277.836 549.888 299.504 547.492 314.682C542.533 336.302 535.614 357.425 526.822 377.789C521.33 389.871 505.653 397.759 490.676 414.834C475.698 431.909 468.808 436.702 438.153 447.985C415.652 455.398 392.362 460.156 368.756 462.164C382.518 466.158 397.132 466.158 410.894 462.164C430.864 454.875 461.619 440.895 475.798 435.603C489.977 430.311 495.768 423.122 510.446 407.844C525.125 392.567 535.809 388.473 539.304 374.793C540.873 364.257 543.654 353.937 547.591 344.039C553.483 331.257 550.787 318.177 555.58 307.692C560.373 297.208 551.286 277.836 551.286 277.836Z" fill="#B20A69"/>
<path opacity="0.18" d="M183.531 360.514C183.531 360.514 191.22 385.977 214.685 385.577C238.15 385.178 243.043 379.286 274.596 375.592C302.684 373.122 329.919 364.679 354.478 350.828C368.502 341.912 380.84 330.588 390.924 317.378C390.924 317.378 348.687 339.945 346.19 348.033C343.694 356.121 333.21 358.018 324.423 360.814C315.636 363.61 285.081 367.703 277.292 370.799C269.504 373.894 253.627 370.799 239.448 377.09C225.269 383.38 192.418 384.379 183.531 360.514Z" fill="#B20A69"/>
<path opacity="0.18" d="M201.205 278.435C256.024 278.435 366.86 280.532 420.081 182.178C441.449 142.237 443.946 115.177 439.353 96.3046C429.367 92.4103 420.281 88.7158 411.294 85.5205C416.767 89.7125 421.155 95.155 424.091 101.392C427.027 107.629 428.425 114.479 428.169 121.368C430.865 164.004 387.729 224.715 325.321 256.568C304.68 266.657 282.453 273.109 259.618 275.639C215.783 280.932 174.544 272.544 168.952 250.177C168.952 251.275 168.952 252.274 168.952 253.273C170.137 260.774 174.127 267.545 180.115 272.216C186.102 276.888 193.641 279.111 201.205 278.435V278.435Z" fill="#B20A69"/>
<path opacity="0.18" d="M435.561 99.1021C435.173 111.974 436.076 124.853 438.257 137.545C441.452 150.027 447.044 160.312 435.161 180.681C423.279 201.051 407.003 208.141 395.22 222.819C383.438 237.497 377.946 264.857 362.269 276.54C345.745 286.778 328.294 295.437 310.146 302.401C333.967 298.061 356.121 287.209 374.152 271.048C401.611 244.886 400.013 227.812 425.975 202.25C451.937 176.687 447.743 152.323 444.547 134.35C442.347 122.412 439.345 110.636 435.561 99.1021Z" fill="#B20A69"/>
</g>
<g style="mix-blend-mode:screen" opacity="0.31">
<path d="M313.937 95.9056C313.937 95.9056 282.883 95.9056 265.01 134.748C247.136 173.591 237.55 158.014 225.069 176.886C212.587 195.758 211.589 199.353 218.578 206.842C221.876 210.108 225.966 212.461 230.448 213.669C234.929 214.877 239.648 214.898 244.141 213.731C250.831 211.235 271.8 188.169 288.475 191.864C305.15 195.558 285.479 210.436 311.541 195.359C337.602 180.281 331.012 185.972 344.392 177.785C357.773 169.597 363.764 165.103 364.962 153.72C366.102 147.128 366.537 140.434 366.26 133.75C366.26 121.668 360.069 112.481 367.358 115.876C374.648 119.271 385.032 120.769 379.241 133.25C373.449 145.732 375.446 155.418 371.153 164.604C366.859 173.79 371.852 173.691 367.858 182.278C363.864 190.865 365.361 193.062 348.986 199.053C332.61 205.044 320.428 207.441 317.332 214.031C314.237 220.621 323.723 210.636 308.545 222.818C301.356 230.482 291.562 235.182 281.086 235.998C267.905 238.694 255.324 240.092 252.428 241.191C249.533 242.289 239.048 247.781 248.933 252.274C258.819 256.768 254.326 257.966 272.798 257.666C291.271 257.367 299.259 246.783 306.049 244.286C312.839 241.79 319.13 247.082 329.514 239.993C339.899 232.903 344.792 239.993 353.878 220.022C362.965 200.052 361.367 201.949 374.747 193.761C388.128 185.573 387.928 191.065 396.415 172.592C404.903 154.12 405.103 151.923 409.396 142.637C413.69 133.35 411.693 134.149 412.292 124.064C412.891 113.979 411.393 115.676 405.302 108.088C399.211 100.499 405.302 95.4063 393.02 89.6149C380.739 83.8235 386.43 74.6371 376.645 83.7236C366.859 92.8102 370.953 92.7104 360.968 96.0055C350.983 99.3006 350.184 93.4093 344.991 91.0129C339.799 88.6164 337.203 88.0173 313.937 95.9056Z" fill="#F9A4D9"/>
</g>
<g style="mix-blend-mode:screen" opacity="0.31">
<path d="M328.02 97.4033C310.281 100.553 293.915 109.014 281.089 121.667C267.31 138.143 264.314 135.048 252.931 150.625C251.234 153.021 249.237 155.917 247.04 159.412C230.364 185.273 208.397 190.266 215.686 198.454C222.975 206.642 240.849 160.61 261.518 148.528C282.188 136.446 303.057 112.681 308.749 119.171C314.44 125.662 289.677 139.841 284.484 151.024C279.292 162.207 263.815 180.98 281.089 174.19C298.364 167.4 299.962 148.628 318.634 134.249C337.306 119.87 362.17 92.0113 328.02 97.4033Z" fill="#F9A4D9"/>
</g>
<g style="mix-blend-mode:screen" opacity="0.31">
<path d="M357.977 99.6001C355.016 102.849 352.844 106.738 351.631 110.964C350.419 115.19 350.199 119.639 350.988 123.964C352.486 140.939 366.065 146.73 348.591 164.704C331.117 182.677 316.738 189.767 310.248 198.154C303.758 206.542 292.874 203.447 294.072 206.542C295.27 209.637 306.853 207.541 332.815 187.37C358.776 167.2 366.665 172.692 366.565 156.216C365.752 142.668 366.053 129.076 367.463 115.577C369.061 100.299 363.869 94.308 357.977 99.6001Z" fill="#F9A4D9"/>
</g>
<g style="mix-blend-mode:screen" opacity="0.31">
<path d="M454.333 117.272C450.198 119.302 446.921 122.739 445.091 126.966C443.262 131.193 442.998 135.934 444.348 140.338C449.939 155.416 438.456 157.213 432.365 170.294C426.274 183.374 424.377 181.777 417.587 196.455C410.797 211.133 400.912 222.516 394.222 238.293C387.532 254.07 397.816 261.359 378.645 272.143C359.473 282.927 325.423 294.909 316.337 314.78C307.25 334.651 271.204 354.721 295.767 351.626C320.331 348.53 341.899 334.551 368.859 314.88C395.819 295.209 388.83 299.003 430.268 266.452C471.707 233.9 490.18 240.59 493.874 207.539C497.569 174.487 505.757 184.672 507.354 164.802C508.952 144.931 497.369 114.776 454.333 117.272Z" fill="#F9A4D9"/>
</g>
<path d="M178.837 286.225C183.602 292.095 189.736 296.704 196.701 299.647C203.666 302.59 211.247 303.775 218.778 303.1C242.842 299.006 240.246 285.326 262.713 286.824C285.179 288.321 299.758 277.937 313.737 272.844L347.188 260.562C325.967 273.955 303.96 286.059 281.285 296.809C262.912 303.599 252.128 304.098 241.344 308.092C230.56 312.086 222.472 318.077 212.886 313.784C203.3 309.49 183.53 304.298 178.837 286.225Z" fill="#FFBEDA"/>
<path d="M196.511 393.265C196.511 393.265 223.171 412.236 243.541 405.147C263.911 398.057 257.72 393.764 269.503 389.37C281.285 384.977 294.566 381.382 304.251 377.787C313.771 373.677 323.04 369.009 332.01 363.808C324.138 372.994 314.358 380.354 303.353 385.376C288.375 390.968 275.095 394.662 273.397 399.056C271.7 403.449 257.421 409.041 247.735 412.236C238.049 415.432 205.597 408.143 196.511 393.265Z" fill="#FFBEDA"/>
<g style="mix-blend-mode:screen" opacity="0.31">
<path d="M467.113 117.473C467.113 117.473 451.436 139.041 455.829 150.824C460.223 162.606 452.734 169.097 446.643 182.277C440.552 195.458 430.267 210.336 428.17 214.729C426.073 219.123 448.74 201.05 456.828 183.376C464.916 165.702 464.916 154.219 474.302 139.74C483.688 125.262 482.59 111.782 467.113 117.473Z" fill="#F9A4D9"/>
</g>
<path opacity="0.47" d="M321.829 93.3092C321.829 93.3092 314.141 85.2211 293.471 105.591C272.802 125.961 266.711 120.169 251.633 131.752C238.711 143.526 227.785 157.318 219.281 172.592C217.983 175.488 210.194 192.562 212.092 195.758C213.989 198.953 220.579 175.188 244.244 152.322C256.706 140.142 271.032 130.03 286.681 122.366C300.062 113.38 295.169 109.186 309.348 103.894C323.527 98.6013 338.904 97.9024 321.829 93.3092Z" fill="white"/>
<path opacity="0.47" d="M289.577 127.858C289.577 127.858 278.094 159.511 284.484 151.024C290.875 142.537 291.673 131.054 298.663 128.957C305.653 126.86 310.146 123.565 315.139 121.767C320.131 119.97 311.644 118.472 321.629 114.877C331.614 111.283 337.506 121.368 330.117 124.164C322.728 126.96 322.827 121.667 316.237 136.046C309.647 150.425 292.472 155.018 280.889 169.397C269.307 183.776 264.114 200.451 245.242 207.441C231 211.988 216.157 214.378 201.207 214.53C214.931 219.604 230.075 219.247 243.545 213.532C268.508 204.345 275.497 192.662 288.978 174.19C302.458 155.717 311.344 152.322 323.926 137.544C331.889 128.239 338.603 117.934 343.896 106.889C343.896 106.889 353.282 96.4048 331.415 104.493C315.878 109.01 301.572 117 289.577 127.858V127.858Z" fill="white"/>
<path opacity="0.47" d="M374.55 92.7095C372.458 102.417 372.458 112.459 374.55 122.166C378.045 136.145 382.838 144.633 374.55 150.224C366.262 155.816 371.455 173.889 367.86 181.678C364.265 189.466 352.982 197.754 329.317 211.634C305.652 225.513 298.263 234.4 287.279 238.394C279.784 240.972 271.937 242.387 264.014 242.588C264.014 242.588 268.806 255.469 308.548 231.704C348.289 207.939 355.279 196.356 370.157 190.864C385.035 185.372 372.653 183.675 379.243 169.396C385.833 155.117 383.437 154.917 390.626 139.44C397.816 123.963 378.145 142.636 374.55 92.7095Z" fill="white"/>
<path opacity="0.47" d="M387.43 97.304C387.43 97.304 388.529 121.668 392.223 113.58C395.918 105.492 390.925 89.1161 387.43 97.304Z" fill="white"/>
<path opacity="0.47" d="M351.884 130.554C351.884 130.554 344.695 134.548 349.488 147.429C351.914 156.624 350.66 166.403 345.993 174.689C350.799 168.515 353.877 161.174 354.912 153.419C355.948 145.664 354.903 137.773 351.884 130.554Z" fill="white"/>
<path opacity="0.47" d="M480.794 141.836C475.137 153.129 471.231 165.216 469.211 177.683C468.112 192.761 468.312 208.538 456.829 217.624C454.394 219.458 451.86 221.158 449.24 222.717C441.452 227.51 435.461 230.006 432.365 236.796C428.292 248.528 421.909 259.325 413.593 268.549C400.366 278.775 386.454 288.083 371.955 296.408C387.377 292.217 401.514 284.256 413.094 273.242C434.262 254.17 438.157 231.304 453.035 225.712C467.913 220.121 470.109 224.514 467.314 230.605C464.518 236.696 468.612 229.607 477.299 209.836C485.986 190.065 500.964 167.199 493.774 172.192C486.585 177.184 480.794 196.056 472.406 199.052C464.018 202.047 475.002 154.018 480.794 141.836Z" fill="white"/>
<g style="mix-blend-mode:screen" opacity="0.31">
<path d="M180.039 345.535C184.371 350.724 190.032 354.636 196.418 356.853C202.803 359.069 209.671 359.506 216.286 358.117C237.954 352.425 240.849 369.4 258.823 357.118C276.796 344.837 311.045 316.179 295.568 322.37C278.572 329.345 261.205 335.378 243.545 340.443C220.979 346.534 209.695 340.443 200.709 340.443C191.722 340.443 157.872 343.638 180.039 345.535Z" fill="#F9A4D9"/>
</g>
<g style="mix-blend-mode:screen" opacity="0.31">
<path d="M269.407 443.492C282.907 442.172 295.991 438.094 307.85 431.51C321.031 422.223 318.435 417.431 331.016 412.238C343.597 407.046 367.762 398.658 360.073 408.344C350.302 419.072 338.663 427.937 325.724 434.505C309.947 443.792 303.856 441.495 289.577 446.787C275.298 452.079 251.134 446.787 269.407 443.492Z" fill="#F9A4D9"/>
</g>
<path d="M277.695 438.898C277.695 438.898 307.651 446.287 326.024 434.904C344.397 423.52 337.707 422.222 352.784 416.631C367.862 411.039 372.755 415.432 390.029 399.955L411.697 379.985C404.691 391.982 394.764 402.012 382.84 409.142C371.626 415.991 359.709 421.615 347.292 425.917C335.855 431.294 324.722 437.294 313.942 443.89C301.659 446.784 288.739 445.004 277.695 438.898Z" fill="url(#paint4_linear_693_233)"/>
<g style="mix-blend-mode:screen" opacity="0.31">
<path d="M537.409 202.547C537.409 202.547 541.802 228.609 533.914 237.496C526.026 246.383 502.86 269.448 494.772 287.422C486.684 305.395 464.816 306.394 441.85 333.354C418.884 360.314 416.488 371.797 424.077 363.31C431.665 354.822 435.56 344.537 450.438 345.636C465.316 346.734 470.408 339.445 482.59 321.871C494.772 304.297 505.256 294.711 511.547 286.124C517.838 277.536 509.55 282.829 525.127 268.45C540.704 254.071 569.661 231.105 537.409 202.547Z" fill="#F9A4D9"/>
</g>
<path d="M330.118 226.113C333.193 225.124 336.196 223.923 339.105 222.518C342 221.12 344.896 219.623 347.592 218.025C350.346 216.391 352.952 214.52 355.38 212.433C356.679 211.335 357.777 210.237 358.875 209.138L362.37 205.743C364.767 203.546 367.163 201.45 369.659 199.452L377.248 193.362L380.843 190.266L384.437 186.971C386.648 184.679 388.621 182.17 390.329 179.482C393.778 174.053 396.371 168.126 398.017 161.908C398.816 158.813 399.316 155.617 399.915 151.923L401.412 142.437C402.011 139.242 402.71 136.046 403.509 132.452L404.807 127.858C405.225 126.313 405.559 124.747 405.806 123.165C406.406 119.869 406.74 116.53 406.804 113.18C406.904 111.551 406.904 109.917 406.804 108.287C406.854 107.489 406.854 106.689 406.804 105.891C406.907 105.129 406.907 104.356 406.804 103.594C406.907 104.356 406.907 105.129 406.804 105.891C406.852 106.689 406.852 107.489 406.804 108.287C406.804 109.985 406.804 111.582 406.804 113.18C406.72 116.524 406.42 119.86 405.906 123.165C405.906 124.763 405.307 126.361 404.907 127.858C404.508 129.356 404.009 131.054 403.609 132.551C402.81 135.647 402.111 138.842 401.612 142.037C400.514 148.328 399.815 154.719 398.217 161.009C396.866 167.602 394.401 173.917 390.928 179.682C389.177 182.423 387.135 184.968 384.837 187.271C383.747 188.445 382.579 189.546 381.342 190.566L377.548 193.661C375.151 195.758 372.555 197.755 370.059 199.752C367.562 201.749 365.066 203.846 362.77 206.043L359.275 209.338C358.076 210.436 356.978 211.634 355.68 212.633C353.242 214.753 350.599 216.626 347.792 218.225C345.024 219.867 342.156 221.335 339.204 222.618C336.242 223.95 333.209 225.116 330.118 226.113V226.113Z" fill="url(#paint5_linear_693_233)"/>
<path d="M450.837 109.884C450.237 111.666 449.836 113.507 449.639 115.376C448.781 120.944 449.912 126.636 452.834 131.452L454.431 133.749C455.031 134.448 455.53 135.247 456.129 136.046C457.174 137.593 458.141 139.193 459.025 140.838C460.786 144.003 462.192 147.351 463.219 150.824C464.299 154.447 464.638 158.25 464.217 162.007C463.967 163.871 463.357 165.669 462.42 167.299C461.964 168.138 461.354 168.883 460.622 169.496C459.898 170.085 459.13 170.619 458.326 171.094C456.725 172.082 455.22 173.218 453.832 174.489C452.467 175.721 451.198 177.056 450.038 178.483C447.704 181.411 445.601 184.515 443.747 187.769C441.85 190.964 440.053 194.26 438.355 197.754C436.656 200.961 435.22 204.3 434.062 207.74C432.863 211.234 432.164 214.929 431.166 218.524C431.166 220.321 430.167 222.118 429.568 223.916C428.969 225.713 428.57 227.51 427.971 229.308C427.674 230.217 427.272 231.088 426.772 231.904C426.331 232.754 425.758 233.529 425.075 234.2C423.638 235.414 422.063 236.453 420.382 237.296L410.896 242.488C407.432 243.984 404.093 245.754 400.911 247.78C399.338 248.802 397.867 249.973 396.517 251.275C395.214 252.579 394.012 253.981 392.922 255.469C388.629 261.56 386.432 268.849 382.338 275.439C380.377 278.617 378.066 281.564 375.448 284.226C374.05 285.624 372.652 286.823 371.254 288.021C369.82 289.208 368.453 290.475 367.161 291.815L365.263 293.912C364.612 294.618 363.833 295.194 362.967 295.61C361.339 296.549 359.635 297.35 357.874 298.006L352.682 300.003C350.914 300.66 349.115 301.226 347.29 301.701C343.665 302.655 339.95 303.224 336.206 303.398H324.923C321.182 303.499 317.449 303.799 313.74 304.297L308.248 305.195C306.45 305.195 304.653 306.094 302.756 306.394C295.467 307.991 287.978 308.89 280.589 310.088L275.097 311.087C273.261 311.481 271.459 312.015 269.705 312.684C267.948 313.234 266.365 314.232 265.111 315.58C264.79 315.903 264.52 316.273 264.313 316.678L263.713 317.977C263.203 318.782 262.636 319.549 262.016 320.273C260.66 321.592 259.021 322.582 257.223 323.169C255.447 323.751 253.599 324.087 251.731 324.167C248.008 324.417 244.271 324.417 240.548 324.167C244.27 324.466 248.009 324.466 251.731 324.167C253.598 324.077 255.444 323.742 257.223 323.169C258.98 322.557 260.581 321.568 261.916 320.273C262.537 319.573 263.074 318.802 263.514 317.977C263.783 317.6 264.017 317.198 264.213 316.778C264.385 316.346 264.621 315.943 264.912 315.58C266.235 314.198 267.882 313.168 269.705 312.585C271.449 311.888 273.254 311.354 275.097 310.987L280.589 309.889C287.978 308.69 295.367 307.792 302.756 306.194L308.148 304.996C309.995 304.599 311.861 304.299 313.74 304.097C317.434 303.598 321.228 303.298 324.923 303.099C328.618 302.899 332.412 303.099 336.106 303.099C339.852 302.94 343.569 302.371 347.19 301.401C348.999 300.987 350.77 300.419 352.482 299.704L357.675 297.707C359.443 297.069 361.149 296.267 362.767 295.31C363.598 294.929 364.345 294.385 364.964 293.712L366.761 291.616C368.086 290.273 369.486 289.006 370.955 287.821L375.049 284.027C377.699 281.393 380.013 278.441 381.939 275.24C383.837 272.018 385.537 268.683 387.031 265.255C388.56 261.769 390.398 258.427 392.523 255.269C393.59 253.705 394.83 252.264 396.218 250.976C397.547 249.65 399.02 248.478 400.611 247.481C403.794 245.426 407.133 243.624 410.596 242.089C413.991 240.491 417.386 238.993 420.582 237.296C422.276 236.476 423.854 235.435 425.275 234.2C426.524 232.887 427.478 231.321 428.07 229.607C428.67 227.81 429.169 226.013 429.668 224.215C430.167 222.418 430.766 220.621 431.266 218.823C432.164 215.229 432.963 211.534 434.161 207.939C435.35 204.496 436.819 201.156 438.555 197.954C440.252 194.559 442.05 191.364 443.947 187.969C445.8 184.715 447.903 181.61 450.238 178.683C451.457 177.245 452.758 175.879 454.132 174.589C455.563 173.402 457.064 172.302 458.625 171.293C459.429 170.819 460.197 170.285 460.922 169.696C461.624 169.093 462.23 168.385 462.719 167.599C463.639 165.968 464.216 164.168 464.417 162.307C464.818 158.622 464.513 154.894 463.518 151.323C462.508 147.844 461.101 144.494 459.324 141.338C458.478 139.671 457.51 138.069 456.429 136.545C455.954 135.741 455.42 134.973 454.831 134.248L453.233 131.952C451.188 128.785 450.016 125.133 449.838 121.367C449.687 119.506 449.687 117.636 449.838 115.776C449.997 113.786 450.331 111.815 450.837 109.884V109.884Z" fill="url(#paint6_linear_693_233)"/>
<path d="M495.769 130.654C495.956 139.301 497.645 147.849 500.762 155.917C502.367 159.912 504.446 163.7 506.952 167.2C509.402 170.771 511.477 174.586 513.143 178.583C514.753 182.637 515.73 186.914 516.039 191.265C516.355 195.601 515.916 199.96 514.741 204.146C514.124 206.229 513.356 208.265 512.444 210.237C511.446 212.134 510.447 214.031 509.349 215.928C507.04 219.552 504.326 222.902 501.261 225.913C498.116 228.89 494.78 231.658 491.276 234.201C489.578 235.499 487.781 236.698 485.983 237.896C484.186 239.094 482.389 240.292 480.492 241.391C478.588 242.458 476.581 243.328 474.5 243.987C473.464 244.358 472.394 244.625 471.305 244.786H468.11C465.974 244.922 463.91 245.61 462.119 246.783C460.233 247.83 458.46 249.068 456.826 250.477C450.177 255.958 444.328 262.344 439.452 269.449C437.076 273.084 434.909 276.851 432.962 280.732C431.267 284.757 429.299 288.66 427.07 292.415C426.372 293.314 425.772 294.212 425.073 295.011L422.877 297.508L418.583 302.3C415.787 305.629 413.091 308.957 410.495 312.286L402.707 322.271C400.11 325.666 397.714 329.261 395.417 332.955C394.319 334.752 393.221 336.65 392.022 338.447C390.856 340.295 389.483 342.004 387.928 343.54C386.321 345.012 384.62 346.38 382.836 347.633L377.344 351.028C373.634 353.267 369.681 355.076 365.561 356.42C361.371 357.507 357.238 358.807 353.18 360.315C349.24 362.093 345.548 364.375 342.196 367.105C338.702 369.769 335.368 372.637 332.211 375.692C329.149 378.687 326.153 381.783 323.224 384.978C321.826 386.576 320.328 388.273 318.831 389.771C317.343 391.378 315.627 392.757 313.738 393.865C311.888 394.956 309.951 395.891 307.947 396.661L301.856 399.057C297.762 400.455 293.768 401.953 289.674 403.251C285.58 404.549 281.386 405.947 277.192 407.145C275.195 407.645 273.098 408.244 270.901 408.643C269.859 408.948 268.788 409.148 267.706 409.242H266.109C265.58 409.34 265.039 409.34 264.511 409.242C265.039 409.34 265.58 409.34 266.109 409.242H267.706L270.901 408.643L277.192 407.046C281.386 405.847 285.48 404.549 289.574 403.151L301.756 398.858L307.847 396.461C309.863 395.678 311.802 394.708 313.638 393.565C315.475 392.465 317.154 391.122 318.631 389.571C320.129 388.074 321.527 386.376 323.024 384.779C325.92 381.583 328.916 378.488 332.011 375.392C335.106 372.297 338.302 369.501 341.996 366.805C345.37 364.056 349.098 361.772 353.08 360.015C357.074 358.318 361.268 357.319 365.362 356.021C369.485 354.73 373.44 352.954 377.144 350.729C379.041 349.63 380.839 348.432 382.636 347.234C384.428 346.07 386.1 344.732 387.629 343.24C390.548 340.053 393.032 336.494 395.018 332.656C397.314 328.961 399.811 325.366 402.407 321.971C405.003 318.576 407.499 314.982 410.096 311.986C412.692 308.991 415.388 305.096 418.184 302.001C419.582 300.303 421.079 298.706 422.477 297.108L424.574 294.712C425.325 293.915 425.994 293.046 426.571 292.116C428.973 288.515 431.109 284.744 432.962 280.832C434.854 276.953 437.023 273.216 439.452 269.649C444.304 262.435 450.192 255.975 456.926 250.477C458.609 249.133 460.377 247.899 462.219 246.783L465.214 245.385L468.409 244.686H471.704C472.763 244.596 473.805 244.361 474.8 243.987C476.857 243.352 478.834 242.481 480.691 241.391C482.579 240.354 484.412 239.221 486.183 237.996C487.98 236.797 489.778 235.599 491.475 234.301C495.025 231.817 498.365 229.045 501.46 226.013C504.582 223.053 507.301 219.696 509.549 216.028C510.647 214.231 511.645 212.334 512.644 210.336C513.572 208.406 514.34 206.402 514.941 204.345C516.116 200.193 516.556 195.868 516.239 191.564C515.929 187.246 514.952 183.002 513.343 178.983C511.791 174.951 509.745 171.128 507.252 167.6C504.66 163.96 502.483 160.041 500.762 155.917C499.184 151.901 497.948 147.759 497.067 143.535C496.242 139.29 495.807 134.979 495.769 130.654V130.654Z" fill="url(#paint7_linear_693_233)"/>
<path d="M512.945 194.658C510.948 198.453 509.051 202.447 507.254 206.341C505.456 210.235 503.859 214.429 502.361 218.523C501.662 220.52 500.963 222.617 500.364 224.714C500.039 225.763 499.773 226.83 499.565 227.909C499.358 228.966 499.058 230.001 498.666 231.004C497.972 233.109 496.962 235.095 495.671 236.896C494.392 238.654 492.918 240.262 491.277 241.689C487.829 244.383 484.075 246.662 480.094 248.479L474.203 251.275L468.211 254.07C464.217 255.768 460.123 257.266 456.029 258.763C451.969 260.334 448.002 262.134 444.147 264.155C440.31 266.153 436.723 268.6 433.463 271.445C431.76 272.76 430.364 274.43 429.369 276.337C428.394 278.245 427.752 280.305 427.472 282.428C426.773 286.722 427.472 291.116 426.273 295.509C425.912 297.659 425.239 299.744 424.276 301.7C423.279 303.671 422.001 305.487 420.482 307.092C419.021 308.706 417.379 310.146 415.589 311.386C413.792 312.684 411.895 313.782 410.097 314.98C406.307 317.175 402.408 319.174 398.415 320.971C394.421 322.769 390.327 324.267 386.432 326.064C384.428 326.967 382.521 328.071 380.741 329.359C378.996 330.621 377.448 332.136 376.148 333.852C377.418 332.081 378.969 330.529 380.741 329.259C382.524 328.029 384.393 326.928 386.333 325.964C390.327 324.067 394.421 322.569 398.315 320.672C402.324 318.975 406.196 316.972 409.898 314.681C411.788 313.576 413.621 312.376 415.39 311.086C417.157 309.856 418.796 308.451 420.282 306.892C423.204 303.677 425.144 299.692 425.874 295.409C426.573 291.116 425.874 286.722 426.972 282.428C427.514 278.008 429.686 273.948 433.063 271.045C436.416 268.2 440.065 265.722 443.947 263.656C447.8 261.589 451.806 259.819 455.93 258.364C459.924 256.766 464.018 255.368 468.012 253.671L474.003 250.875L479.894 248.179C483.786 246.37 487.442 244.089 490.778 241.389C492.444 240.027 493.922 238.448 495.172 236.696C496.442 234.919 497.45 232.968 498.167 230.905C498.866 228.908 499.266 226.711 499.964 224.614C500.525 222.518 501.191 220.451 501.962 218.423C503.459 214.329 505.157 210.335 506.954 206.341C508.751 202.347 510.749 198.453 512.945 194.658Z" fill="url(#paint8_linear_693_233)"/>
<path d="M553.487 274.84C552.799 275.203 552.133 275.603 551.49 276.039L549.493 277.436L545.698 280.432C543.235 282.429 540.839 284.526 538.509 286.723C533.792 291.069 529.573 295.925 525.927 301.201C524.112 303.849 522.542 306.657 521.234 309.589C520.647 311.056 520.146 312.556 519.737 314.082L518.239 318.676C517.213 321.719 515.978 324.688 514.544 327.562C513.157 330.473 511.449 333.219 509.452 335.75C507.412 338.223 505.21 340.558 502.861 342.74C500.465 344.937 498.069 347.034 495.572 349.031C490.58 353.025 485.587 357.218 480.994 361.512C476.401 365.806 471.807 370.499 467.614 375.292C463.398 380.129 459.684 385.381 456.53 390.969C455.731 392.367 455.132 393.764 454.433 395.262L452.137 399.556C450.511 402.34 448.604 404.95 446.445 407.344C442.101 412.064 437.128 416.163 431.667 419.526C426.175 423.021 420.583 426.017 414.892 429.512C409.148 432.464 403.611 435.8 398.316 439.497C395.72 441.361 393.224 443.358 390.827 445.488C388.442 447.591 386.175 449.824 384.037 452.178L380.742 455.773C379.69 456.992 378.481 458.066 377.147 458.968C374.427 460.693 371.592 462.228 368.66 463.561C362.826 466.221 356.822 468.489 350.687 470.351C347.591 471.25 344.496 472.149 341.4 472.748C338.12 473.444 334.764 473.712 331.415 473.546C334.657 473.494 337.879 473.024 341.001 472.149C344.196 471.549 347.292 470.651 350.387 469.752C356.611 467.642 362.683 465.106 368.56 462.163C371.47 460.851 374.275 459.316 376.948 457.57C378.281 456.668 379.49 455.594 380.542 454.375L383.738 450.78C385.934 448.484 388.131 446.187 390.528 443.99C392.924 441.793 395.52 439.896 398.116 437.999C403.403 434.289 408.941 430.953 414.692 428.014C420.423 424.982 425.989 421.649 431.367 418.029C436.832 414.709 441.806 410.642 446.145 405.946C448.264 403.543 450.137 400.934 451.737 398.158C452.536 396.76 453.235 395.362 453.934 393.964L456.031 389.571C459.22 383.981 462.967 378.729 467.214 373.894C471.512 369.428 476.045 365.195 480.794 361.213C485.587 356.819 490.779 352.725 495.472 348.731C500.571 344.863 505.226 340.442 509.352 335.551C511.327 333.039 513.033 330.329 514.444 327.463C515.863 324.581 517.097 321.613 518.139 318.576L519.637 313.982C520.03 312.452 520.531 310.95 521.134 309.489C522.415 306.524 524.023 303.71 525.927 301.101C529.608 295.823 533.861 290.967 538.609 286.623C540.905 284.426 543.402 282.329 545.898 280.332L549.692 277.436L551.689 276.039C552.268 275.609 552.868 275.209 553.487 274.84V274.84Z" fill="url(#paint9_linear_693_233)"/>
<path d="M185.829 217.026C187.035 218.991 188.477 220.802 190.122 222.418C191.759 224.04 193.567 225.48 195.514 226.712C199.437 229.141 203.892 230.581 208.495 230.906C210.785 231.155 213.095 231.155 215.385 230.906C217.684 230.632 219.955 230.164 222.175 229.508C226.568 228.309 231.062 227.111 235.455 225.713L242.045 223.716C244.242 223.017 246.439 222.318 248.736 221.819C250.979 221.188 253.295 220.852 255.625 220.821C257.957 220.715 260.289 221.019 262.515 221.719C264.712 222.418 266.809 223.317 269.006 224.116C271.156 224.94 273.405 225.477 275.696 225.713C280.257 225.933 284.806 225.078 288.976 223.217C291.096 222.339 293.163 221.339 295.167 220.221C297.164 219.023 299.161 217.825 301.058 216.527C304.808 213.843 307.997 210.45 310.444 206.542C311.615 204.55 312.649 202.482 313.54 200.351C314.438 198.254 315.237 196.057 316.136 193.96C317.007 191.806 318.184 189.788 319.631 187.969C321.039 186.108 322.805 184.547 324.823 183.376C326.796 182.136 328.907 181.131 331.114 180.38L337.604 177.884C341.845 176.13 345.979 174.13 349.986 171.893C353.933 169.686 357.618 167.04 360.97 164.005C364.501 161.008 367.36 157.299 369.357 153.121C367.364 157.303 364.545 161.04 361.069 164.104C357.608 167.167 353.825 169.845 349.786 172.093C345.692 174.289 341.498 176.286 337.305 178.084L331.014 180.58C328.842 181.338 326.765 182.343 324.823 183.576C322.882 184.772 321.159 186.291 319.731 188.069C318.351 189.879 317.21 191.859 316.336 193.96L313.739 200.451C312.849 202.582 311.815 204.65 310.644 206.641C308.172 210.563 304.948 213.956 301.158 216.627C299.261 217.925 297.264 219.223 295.267 220.321C293.231 221.472 291.13 222.506 288.976 223.417C286.863 224.333 284.652 225.004 282.386 225.414C280.094 225.931 277.738 226.099 275.396 225.913C273.073 225.678 270.79 225.141 268.606 224.315C266.509 223.517 264.412 222.518 262.216 221.819C260.012 221.171 257.722 220.868 255.426 220.92C253.136 220.967 250.859 221.268 248.636 221.819L241.946 223.716L235.355 225.813C230.962 227.111 226.469 228.409 222.075 229.508C219.855 230.164 217.584 230.632 215.285 230.906C212.962 231.155 210.619 231.155 208.295 230.906C203.653 230.479 199.174 228.975 195.215 226.512C193.285 225.255 191.48 223.817 189.823 222.218C188.29 220.652 186.95 218.909 185.829 217.026V217.026Z" fill="url(#paint10_linear_693_233)"/>
<path d="M182.733 229.307C183.384 230.586 184.304 231.71 185.429 232.602C186.551 233.558 187.836 234.302 189.224 234.799C191.966 235.811 194.902 236.187 197.811 235.897C200.731 235.679 203.615 235.109 206.398 234.199C209.17 233.377 211.874 232.342 214.486 231.104C217.182 229.906 219.878 228.708 222.574 227.709C225.294 226.626 228.15 225.92 231.062 225.612C232.519 225.411 233.998 225.411 235.455 225.612C236.909 225.839 238.344 226.173 239.749 226.611C242.548 227.44 245.426 227.975 248.336 228.208C254.159 228.472 259.992 228.036 265.71 226.91C268.542 226.365 271.342 225.665 274.098 224.813C276.905 224.01 279.617 222.905 282.186 221.518C284.682 220.035 286.966 218.221 288.976 216.126C290.973 214.029 292.77 211.733 294.967 209.736C297.136 207.75 299.637 206.161 302.356 205.043C303.721 204.455 305.122 203.955 306.55 203.545L311.043 202.546C316.689 201.159 322.035 198.757 326.82 195.457C329.172 193.784 331.288 191.803 333.111 189.565C334.925 187.286 336.53 184.846 337.904 182.276C339.302 179.68 340.6 177.084 341.798 174.388C343.024 171.754 344.391 169.187 345.892 166.699C348.987 161.707 352.482 156.714 355.877 152.121C359.172 147.317 362.109 142.278 364.664 137.043C365.862 134.447 367.061 131.751 368.159 129.055C369.252 126.359 370.153 123.59 370.855 120.767C372.291 115.129 372.73 109.283 372.153 103.493C371.93 100.581 371.394 97.7023 370.555 94.9054C369.804 92.0959 368.732 89.382 367.36 86.8174C368.764 89.3436 369.87 92.0243 370.655 94.8056C371.471 97.6128 372.039 100.486 372.353 103.393C372.852 109.288 372.38 115.225 370.955 120.967C370.208 123.776 369.308 126.543 368.259 129.255C367.16 131.951 365.962 134.647 364.764 137.343C362.033 142.606 358.999 147.707 355.677 152.62C352.482 157.413 348.987 162.106 345.692 167.099C342.397 172.091 340.999 177.483 338.004 182.576C336.641 185.152 335.036 187.593 333.211 189.865C331.358 192.168 329.209 194.216 326.82 195.956C322.016 199.311 316.634 201.748 310.944 203.145L306.65 204.244L302.556 205.642C299.887 206.799 297.425 208.385 295.267 210.335C293.17 212.232 291.373 214.529 289.276 216.625C287.255 218.75 284.934 220.567 282.386 222.017C279.84 223.478 277.123 224.618 274.298 225.412C271.475 226.264 268.608 226.964 265.71 227.509C262.835 228.023 259.936 228.389 257.023 228.608C254.1 228.858 251.16 228.858 248.236 228.608C245.33 228.294 242.456 227.726 239.649 226.91C238.275 226.483 236.874 226.15 235.455 225.912C234.031 225.712 232.586 225.712 231.162 225.912C228.26 226.222 225.409 226.892 222.674 227.909C219.978 228.907 217.282 230.106 214.586 231.304C211.939 232.542 209.202 233.576 206.398 234.399C203.623 235.325 200.733 235.862 197.811 235.997C194.903 236.238 191.977 235.864 189.224 234.898C187.862 234.348 186.585 233.608 185.429 232.702C184.314 231.76 183.397 230.606 182.733 229.307V229.307Z" fill="url(#paint11_linear_693_233)"/>
<path d="M416.789 103.794C415.391 111.084 414.192 118.373 413.294 125.762C412.894 129.423 412.595 133.118 412.395 136.846V139.641C412.395 140.54 412.395 141.439 412.395 142.437C412.395 143.436 412.395 146.132 411.696 147.929C411.023 151.586 410.089 155.19 408.9 158.713C407.796 162.114 406.496 165.448 405.006 168.698C403.475 172.127 401.741 175.461 399.814 178.684C397.909 181.877 395.666 184.857 393.124 187.571C391.868 188.925 390.46 190.131 388.93 191.165C388.155 191.727 387.317 192.196 386.433 192.563L383.937 193.662C380.521 194.995 377.187 196.529 373.952 198.255C367.345 201.585 360.913 205.251 354.68 209.238C342.056 217.021 330.45 226.345 320.131 236.997C314.939 242.29 310.146 247.881 304.355 252.774C301.583 255.249 298.534 257.393 295.268 259.165C291.974 260.992 288.335 262.114 284.584 262.46C280.853 262.79 277.094 262.417 273.5 261.361C271.702 260.868 269.935 260.267 268.208 259.564L263.016 257.467C259.555 256.192 256.02 255.125 252.432 254.272C248.829 253.458 245.14 253.089 241.448 253.174C237.731 253.291 234.043 253.861 230.464 254.871C226.869 255.77 223.375 256.968 219.88 258.066C216.385 259.165 212.69 260.063 209.096 260.762C205.425 261.56 201.663 261.862 197.912 261.661C194.175 261.494 190.553 260.321 187.428 258.266C185.9 257.189 184.523 255.913 183.334 254.472C182.583 253.862 181.882 253.194 181.237 252.475L179.539 250.278C178.441 248.78 177.243 247.382 176.045 245.984C174.803 244.573 173.668 243.071 172.65 241.491C171.777 239.968 171.296 238.253 171.252 236.498C171.193 234.661 171.606 232.839 172.45 231.206C171.604 232.836 171.224 234.667 171.351 236.498C171.531 238.362 172.184 240.15 173.249 241.691C174.268 243.239 175.403 244.707 176.644 246.084L180.138 250.378L181.237 252.475L182.934 254.671C184.718 256.818 186.943 258.553 189.459 259.76C191.976 260.966 194.723 261.615 197.513 261.661C201.198 261.863 204.893 261.56 208.497 260.762C212.137 260.018 215.737 259.085 219.281 257.966C222.775 256.968 226.37 255.77 229.965 254.871C233.536 253.813 237.226 253.209 240.949 253.074C244.678 253.027 248.399 253.43 252.032 254.272C255.674 255.047 259.247 256.115 262.716 257.467L267.909 259.464C269.602 260.167 271.336 260.768 273.101 261.262C276.669 262.272 280.387 262.644 284.085 262.36C287.579 261.847 290.957 260.732 294.07 259.065C297.289 257.268 300.302 255.125 303.057 252.674C308.549 247.782 313.042 242.689 318.734 236.898C321.33 234.301 323.926 231.605 326.722 229.109C329.518 226.613 332.313 224.216 335.209 221.92C341.001 217.327 347.191 213.133 353.382 209.139C359.573 205.145 366.163 201.55 372.754 198.155C376.149 196.557 379.544 194.96 382.739 193.562L385.335 192.563L387.732 191.165C389.266 190.136 390.673 188.929 391.925 187.571C394.427 184.883 396.636 181.938 398.516 178.784C400.485 175.585 402.22 172.248 403.708 168.798C405.198 165.548 406.498 162.214 407.602 158.813C408.958 155.268 410.059 151.631 410.897 147.929C411.228 146.079 411.462 144.212 411.596 142.337C411.596 141.439 411.596 140.54 411.596 139.641V136.846C411.596 133.151 412.195 129.456 412.595 125.762C414.093 118.373 415.291 111.084 416.789 103.794Z" fill="url(#paint12_linear_693_233)"/>
<path d="M510.05 130.455C513.366 132.559 516.505 134.93 519.436 137.544C522.39 140.181 524.976 143.204 527.124 146.531C528.25 148.15 529.188 149.892 529.92 151.723C530.662 153.593 530.97 155.608 530.819 157.614C530.681 159.596 530.064 161.515 529.022 163.206C528.1 164.973 526.959 166.617 525.627 168.099C523.031 171.094 520.235 173.89 517.738 176.886C516.455 178.348 515.255 179.882 514.144 181.479C513.018 183.117 511.984 184.818 511.048 186.572C507.154 193.362 503.16 200.152 499.266 207.041C497.269 210.436 495.371 213.831 493.474 217.027L490.778 222.518L490.079 223.916V224.516C490.131 224.746 490.131 224.984 490.079 225.214C489.551 226.061 488.875 226.805 488.082 227.411C486.513 228.642 484.761 229.619 482.89 230.307C480.993 231.106 479.195 231.705 477.298 232.304C473.504 233.502 469.709 234.501 466.115 235.999C464.283 236.757 462.513 237.658 460.823 238.695L458.526 240.392L456.129 242.189C452.934 244.586 449.739 246.783 446.144 249.179C442.902 251.439 439.892 254.015 437.158 256.868C434.372 259.789 432.109 263.166 430.467 266.853C432.083 263.175 434.311 259.799 437.058 256.868C439.805 254.036 442.777 251.431 445.945 249.079C449.04 246.683 452.335 244.386 455.43 242.09L457.827 240.292C458.538 239.584 459.345 238.98 460.223 238.495C461.868 237.439 463.606 236.537 465.416 235.799C469.11 234.301 472.905 233.203 476.699 232.004C478.496 231.405 480.394 230.806 482.191 230.007C484.016 229.329 485.731 228.387 487.283 227.212C487.996 226.553 488.632 225.816 489.181 225.015C489.209 224.816 489.209 224.614 489.181 224.416V223.817L490.778 222.518C491.677 220.721 492.576 219.024 493.574 217.326C495.371 213.831 497.368 210.336 499.266 207.341C503.16 200.551 507.154 193.761 511.148 187.37C512.147 185.673 513.145 183.876 514.244 182.278C515.388 180.647 516.622 179.08 517.938 177.585C520.534 174.589 523.33 171.893 525.826 168.898C527.134 167.433 528.273 165.825 529.221 164.105C530.309 162.121 530.827 159.875 530.719 157.614C530.869 155.641 530.561 153.659 529.821 151.823C529.102 150.004 528.199 148.265 527.124 146.631C524.986 143.326 522.436 140.306 519.536 137.644C516.578 134.99 513.405 132.585 510.05 130.455V130.455Z" fill="url(#paint13_linear_693_233)"/>
<path d="M167.258 300.703C167.405 303.102 167.807 305.479 168.456 307.793C169.059 310.131 169.965 312.38 171.152 314.483C172.26 316.601 173.83 318.444 175.745 319.875C177.639 321.369 179.931 322.272 182.335 322.471C184.728 322.656 187.133 322.385 189.425 321.672L192.82 320.574L196.215 319.276C200.67 317.53 205.006 315.496 209.196 313.185C211.292 311.987 213.489 310.888 215.686 309.89C217.891 308.872 220.201 308.102 222.576 307.593C227.315 306.711 232.139 306.376 236.955 306.595H251.333C256.141 306.779 260.955 306.512 265.712 305.796C270.456 305.214 275.114 304.074 279.591 302.401C281.788 301.502 283.985 300.603 286.182 299.505L292.572 296.21L305.253 289.42C309.547 287.123 313.841 284.927 318.234 282.93C322.643 280.988 327.18 279.353 331.814 278.037C334.111 277.338 336.407 276.739 338.804 276.24C341.16 275.753 343.466 275.051 345.694 274.143C347.911 273.25 350.021 272.111 351.984 270.748C353.937 269.372 355.744 267.799 357.376 266.055C359.074 264.257 360.572 262.36 362.07 260.563C363.557 258.656 365.345 257.004 367.362 255.67C365.351 256.976 363.592 258.633 362.169 260.563C360.672 262.46 359.174 264.357 357.476 266.154C355.873 267.928 354.062 269.504 352.084 270.847C350.123 272.242 348.014 273.414 345.794 274.342C343.575 275.299 341.267 276.035 338.904 276.539C336.507 277.038 334.211 277.637 331.914 278.336C327.263 279.642 322.723 281.311 318.334 283.329C314.041 285.326 309.747 287.523 305.453 289.72L292.772 296.609L286.381 299.905C284.185 300.97 281.988 301.968 279.791 302.9C275.281 304.664 270.595 305.936 265.812 306.694C261.021 307.411 256.174 307.678 251.333 307.493H236.955C232.139 307.275 227.315 307.61 222.576 308.492C220.238 309.016 217.962 309.786 215.786 310.788C213.589 311.687 211.492 312.885 209.395 313.984C205.172 316.296 200.803 318.331 196.315 320.075L192.92 321.373L189.425 322.471C187.104 323.205 184.654 323.443 182.235 323.17C179.831 322.971 177.539 322.068 175.645 320.574C173.719 319.073 172.15 317.163 171.052 314.982C169.907 312.86 169.002 310.616 168.356 308.292C167.704 305.812 167.335 303.266 167.258 300.703V300.703Z" fill="url(#paint14_linear_693_233)"/>
<path d="M350.983 74.436C349.859 77.1324 349.217 80.0051 349.086 82.9235C349.001 85.8409 349.269 88.7578 349.885 91.6107C350.545 94.4576 351.481 97.2333 352.681 99.8984C353.28 101.196 353.979 102.495 354.678 103.793C355.377 105.091 356.175 106.289 356.974 107.587C357.773 108.885 359.87 112.679 361.168 115.276C362.595 117.885 363.766 120.628 364.663 123.464C365.633 126.25 365.974 129.217 365.661 132.151C365.187 135.059 364.134 137.843 362.566 140.339C364.027 137.819 364.977 135.037 365.362 132.151C365.652 129.242 365.276 126.306 364.263 123.563C363.305 120.783 362.137 118.079 360.769 115.475C359.371 112.879 357.973 110.383 356.475 107.887L354.278 104.092C353.514 102.812 352.847 101.477 352.281 100.098C351.052 97.4102 350.115 94.5983 349.485 91.7105C348.886 88.8225 348.684 85.8661 348.886 82.9235C348.988 81.4473 349.188 79.9795 349.485 78.53C349.834 77.1148 350.336 75.7419 350.983 74.436Z" fill="url(#paint15_linear_693_233)"/>
<path d="M367.761 72.7393C371.136 72.8549 374.487 73.3575 377.747 74.2371C381.13 75.0808 384.318 76.5728 387.133 78.6305C388.593 79.8007 389.871 81.1802 390.927 82.7245C391.979 84.1464 392.788 85.732 393.324 87.4176C394.47 90.6468 395.241 93.9973 395.62 97.4028C395.62 99.2001 395.62 100.898 395.62 102.595C395.62 104.293 395.62 106.09 395.62 107.787C395.827 109.482 396.299 111.133 397.018 112.68C397.761 114.235 398.665 115.707 399.714 117.074C400.856 118.412 401.767 119.93 402.41 121.567C402.868 123.268 402.868 125.059 402.41 126.759C402.097 128.463 401.629 130.134 401.012 131.752C400.413 133.449 399.714 135.047 399.015 136.545C399.714 134.947 400.313 133.35 400.912 131.752C401.464 130.128 401.865 128.457 402.111 126.759C402.51 125.085 402.51 123.341 402.111 121.667C401.406 120.092 400.499 118.615 399.415 117.273C398.334 115.944 397.397 114.505 396.619 112.98C395.865 111.375 395.392 109.652 395.221 107.887C395.126 106.158 395.126 104.424 395.221 102.695C395.221 100.898 395.221 99.2001 395.221 97.5026C394.841 94.0971 394.071 90.7466 392.924 87.5174C392.549 85.8138 391.872 84.1908 390.927 82.7245C389.948 81.33 388.77 80.0855 387.432 79.03C384.7 76.9136 381.579 75.3531 378.246 74.4367C374.842 73.4067 371.316 72.8358 367.761 72.7393Z" fill="url(#paint16_linear_693_233)"/>
<path d="M569.961 268.151C569.362 275.84 568.563 283.628 567.565 291.317C566.966 295.111 566.366 299.005 565.668 302.8L564.469 308.491C564.043 310.384 563.509 312.251 562.872 314.083C562.28 315.965 561.476 317.774 560.475 319.475C559.504 321.165 558.437 322.799 557.28 324.368C556.082 325.866 554.784 327.363 553.685 328.961C552.481 330.477 551.444 332.117 550.59 333.854C548.816 337.293 547.635 341.006 547.095 344.837C546.646 348.652 546.646 352.506 547.095 356.321C547.248 358.271 547.548 360.207 547.994 362.112C548.413 364.018 548.68 365.955 548.792 367.903C548.723 369.87 548.175 371.789 547.195 373.495C546.722 374.387 546.153 375.224 545.497 375.991C544.849 376.739 544.148 377.44 543.4 378.088C541.85 379.293 540.176 380.33 538.408 381.184L533.116 383.48C529.501 384.881 525.997 386.55 522.631 388.473C520.968 389.448 519.454 390.659 518.138 392.068C516.874 393.54 515.892 395.232 515.242 397.06L513.445 402.552C512.846 404.449 512.346 406.247 511.548 408.144C510.743 409.917 509.738 411.592 508.552 413.136C507.341 414.647 505.968 416.02 504.458 417.23C501.51 419.75 498.335 421.99 494.972 423.921C498.305 421.954 501.447 419.68 504.358 417.131C505.868 415.92 507.241 414.547 508.452 413.037C509.586 411.476 510.556 409.803 511.348 408.044C511.924 406.142 512.391 404.208 512.746 402.253C513.345 400.455 513.944 398.558 514.643 396.761C514.958 395.827 515.359 394.924 515.841 394.065C516.305 393.198 516.875 392.393 517.539 391.668C518.823 390.198 520.342 388.95 522.032 387.974C525.226 386.053 528.564 384.384 532.017 382.981L537.309 380.585C539.059 379.753 540.702 378.714 542.202 377.489C542.971 376.901 543.674 376.232 544.299 375.492C544.898 374.693 545.398 373.895 545.897 373.096C546.833 371.449 547.348 369.597 547.395 367.704C547.276 365.789 547.009 363.886 546.596 362.012C546.118 360.109 545.784 358.173 545.597 356.221C545.296 352.317 545.497 348.39 546.196 344.538C547.084 340.656 548.602 336.945 550.69 333.554C551.626 331.865 552.659 330.231 553.785 328.661L557.38 324.068C558.591 322.551 559.692 320.95 560.675 319.275C561.575 317.559 562.375 315.792 563.071 313.983C563.67 312.186 564.17 310.289 564.669 308.391C565.168 306.494 565.468 304.597 565.867 302.7C566.566 298.905 567.165 295.111 567.764 291.217C568.497 283.495 569.229 275.806 569.961 268.151Z" fill="url(#paint17_linear_693_233)"/>
<path d="M167.556 322.37C167.155 325.051 167.155 327.777 167.556 330.458C167.745 331.793 168.186 333.081 168.854 334.252C169.408 335.457 170.313 336.466 171.45 337.148C172.546 337.883 173.826 338.298 175.145 338.346C176.472 338.494 177.812 338.494 179.139 338.346C181.754 337.721 184.273 336.747 186.628 335.45C188.924 334.152 191.121 332.555 193.318 331.057C195.545 329.497 197.919 328.159 200.407 327.063C202.946 326.055 205.665 325.58 208.395 325.665C211.109 325.767 213.797 326.237 216.384 327.063C218.935 327.997 221.378 329.202 223.673 330.657C225.879 332.223 228.258 333.53 230.762 334.552C233.246 335.492 235.899 335.9 238.551 335.75H242.545H246.639C252.009 335.656 257.359 335.055 262.615 333.953C265.238 333.389 267.786 332.518 270.204 331.356C272.636 330.194 274.945 328.789 277.094 327.163C274.968 328.801 272.695 330.238 270.304 331.456C267.874 332.638 265.331 333.575 262.715 334.252C257.413 335.316 252.04 335.984 246.639 336.249H242.645C241.247 336.249 239.949 336.249 238.651 336.249C235.907 336.491 233.143 336.115 230.563 335.151C228.086 334.072 225.712 332.768 223.473 331.256C221.222 329.814 218.809 328.641 216.284 327.762C213.744 326.87 211.085 326.365 208.395 326.264C205.74 326.19 203.095 326.63 200.607 327.562C195.857 330.093 191.257 332.893 186.827 335.95C184.454 337.261 181.895 338.203 179.239 338.745C177.881 338.943 176.502 338.943 175.145 338.745C173.771 338.653 172.438 338.243 171.25 337.547C170.151 336.736 169.261 335.675 168.654 334.452C168.073 333.208 167.638 331.901 167.356 330.558C167.013 327.834 167.08 325.074 167.556 322.37V322.37Z" fill="url(#paint18_linear_693_233)"/>
<path d="M172.548 348.63C172.11 350.238 171.777 351.872 171.55 353.523C171.403 355.184 171.403 356.854 171.55 358.515C171.66 360.228 172.137 361.896 172.948 363.408C173.341 364.118 173.887 364.732 174.545 365.206C175.189 365.727 175.939 366.102 176.742 366.304C178.388 366.654 180.089 366.654 181.735 366.304C183.412 366.071 185.055 365.635 186.628 365.006C189.729 363.73 192.733 362.228 195.614 360.512C197.079 359.704 198.617 359.036 200.207 358.515C201.876 358.075 203.631 358.075 205.3 358.515C206.96 358.911 208.5 359.699 209.793 360.812C211.142 361.847 212.38 363.018 213.488 364.307L216.683 368.201C217.769 369.453 219.01 370.56 220.378 371.496C221.719 372.481 223.311 373.069 224.971 373.194C226.622 373.493 228.313 373.493 229.963 373.194C231.578 372.778 233.149 372.209 234.656 371.496L239.05 369.2C241.946 367.402 244.542 365.305 247.438 363.408C250.254 361.571 253.359 360.22 256.624 359.414C259.892 358.575 263.238 358.073 266.609 357.916C273.399 357.916 280.089 357.916 286.58 357.916C293.07 357.916 299.96 357.916 306.55 357.916C313.41 357.69 320.174 356.236 326.521 353.623C329.625 352.352 332.547 350.673 335.208 348.63C337.93 346.706 340.127 344.132 341.598 341.141C342.953 337.959 343.828 334.594 344.195 331.156C344.44 329.458 344.841 327.787 345.393 326.163C345.886 324.546 346.591 323.002 347.49 321.57C349.295 318.681 351.716 316.227 354.579 314.381C357.375 312.493 360.352 310.887 363.466 309.588C369.66 306.907 376.074 304.769 382.638 303.197C389.128 301.4 395.618 299.802 402.009 297.605C408.385 295.516 414.487 292.666 420.182 289.118C425.852 285.475 431.079 281.186 435.759 276.337C431.094 281.192 425.903 285.512 420.282 289.218C414.571 292.79 408.475 295.704 402.109 297.905C395.718 300.102 389.128 301.699 382.138 303.397C375.623 305.063 369.246 307.233 363.067 309.887C360.014 311.248 357.076 312.851 354.28 314.68C351.473 316.521 349.091 318.938 347.29 321.77C346.424 323.17 345.752 324.682 345.293 326.263C344.8 327.87 344.4 329.503 344.095 331.156C343.745 334.597 342.869 337.965 341.498 341.141C340.027 344.216 337.792 346.863 335.008 348.83C332.291 350.87 329.342 352.579 326.221 353.922C319.871 356.525 313.109 357.979 306.251 358.216C299.461 358.216 292.771 358.216 286.28 358.216C279.79 358.216 272.8 357.617 266.31 358.216C262.937 358.281 259.585 358.751 256.324 359.614C253.099 360.444 250.031 361.793 247.238 363.608C244.442 365.405 241.746 367.502 238.85 369.299C237.438 370.222 235.932 370.992 234.357 371.596C232.834 372.298 231.266 372.899 229.664 373.393C227.979 373.69 226.256 373.69 224.571 373.393C222.845 373.221 221.193 372.601 219.778 371.596C218.386 370.654 217.14 369.509 216.084 368.201C214.886 366.903 213.887 365.605 212.789 364.307C211.726 363.044 210.557 361.875 209.294 360.812C207.971 359.767 206.438 359.017 204.801 358.615C203.2 358.168 201.508 358.168 199.908 358.615C198.32 359.1 196.782 359.736 195.315 360.512C192.409 362.248 189.371 363.751 186.228 365.006C184.645 365.602 183.006 366.037 181.335 366.304C179.685 366.603 177.993 366.603 176.343 366.304C175.528 366.006 174.756 365.603 174.046 365.106C173.383 364.596 172.838 363.949 172.448 363.208C171.623 361.708 171.177 360.028 171.15 358.316C171.003 356.655 171.003 354.984 171.15 353.323C171.471 351.719 171.939 350.148 172.548 348.63V348.63Z" fill="url(#paint19_linear_693_233)"/>
<path d="M274.299 101.695C262.851 104.3 251.962 108.933 242.147 115.375C231.263 124.062 214.887 140.338 216.085 143.733C217.283 147.128 220.778 135.645 234.158 124.961C241.237 118.355 249.851 113.619 259.221 111.181C269.906 107.187 286.781 102.694 274.299 101.695Z" fill="url(#paint20_linear_693_233)"/>
<path d="M302.156 90.1136C308.698 81.7968 317.667 75.7241 327.818 72.7393C339.49 68.9156 352.186 69.7382 363.266 75.0359C373.251 79.6291 346.191 70.4427 332.112 75.635C323.681 78.736 316.091 83.7621 309.945 90.3133C309.945 90.3133 295.866 95.7053 302.156 90.1136Z" fill="url(#paint21_linear_693_233)"/>
<path opacity="0.48" d="M175.146 342.84C184.412 345.506 193.855 347.508 203.405 348.831C209.861 348.951 216.181 350.703 221.777 353.924C230.091 357.504 239.47 357.719 247.939 354.523C253.99 352.158 259.595 348.782 264.514 344.538C261.795 349.523 257.952 353.806 253.29 357.047C248.628 360.288 243.274 362.398 237.654 363.21C220.479 363.21 216.585 353.225 201.008 355.122C195.941 356.592 190.511 356.154 185.746 353.891C180.98 351.628 177.209 347.696 175.146 342.84Z" fill="white"/>
<path opacity="0.47" d="M215.983 148.528C215.983 148.528 198.609 158.513 202.104 168.499C205.599 178.484 194.115 185.973 203.002 178.484C211.889 170.995 205.898 162.607 216.482 152.622C225.292 144.54 234.932 137.411 245.24 131.354C235.907 137.765 226.13 143.504 215.983 148.528V148.528Z" fill="white"/>
<path opacity="0.47" d="M184.629 193.861C184.629 193.861 181.634 198.854 201.704 201.05C221.774 203.247 219.977 208.739 239.448 201.05C258.92 193.362 259.419 182.977 259.419 182.977C259.419 182.977 258.72 196.657 237.451 204.545C216.183 212.433 220.876 211.635 205.798 207.541C190.72 203.447 180.635 207.74 184.629 193.861Z" fill="white"/>
<path d="M168.354 219.922C165.224 225.476 163.832 231.841 164.36 238.195C165.207 243.453 166.374 248.655 167.855 253.772C167.855 253.772 162.363 230.107 172.548 218.624C182.733 207.141 185.329 214.13 185.329 214.13C185.329 214.13 178.239 208.539 168.354 219.922Z" fill="#FFCEE5"/>
<path d="M529.119 171.492C539.908 176.084 549.217 183.569 556.019 193.12C562.821 202.67 566.85 213.915 567.662 225.612C567.662 225.612 550.687 185.971 529.119 171.492Z" fill="#FFCEE5"/>
<path d="M490.778 434.504C501.978 431.356 512.504 426.178 521.833 419.226C531.113 411.779 537.187 401.059 538.807 389.271C527.499 408.667 510.818 424.377 490.778 434.504V434.504Z" fill="#FF8EB6"/>
<path opacity="0.48" d="M198.413 294.211C209.873 296.67 221.69 296.974 233.262 295.109C243.303 292.68 253.519 291.044 263.817 290.216C271.897 289.787 279.794 287.643 286.982 283.926C276.989 289.988 266.055 294.341 254.63 296.807C243.008 299.721 231.197 301.823 219.282 303.097C208.598 303.297 212.393 306.093 198.413 294.211Z" fill="white"/>
<path opacity="0.47" d="M463.518 123.165C459.938 129.519 457.951 136.645 457.727 143.934C457.128 156.915 457.727 173.391 446.943 183.376C438.817 190.072 432.701 198.884 429.269 208.838C428.17 214.73 413.193 228.809 413.193 228.809C421.52 223.856 428.566 217.015 433.762 208.838C438.555 198.254 453.034 184.774 453.733 179.981C454.432 175.188 464.017 141.138 463.518 123.165Z" fill="white"/>
<path opacity="0.47" d="M498.566 128.957C498.566 128.957 492.975 131.054 493.274 140.54C493.574 150.026 492.675 162.008 492.675 162.008C492.675 162.008 502.76 138.842 498.566 128.957Z" fill="white"/>
<path opacity="0.47" d="M546.795 233.103C546.795 233.103 515.441 242.289 512.246 249.279C509.051 256.268 509.75 269.249 498.866 279.833C489.719 288.532 482.032 298.647 476.099 309.789C471.943 316.349 467.052 322.412 461.521 327.862C470.725 321.687 479.084 314.335 486.384 305.995C490.532 297.088 496.766 289.313 504.557 283.328C514.542 275.44 508.152 258.565 518.437 254.77C528.861 248.917 538.408 241.623 546.795 233.103V233.103Z" fill="white"/>
<path opacity="0.47" d="M546.796 245.484C546.796 245.484 540.305 257.567 535.912 267.152C531.518 276.738 525.927 287.622 525.927 287.622C530.373 280.13 536.282 273.61 543.301 268.45C555.483 259.863 542.103 256.568 546.796 245.484Z" fill="white"/>
<path d="M569.962 287.521C574.162 301.36 576.48 315.701 576.852 330.158C574.71 341.866 569.311 352.733 561.275 361.512C572.111 338.441 575.159 312.475 569.962 287.521V287.521Z" fill="#FF94BB"/>
<path opacity="0.35" d="M303.454 212.533C298.756 214.368 293.913 215.804 288.975 216.827C257.921 222.718 249.034 213.931 239.049 219.922C229.064 225.913 211.19 226.812 187.325 210.936C187.325 210.936 199.907 236.598 219.877 232.104C239.848 227.611 254.027 220.322 268.405 223.217C282.784 226.113 295.266 225.614 319.929 212.134C336.322 202.674 351.006 190.522 363.365 176.187C344.998 190.767 324.869 202.978 303.454 212.533V212.533Z" fill="#EA5DB4"/>
<g style="mix-blend-mode:multiply" opacity="0.17">
<g style="mix-blend-mode:multiply" opacity="0.17">
<path d="M399.614 329.859C406.114 323.558 412.249 316.89 417.987 309.888C417.987 309.888 408.002 319.474 399.614 329.859Z" fill="#EF08A2"/>
</g>
<g style="mix-blend-mode:multiply" opacity="0.17">
<path d="M542.901 360.814C543.616 356.516 544.651 352.277 545.997 348.133C544.898 338.148 544.898 329.66 544.399 335.451C544.255 342.238 541.739 348.759 537.289 353.885C532.838 359.01 526.734 362.415 520.035 363.51C501.063 368.003 510.849 389.671 488.881 407.645C466.914 425.618 477.099 404.25 469.809 400.955C462.52 397.66 469.809 382.981 475.601 370.1C481.392 357.219 491.078 330.159 491.078 330.159C483.36 342.538 472.133 352.341 458.826 358.318C438.855 365.607 444.247 361.513 440.253 362.911C436.259 364.309 408.3 373.695 402.409 375.892C396.518 378.088 404.806 368.802 410.098 357.219C415.39 345.636 394.82 358.418 388.829 351.528C386.033 348.233 392.224 338.846 399.613 329.86C397.417 331.857 395.12 333.854 393.023 335.451C381.64 344.139 369.458 347.534 363.067 344.638C356.677 341.742 372.254 324.667 364.365 328.062C356.477 331.457 348.888 344.538 326.422 354.024C303.955 363.51 291.273 344.039 287.379 327.264C283.485 310.488 353.082 288.421 355.978 287.323C342.999 291.548 329.015 291.548 316.037 287.323C298.063 279.035 324.424 270.448 337.206 262.759C349.987 255.07 374.55 222.519 374.55 222.519C367.237 228.064 359.334 232.785 350.985 236.598C333.311 245.584 327.919 256.568 312.143 262.559C296.366 268.55 277.194 262.559 262.216 257.866C247.239 253.173 266.51 237.896 264.214 238.794C261.917 239.693 239.949 248.081 232.261 239.593C224.572 231.106 241.048 220.621 241.048 220.621C230.5 225.38 218.698 226.606 207.398 224.116C193.218 218.824 242.046 208.339 242.046 208.339C227.398 209.312 212.687 208.066 198.411 204.645C196.029 204.231 193.78 203.253 191.852 201.794C189.925 200.336 188.373 198.437 187.327 196.257C178.872 208.168 173.176 221.812 170.652 236.198C166.204 258.32 165.933 281.078 169.853 303.299C172.549 327.863 167.257 340.744 177.042 367.304C186.75 394.348 206.14 416.832 231.462 430.411C255.233 443.3 277.88 458.164 299.162 474.845C320.231 489.923 355.179 484.831 384.735 477.042C414.292 469.254 441.352 452.179 473.404 442.194C490.843 435.48 506.331 424.521 518.466 410.311C530.601 396.102 539 379.089 542.901 360.814V360.814Z" fill="#EF08A2"/>
</g>
</g>
<path opacity="0.24" d="M178.342 264.555C178.342 264.555 196.515 239.093 200.109 248.978C203.704 258.863 203.604 275.239 210.993 274.94C219.225 275.696 227.356 277.302 235.257 279.733C235.257 279.733 200.209 272.743 199.81 285.324C199.41 297.906 199.211 300.602 206.7 303.997C214.923 306.575 223.451 308.052 232.062 308.39C232.062 308.39 209.495 308.39 203.904 320.073C198.312 331.756 206.7 337.747 219.381 338.046C232.062 338.346 260.62 348.032 238.253 345.336C222.625 342.758 207.519 337.666 193.519 330.258C189.924 328.56 165.76 315.58 175.646 320.273C179.654 322.181 184.198 322.646 188.509 321.591C192.821 320.536 196.636 318.024 199.311 314.481C201.807 309.089 187.029 301.5 187.029 301.5C187.029 301.5 194.118 280.132 187.029 276.737C179.939 273.342 162.964 270.247 178.342 264.555Z" fill="#8E0052"/>
<path opacity="0.24" d="M200.409 361.313C200.409 361.313 198.512 365.207 216.486 368.103C234.459 370.998 235.258 361.313 247.24 362.91C256.172 363.647 265.163 362.802 273.801 360.414C266.166 365.348 257.543 368.552 248.538 369.8C240.558 370.623 232.626 371.856 224.773 373.495C224.773 373.495 214.788 386.076 233.161 385.477C246.711 384.595 260.114 382.149 273.102 378.188C263.056 384.539 252.34 389.763 241.149 393.765C233.461 396.561 215.986 394.863 224.274 398.757C232.562 402.652 248.938 414.634 261.12 411.239C275.137 409.232 288.832 405.405 301.859 399.856C316.438 391.967 328.121 386.476 328.121 386.476C326.275 390.902 323.488 394.875 319.953 398.116C316.419 401.358 312.221 403.791 307.651 405.248C291.175 411.339 252.433 419.127 261.819 423.421C271.823 428.99 283.588 430.492 294.67 427.615C302.808 423.832 310.622 419.391 318.036 414.334C322.731 411.151 327.673 408.346 332.814 405.947C341.151 402.028 349.164 397.453 356.778 392.267C356.778 392.267 325.425 418.928 312.244 423.72C299.064 428.513 289.578 435.204 297.865 439.098C302.394 441.692 307.482 443.155 312.697 443.363C317.911 443.572 323.1 442.52 327.821 440.296C338.72 435.662 349.208 430.117 359.175 423.72C368.585 420.455 377.789 416.62 386.734 412.237C395.821 406.346 406.704 398.658 406.704 398.658C406.704 398.658 371.856 422.822 360.373 432.208C348.89 441.594 333.213 447.985 339.803 451.08C346.394 454.175 386.734 442.992 386.734 436.202C386.734 429.412 391.727 443.591 372.056 450.381C352.385 457.171 326.124 464.86 319.533 467.256C312.943 469.653 310.946 464.261 316.438 462.164C321.93 460.067 338.705 451.479 325.025 451.479C311.345 451.479 294.47 445.289 282.987 449.582C271.504 453.876 297.366 438.798 285.084 433.206C271.608 428.62 257.684 425.474 243.546 423.82C243.546 423.82 239.552 423.121 247.24 420.325C254.929 417.53 245.043 411.139 236.157 410.34C227.27 409.541 217.284 400.355 209.496 399.057C201.708 397.759 192.921 391.368 205.901 392.866C218.882 394.364 209.995 386.775 208.597 382.881C207.199 378.987 176.345 360.214 200.409 361.313Z" fill="#8E0052"/>
<path d="M346.49 482.135C357.403 485.032 368.65 486.476 379.941 486.428C389.091 486.831 398.137 484.352 405.803 479.339C410.526 474.905 414.806 470.023 418.584 464.76C419.982 463.163 422.178 460.367 422.178 460.367C415.524 462.179 409.285 465.265 403.806 469.453C402.481 472.89 400.231 475.893 397.306 478.131C394.381 480.369 390.894 481.755 387.23 482.135C376.85 483.861 366.256 483.861 355.876 482.135C352.481 481.535 340.998 479.938 346.49 482.135Z" fill="#E5588F"/>
<path d="M397.019 470.052C397.019 470.052 401.912 475.444 419.985 470.052C430.1 467.223 438.878 460.887 444.749 452.178L438.059 452.977C433.726 458.042 428.474 462.243 422.582 465.359C414.394 469.053 416.79 468.953 407.404 467.056C398.018 465.159 389.131 467.655 397.019 470.052Z" fill="#E5588F"/>
<path d="M228.665 426.814C234.726 436.145 242.322 444.382 251.132 451.178C258.779 454.914 267.351 456.337 275.795 455.272C269.212 454.247 262.776 452.437 256.623 449.88C248.236 445.986 244.541 436.5 242.345 435.302C240.148 434.104 228.665 426.814 228.665 426.814Z" fill="#E5588F"/>
<path opacity="0.36" d="M337.306 464.161C350.814 463.641 364.216 461.564 377.247 457.97C390.727 452.978 413.893 431.909 409.699 440.995C404.864 448.502 398.46 454.873 390.927 459.668C400.434 460.976 410.112 460.192 419.285 457.371C435.062 452.678 461.622 438 469.211 436.702C476.8 435.403 497.07 409.442 492.876 418.528C488.682 427.615 480.794 432.208 457.429 447.486C437.727 460.34 414.75 467.271 391.227 467.456C367.362 469.453 318.334 475.944 337.306 464.161Z" fill="#8E0052"/>
<path opacity="0.21" d="M396.419 97.2021C400.897 101.541 404.61 106.605 407.403 112.18C409.127 115.513 410.027 119.211 410.027 122.964C410.027 126.717 409.127 130.415 407.403 133.748C403.009 142.435 396.119 156.514 392.525 163.704C388.182 171.575 383.028 178.971 377.147 185.771C370.898 193.581 364.232 201.048 357.177 208.138C357.177 208.138 388.73 189.965 393.723 179.281C398.715 168.597 404.507 156.015 407.902 148.426C411.297 140.838 419.684 126.559 416.589 118.471C414.861 113.734 412.179 109.403 408.71 105.744C405.241 102.086 401.057 99.1786 396.419 97.2021V97.2021Z" fill="#EA5DB4"/>
<path opacity="0.21" d="M507.655 132.65C503.664 141.852 502.349 151.992 503.861 161.907C505.658 181.179 507.356 186.97 494.874 200.55C487.002 208.9 480.89 218.747 476.901 229.507C474.404 234.899 475.802 234.7 459.826 249.478C443.85 264.256 474.105 241.589 483.99 224.814C493.876 208.039 491.479 209.437 502.263 202.247C506.413 199.366 509.927 195.664 512.589 191.37C515.251 187.076 517.004 182.282 517.74 177.284C517.84 171.892 504.26 150.324 507.655 132.65Z" fill="#EA5DB4"/>
<path opacity="0.36" d="M563.171 185.673C568.985 209.995 564.928 235.629 551.888 256.967C507.853 334.353 474.602 377.389 311.044 436.103C284.384 446.088 261.118 453.277 241.148 459.268C248.162 462.477 254.85 466.356 261.118 470.851C266.41 475.145 293.87 468.355 304.853 463.462C415.59 415.134 489.78 389.172 543.7 302.4C558.472 277.98 570.399 251.949 579.248 224.815C577.45 219.223 575.254 213.432 572.757 206.842C570.089 199.558 566.885 192.483 563.171 185.673V185.673Z" fill="#51183E"/>
<path d="M415.688 91.4121C419.92 91.0149 424.122 90.3478 428.269 89.415C436.727 86.016 446.172 86.016 454.63 89.415C464.615 94.1081 471.905 111.482 471.905 111.482C465.346 103.214 456.789 96.7536 447.041 92.7102C438.723 91.8469 430.318 92.387 422.178 94.3078C416.986 93.9084 412.193 92.7102 415.688 91.4121Z" fill="#FFD5EA"/>
<path d="M397.416 82.7252C397.416 82.7252 417.387 79.2303 425.974 78.9308C428.628 78.9211 431.23 79.6672 433.475 81.0818C435.721 82.4964 437.518 84.521 438.655 86.9189C438.655 86.9189 423.178 79.2303 416.887 83.524C410.597 87.8176 411.995 92.2111 407.701 90.2141C403.407 88.217 403.008 86.6194 397.416 82.7252Z" fill="#FFD5EA"/>
<path d="M477.297 104.292C478.738 108.437 481.558 111.962 485.285 114.278C488.681 115.85 491.814 117.938 494.571 120.469L504.556 125.861C499.825 120.372 494.386 115.537 488.38 111.482C483.923 109.717 480.096 106.657 477.397 102.695L477.297 104.292Z" fill="#FFD5EA"/>
<path d="M527.523 165.002C535.004 166.851 542.013 170.253 548.093 174.988C551.119 180.736 553.176 186.943 554.184 193.361C549.992 186.139 544.965 179.436 539.206 173.39C535.714 172.022 532.147 170.855 528.521 169.895C528.521 169.895 523.129 169.396 527.523 165.002Z" fill="#FFD5EA"/>
<path d="M709.357 137.345C694.878 107.888 646.55 99.8001 569.563 114.079C554.086 116.875 537.81 120.569 520.935 125.063L522.134 126.56L524.131 128.657C528.125 132.651 526.327 135.847 530.122 140.14C542.803 136.945 560.776 134.948 572.559 132.751C637.263 120.769 681.598 125.562 691.383 145.532C701.169 165.503 677.704 203.347 628.576 247.082C614.797 259.464 599.319 271.945 582.544 284.327C528.229 324 470.485 358.753 409.999 388.174C352.467 416.719 292.646 440.4 231.164 458.969C207.798 465.759 185.531 471.151 164.762 475.045C100.058 487.027 55.6234 482.234 45.9377 462.364C36.252 442.493 59.6175 404.45 108.745 360.714C123.823 347.234 140.897 333.554 159.57 319.875C157.273 313.384 154.777 306.894 152.68 300.903C132.932 314.978 113.935 330.076 95.764 346.136C37.2505 398.259 13.9849 441.395 28.4635 470.851C42.9421 500.308 91.2707 508.396 168.257 494.217C197.457 488.568 226.298 481.199 254.629 472.149C310.397 453.785 364.732 431.324 417.189 404.949C473.19 377.216 526.795 344.886 577.452 308.292C597.896 293.064 617.465 276.696 636.065 259.264C694.479 207.141 723.835 166.801 709.357 137.345Z" fill="#F4EFF2"/>
<path d="M573.556 110.783C556.082 114.078 537.509 118.371 518.238 123.664C522.841 128.772 526.676 134.524 529.621 140.738C546.096 136.345 561.973 132.75 577.051 129.954C641.755 117.972 686.089 122.765 695.875 142.636C705.66 162.506 682.195 200.55 633.068 244.285C619.288 256.667 603.811 269.049 587.036 281.53C532.566 321.093 474.652 355.681 413.992 384.877C356.447 413.501 296.59 437.217 235.056 455.773C211.691 462.562 189.424 467.955 168.654 471.849C103.95 483.831 59.5158 479.038 49.8301 459.167C40.1444 439.297 63.5099 401.253 112.637 357.418C127.715 344.038 144.79 330.358 163.462 316.678C161.165 310.188 158.669 303.697 156.572 297.706C136.825 311.782 117.827 326.88 99.6564 342.939C41.4425 395.062 17.8774 438.199 32.3559 467.655C46.8345 497.111 95.1631 505.199 172.149 490.921C201.404 485.37 230.284 478 258.621 468.853C314.851 450.752 369.655 428.49 422.579 402.252C479.724 374.635 534.524 342.409 586.437 305.894C607.255 291.293 627.256 275.559 646.348 258.764C704.762 206.641 728.127 163.505 713.649 134.048C699.17 104.592 650.542 96.6036 573.556 110.783Z" fill="#EAE0E6"/>
<g opacity="0.64">
<path opacity="0.64" d="M46.934 453.275C47.4407 454.242 48.0077 455.175 48.6315 456.071C48.1209 454.452 47.8189 452.774 47.7328 451.078C47.7328 451.078 47.7328 450.479 47.7328 450.18V447.683C47.7757 447.419 47.7757 447.149 47.7328 446.884V446.884C47.7328 446.884 47.7328 446.884 47.7328 446.086C47.684 445.822 47.684 445.551 47.7328 445.287V445.287C47.7328 445.287 47.7328 444.688 47.7328 444.388C47.7328 444.388 47.7328 444.388 47.7328 443.589V442.79C47.6861 442.493 47.6861 442.19 47.7328 441.892V441.892V440.993V440.194V439.296V438.297C47.7087 437.965 47.7087 437.631 47.7328 437.299V437.299C47.7328 437.299 47.7328 436.6 47.7328 436.2C48.4318 434.403 49.3305 432.705 50.2291 430.808L50.8283 429.81L51.4274 428.811C51.3733 428.481 51.3733 428.143 51.4274 427.813V427.213L52.0265 426.315V425.616C52.1545 425.296 52.3222 424.995 52.5257 424.717C52.5773 424.487 52.5773 424.248 52.5257 424.018L53.1249 423.119C53.1439 422.887 53.1439 422.653 53.1249 422.421L53.724 421.522L54.2232 420.823L54.8224 419.924V419.225L55.5213 418.327C55.4908 418.061 55.4908 417.793 55.5213 417.528L56.1204 416.629C56.1693 416.365 56.1693 416.094 56.1204 415.83L56.8194 414.932L57.3187 414.233L58.0176 413.334L58.6167 412.535L59.3157 411.637L59.9148 410.738L60.6138 409.839L69.4008 402.25L70.0998 401.352C70.2775 401.042 70.5151 400.77 70.7987 400.553L71.4977 399.654L72.1967 398.756L72.8956 397.857L73.6944 396.958L74.3934 396.06C74.804 395.45 75.2721 394.882 75.7913 394.362L76.4903 393.563L77.389 392.565L78.0879 391.666L78.9866 390.667L79.6856 389.869L80.5843 388.87L81.3831 388.271L82.1819 387.372L82.9807 386.474L83.8794 385.475L84.6782 384.577C85.0356 384.269 85.3694 383.935 85.6767 383.578L86.4755 382.679L87.3742 382.28L88.2729 381.381C88.5535 381 88.8901 380.663 89.2714 380.383L90.0702 379.484C90.3775 379.127 90.7113 378.793 91.0687 378.486L91.9674 377.587L92.9659 376.488L93.8646 375.59L94.8631 374.591L95.7618 373.693L96.8602 372.694L97.7589 371.795L98.8572 370.697L99.7559 369.798L100.854 368.8L101.853 367.901C102.167 367.487 102.537 367.117 102.951 366.803L103.85 365.904L105.148 364.706L106.047 363.907L107.345 362.309C107.636 362.069 107.903 361.801 108.144 361.511L109.641 360.213C109.899 360.005 110.133 359.771 110.34 359.514L112.637 357.517C114.334 355.919 116.232 354.421 118.029 352.824L119.826 351.226L123.72 347.931L125.817 346.133L129.512 343.138L131.709 341.241L135.503 338.245L137.8 336.348L141.794 333.252L143.891 331.555L148.384 328.06L150.181 326.662L155.873 322.468L156.672 321.869L163.462 316.777C162.763 314.68 161.964 312.583 161.165 310.586C142.293 324.366 125.019 338.145 109.741 351.725C60.7136 395.361 37.2483 433.404 46.934 453.275Z" fill="#DBD0D8"/>
<path opacity="0.64" d="M574.256 124.162C559.079 126.958 543.102 130.553 526.527 135.046C527.625 136.944 528.624 138.841 529.622 140.738L540.706 137.842H541.904L545.898 136.944L548.494 136.245L551.989 135.446L555.085 134.747L558.28 134.048L561.775 133.349L564.67 132.65L568.665 131.751H570.861L577.052 130.553H580.048H580.946H582.943H584.042H585.839H587.037H588.735H589.933H591.531H592.729H594.327H595.525H597.122H598.321H599.818H601.117H602.515H603.813H605.21H606.409H607.907H609.105H611.701H613.099H654.538H655.536H658.232H659.33H661.827H662.825H665.122H666.22L672.012 131.851H673.11H674.109H675.007H675.906H676.805H677.304H678.103H678.901H679.401H680.1H680.899H681.598H682.297H682.995H683.694H684.294H684.893L685.492 132.45C686.72 133.559 687.825 134.798 688.787 136.145V136.145C688.787 135.146 688.088 134.148 687.689 133.149C683.295 116.973 638.861 112.679 574.256 124.162Z" fill="#A08C9C"/>
<path opacity="0.64" d="M643.153 252.971C588.434 301.799 509.151 352.824 419.684 396.559C330.216 440.294 241.148 472.147 169.254 485.128C94.864 498.908 47.1346 491.818 31.0583 465.158C31.4118 466.189 31.8458 467.19 32.3564 468.153C46.7352 498.109 95.1636 505.698 172.15 491.419C244.243 477.639 333.212 446.186 422.579 402.251C511.947 358.315 591.33 307.491 646.049 258.763C704.463 206.64 727.828 163.504 713.35 134.047L711.852 131.151C723.335 160.608 699.77 202.546 643.153 252.971Z" fill="#A08C9C"/>
</g>
<path opacity="0.3" d="M257.825 448.683C228.641 458.424 198.856 466.262 168.657 472.149C103.953 484.131 59.5184 479.338 49.8327 459.467C40.147 439.597 63.5125 401.553 112.64 357.718C117.133 353.724 107.547 349.53 97.0629 351.627C91.2714 352.725 86.0791 358.417 80.6871 361.113C36.2528 405.248 19.5774 441.893 32.3585 467.955C46.7373 497.911 95.1657 505.499 172.152 491.22C201.99 485.572 231.439 478.035 260.321 468.654C246.142 465.558 249.138 454.774 249.138 454.774L257.825 448.683Z" fill="#51183E"/>
<path d="M573.556 110.784C556.082 114.079 537.509 118.372 518.238 123.665L519.436 124.963C551.788 117.673 609.303 105.991 640.856 108.187C686.888 111.383 708.456 126.361 706.36 154.219C704.263 182.078 673.808 211.834 673.808 211.834C685.881 202.199 695.587 189.927 702.181 175.959C708.776 161.991 712.084 146.698 711.851 131.253C695.675 104.094 648.046 97.1039 573.556 110.784Z" fill="white"/>
<path d="M234.356 460.466C234.356 460.466 302.755 438.199 348.288 421.324C386.852 405.599 424.432 387.559 460.822 367.304C460.822 367.304 392.123 425.618 234.356 460.466Z" fill="white"/>
<path opacity="0.22" d="M172.148 490.92C191.519 487.326 212.089 482.433 233.756 476.342C221.129 470.703 207.611 467.323 193.816 466.357C185.029 468.354 176.541 470.151 168.353 471.649C103.649 483.631 59.2146 478.838 49.5289 458.968C39.8432 439.097 63.2087 401.053 112.336 357.218C127.414 343.838 144.488 330.158 163.161 316.478C160.864 309.988 158.368 303.497 156.271 297.506C136.524 311.582 117.526 326.68 99.3552 342.739C41.4408 395.062 17.8757 438.198 32.3543 467.655C46.8329 497.111 95.1614 505.199 172.148 490.92Z" fill="#51183E"/>
<g style="mix-blend-mode:screen" opacity="0.94">
<path d="M555.781 95.1061C468.41 9.03342 361.968 -24.7167 318.133 19.3182C274.297 63.3531 309.645 169.097 397.116 255.169C484.586 341.242 590.929 374.992 634.764 330.957C678.6 286.923 643.252 181.179 555.781 95.1061Z" fill="url(#paint22_radial_693_233)"/>
</g>
<g style="mix-blend-mode:screen" opacity="0.75">
<path d="M755.583 129.054C758.779 108.185 710.949 83.5215 648.841 73.8358C586.733 64.1501 533.811 73.2367 530.616 93.8063C527.421 114.376 575.15 139.439 637.258 149.025C699.367 158.61 752.388 149.923 755.583 129.054Z" fill="url(#paint23_radial_693_233)"/>
</g>
<g style="mix-blend-mode:screen" opacity="0.94">
<path d="M667.618 82.7253C649.345 92.7105 680 120.969 696.975 152.622C713.95 184.275 710.954 206.942 729.127 197.056C747.3 187.171 748.499 153.521 731.424 122.067C714.349 90.6136 685.891 72.74 667.618 82.7253Z" fill="url(#paint24_radial_693_233)"/>
</g>
<g style="mix-blend-mode:screen" opacity="0.69">
<path d="M22.7687 413.734C2.79827 420.224 -5.48948 448.283 3.79679 476.441C13.0831 504.599 36.4485 522.074 56.2193 515.683C75.99 509.292 84.3776 481.134 75.1912 452.976C66.0048 424.817 42.4397 407.243 22.7687 413.734Z" fill="url(#paint25_radial_693_233)"/>
</g>
<defs>
<radialGradient id="paint0_radial_693_233" cx="0" cy="0" r="1" gradientUnits="userSpaceOnUse" gradientTransform="translate(363.964 269.798) rotate(90) scale(243.409 251.899)">
<stop stop-color="#FFAFEC"/>
<stop offset="1" stop-color="#FFAFEC" stop-opacity="0"/>
</radialGradient>
<linearGradient id="paint1_linear_693_233" x1="322.858" y1="79.7632" x2="425.472" y2="493.27" gradientUnits="userSpaceOnUse">
<stop stop-color="#FFDBEF"/>
<stop offset="0.45" stop-color="#FFC8E1"/>
<stop offset="1" stop-color="#FF79A8"/>
</linearGradient>
<linearGradient id="paint2_linear_693_233" x1="251.631" y1="133.409" x2="442.591" y2="537.392" gradientUnits="userSpaceOnUse">
<stop stop-color="#FFDBEF"/>
<stop offset="0.45" stop-color="#FFC8E1"/>
<stop offset="1" stop-color="#FF79A8"/>
</linearGradient>
<linearGradient id="paint3_linear_693_233" x1="316.278" y1="75.3218" x2="406.848" y2="455.436" gradientUnits="userSpaceOnUse">
<stop stop-color="#FFDBEF"/>
<stop offset="0.45" stop-color="#FFC8E1"/>
<stop offset="1" stop-color="#FF79A8"/>
</linearGradient>
<linearGradient id="paint4_linear_693_233" x1="341.533" y1="391.975" x2="348.515" y2="440.496" gradientUnits="userSpaceOnUse">
<stop stop-color="#FFDBEF"/>
<stop offset="0.45" stop-color="#FFC8E1"/>
<stop offset="1" stop-color="#FF79A8"/>
</linearGradient>
<linearGradient id="paint5_linear_693_233" x1="321.125" y1="-15.4756" x2="453.866" y2="502.242" gradientUnits="userSpaceOnUse">
<stop stop-color="#FAFFF1"/>
<stop offset="0.51" stop-color="#FFE4E1"/>
<stop offset="1" stop-color="#FFA2BE"/>
</linearGradient>
<linearGradient id="paint6_linear_693_233" x1="288.35" y1="-7.07958" x2="421.091" y2="510.638" gradientUnits="userSpaceOnUse">
<stop stop-color="#FAFFF1"/>
<stop offset="0.51" stop-color="#FFE4E1"/>
<stop offset="1" stop-color="#FFA2BE"/>
</linearGradient>
<linearGradient id="paint7_linear_693_233" x1="310.029" y1="-12.6501" x2="442.805" y2="505.161" gradientUnits="userSpaceOnUse">
<stop stop-color="#FAFFF1"/>
<stop offset="0.51" stop-color="#FFE4E1"/>
<stop offset="1" stop-color="#FFA2BE"/>
</linearGradient>
<linearGradient id="paint8_linear_693_233" x1="368.966" y1="-27.7449" x2="501.741" y2="490.066" gradientUnits="userSpaceOnUse">
<stop stop-color="#FAFFF1"/>
<stop offset="0.51" stop-color="#FFE4E1"/>
<stop offset="1" stop-color="#FFA2BE"/>
</linearGradient>
<linearGradient id="paint9_linear_693_233" x1="340.863" y1="-20.542" x2="473.603" y2="497.175" gradientUnits="userSpaceOnUse">
<stop stop-color="#FAFFF1"/>
<stop offset="0.51" stop-color="#FFE4E1"/>
<stop offset="1" stop-color="#FFA2BE"/>
</linearGradient>
<linearGradient id="paint10_linear_693_233" x1="231.545" y1="7.43911" x2="364.32" y2="525.25" gradientUnits="userSpaceOnUse">
<stop stop-color="#FAFFF1"/>
<stop offset="0.51" stop-color="#FFE4E1"/>
<stop offset="1" stop-color="#FFA2BE"/>
</linearGradient>
<linearGradient id="paint11_linear_693_233" x1="235.838" y1="6.38186" x2="368.614" y2="524.193" gradientUnits="userSpaceOnUse">
<stop stop-color="#FAFFF1"/>
<stop offset="0.51" stop-color="#FFE4E1"/>
<stop offset="1" stop-color="#FFA2BE"/>
</linearGradient>
<linearGradient id="paint12_linear_693_233" x1="250.22" y1="2.66169" x2="382.995" y2="520.473" gradientUnits="userSpaceOnUse">
<stop stop-color="#FAFFF1"/>
<stop offset="0.51" stop-color="#FFE4E1"/>
<stop offset="1" stop-color="#FFA2BE"/>
</linearGradient>
<linearGradient id="paint13_linear_693_233" x1="415.65" y1="-39.6892" x2="548.391" y2="478.028" gradientUnits="userSpaceOnUse">
<stop stop-color="#FAFFF1"/>
<stop offset="0.51" stop-color="#FFE4E1"/>
<stop offset="1" stop-color="#FFA2BE"/>
</linearGradient>
<linearGradient id="paint14_linear_693_233" x1="199.054" y1="15.7328" x2="331.83" y2="533.544" gradientUnits="userSpaceOnUse">
<stop stop-color="#FAFFF1"/>
<stop offset="0.51" stop-color="#FFE4E1"/>
<stop offset="1" stop-color="#FFA2BE"/>
</linearGradient>
<linearGradient id="paint15_linear_693_233" x1="324.818" y1="-16.4188" x2="457.559" y2="501.299" gradientUnits="userSpaceOnUse">
<stop stop-color="#FAFFF1"/>
<stop offset="0.51" stop-color="#FFE4E1"/>
<stop offset="1" stop-color="#FFA2BE"/>
</linearGradient>
<linearGradient id="paint16_linear_693_233" x1="353.991" y1="-23.9076" x2="486.731" y2="493.81" gradientUnits="userSpaceOnUse">
<stop stop-color="#FAFFF1"/>
<stop offset="0.51" stop-color="#FFE4E1"/>
<stop offset="1" stop-color="#FFA2BE"/>
</linearGradient>
<linearGradient id="paint17_linear_693_233" x1="431.563" y1="-43.8722" x2="564.432" y2="473.904" gradientUnits="userSpaceOnUse">
<stop stop-color="#FAFFF1"/>
<stop offset="0.51" stop-color="#FFE4E1"/>
<stop offset="1" stop-color="#FFA2BE"/>
</linearGradient>
<linearGradient id="paint18_linear_693_233" x1="145.29" y1="29.5504" x2="278.065" y2="547.361" gradientUnits="userSpaceOnUse">
<stop stop-color="#FAFFF1"/>
<stop offset="0.51" stop-color="#FFE4E1"/>
<stop offset="1" stop-color="#FFA2BE"/>
</linearGradient>
<linearGradient id="paint19_linear_693_233" x1="223.682" y1="9.49443" x2="356.423" y2="527.212" gradientUnits="userSpaceOnUse">
<stop stop-color="#FAFFF1"/>
<stop offset="0.51" stop-color="#FFE4E1"/>
<stop offset="1" stop-color="#FFA2BE"/>
</linearGradient>
<linearGradient id="paint20_linear_693_233" x1="235.689" y1="79.3661" x2="315.55" y2="397.433" gradientUnits="userSpaceOnUse">
<stop stop-color="#FFDBEF"/>
<stop offset="0.45" stop-color="#FFC8E1"/>
<stop offset="1" stop-color="#FF79A8"/>
</linearGradient>
<linearGradient id="paint21_linear_693_233" x1="325.404" y1="56.8267" x2="405.334" y2="375.081" gradientUnits="userSpaceOnUse">
<stop stop-color="#FFDBEF"/>
<stop offset="0.45" stop-color="#FFC8E1"/>
<stop offset="1" stop-color="#FF79A8"/>
</linearGradient>
<radialGradient id="paint22_radial_693_233" cx="0" cy="0" r="1" gradientUnits="userSpaceOnUse" gradientTransform="translate(476.448 175.138) rotate(88.0324) scale(126.539 127.982)">
<stop stop-color="#FFAFEC"/>
<stop offset="1" stop-color="#FFAFEC" stop-opacity="0"/>
</radialGradient>
<radialGradient id="paint23_radial_693_233" cx="0" cy="0" r="1" gradientUnits="userSpaceOnUse" gradientTransform="translate(643.1 111.433) rotate(90) scale(41.4809 112.635)">
<stop stop-color="#FFAFEC"/>
<stop offset="1" stop-color="#FFAFEC" stop-opacity="0"/>
</radialGradient>
<radialGradient id="paint24_radial_693_233" cx="0" cy="0" r="1" gradientUnits="userSpaceOnUse" gradientTransform="translate(702.76 139.675) rotate(90) scale(59.7226 40.7657)">
<stop stop-color="#FFAFEC"/>
<stop offset="1" stop-color="#FFAFEC" stop-opacity="0"/>
</radialGradient>
<radialGradient id="paint25_radial_693_233" cx="0" cy="0" r="1" gradientUnits="userSpaceOnUse" gradientTransform="translate(39.4558 464.693) rotate(90) scale(52.3071 39.4558)">
<stop stop-color="#FFAFEC"/>
<stop offset="1" stop-color="#FFAFEC" stop-opacity="0"/>
</radialGradient>
</defs>
</svg>
