<svg width="760" height="520" viewBox="0 0 760 520" fill="none" xmlns="http://www.w3.org/2000/svg">
<g clip-path="url(#clip0_693_233)">
<path opacity="0.26" d="M544.014 190.105C544.014 190.105 638.421 250.713 657.966 353.306C657.966 353.306 647.835 282.493 544.014 190.105Z" fill="url(#paint0_linear_693_233)"/>
<path d="M242.235 73.8146C240.603 76.3228 238.264 78.2918 235.512 79.4729C232.76 80.654 229.719 80.9943 226.774 80.4507C223.829 79.907 221.111 78.504 218.964 76.4187C216.817 74.3334 215.337 71.6595 214.711 68.7347C214.085 65.8099 214.341 62.7655 215.447 59.9861C216.553 57.2067 218.46 54.817 220.925 53.1189C223.391 51.4208 226.305 50.4905 229.3 50.4456C232.295 50.4006 235.236 51.2429 237.752 52.8662C239.435 53.938 240.888 55.3331 242.026 56.9705C243.164 58.6078 243.965 60.4548 244.382 62.404C244.799 64.3532 244.824 66.3657 244.456 68.3246C244.087 70.2835 243.332 72.1496 242.235 73.8146V73.8146Z" fill="url(#paint1_linear_693_233)"/>
<path style="mix-blend-mode:screen" opacity="0.77" d="M223.138 64.4148C220.179 67.7272 218.207 71.9348 216.145 72.651C217.329 74.9704 219.128 76.9211 221.345 78.2909C223.587 79.7684 226.192 80.6044 228.876 80.708C227.396 80.1098 226.12 79.1001 225.198 77.7988C224.276 76.4975 223.748 74.9594 223.676 73.3671C224.214 66.6529 226.545 62.9825 232.641 64.4148C238.738 65.8472 240.262 66.5634 241.607 62.8929C241.65 62.5663 241.769 62.254 241.952 61.9802C242.136 61.7064 242.38 61.4785 242.666 61.3141C242.952 61.1497 243.272 61.0531 243.602 61.032C243.931 61.0108 244.261 61.0655 244.566 61.192C243.557 57.6749 241.293 54.649 238.2 52.6873C236.423 51.5675 234.443 50.8071 232.372 50.4492C234.253 50.9755 235.868 52.1872 236.897 53.8448C237.926 55.5024 238.295 57.4854 237.931 59.4015C235.959 67.4586 227.71 59.312 223.138 64.4148Z" fill="url(#paint2_linear_693_233)"/>
<path style="mix-blend-mode:screen" d="M240.89 56.895C239.486 55.0259 237.606 53.5668 235.446 52.6693C233.286 51.7719 230.924 51.469 228.607 51.7922C221.703 53.7617 234.972 56.895 235.6 61.8188C236.228 66.7425 233.717 70.7711 235.6 74.0834C237.483 77.3958 238.738 77.9329 241.607 73.5463C243.18 71.0212 243.953 68.0809 243.825 65.11C243.697 62.1391 242.674 59.2759 240.89 56.895V56.895Z" fill="url(#paint3_linear_693_233)"/>
<path style="mix-blend-mode:multiply" opacity="0.63" d="M217.759 58.3272C216.796 59.8056 216.136 61.4601 215.817 63.1948C215.499 64.9295 215.528 66.7101 215.903 68.4335C216.279 70.1568 216.992 71.7888 218.003 73.235C219.014 74.6811 220.302 75.9127 221.793 76.8585C223.23 77.809 224.842 78.4648 226.535 78.7875C228.228 79.1103 229.969 79.0936 231.655 78.7385C226.724 77.7537 225.469 74.7099 225.29 69.7862C225.11 64.8624 227.531 58.6853 225.29 57.2529C224.027 56.9098 222.708 56.828 221.413 57.0128C220.118 57.1975 218.874 57.6448 217.759 58.3272V58.3272Z" fill="url(#paint4_linear_693_233)"/>
<path d="M238.559 54.5674C238.559 54.5674 236.048 52.9559 237.752 55.8207C239.455 58.6854 241.517 64.773 243.041 64.2359C244.566 63.6987 242.324 56.8054 238.559 54.5674Z" fill="white"/>
<path d="M242.593 66.2949C242.593 66.2949 241.786 66.2949 241.517 68.354C241.248 70.413 239.634 74.7101 241.517 72.8301C243.4 70.9501 243.31 67.2797 242.593 66.2949Z" fill="white"/>
<path opacity="0.23" d="M242.235 73.8146C240.603 76.3228 238.264 78.2918 235.512 79.4729C232.76 80.654 229.719 80.9943 226.774 80.4507C223.829 79.907 221.111 78.504 218.964 76.4187C216.817 74.3334 215.337 71.6595 214.711 68.7347C214.085 65.8099 214.341 62.7655 215.447 59.9861C216.553 57.2067 218.46 54.817 220.925 53.1189C223.391 51.4208 226.305 50.4905 229.3 50.4456C232.295 50.4006 235.236 51.2429 237.752 52.8662C239.435 53.938 240.888 55.3331 242.026 56.9705C243.164 58.6078 243.965 60.4548 244.382 62.404C244.799 64.3532 244.824 66.3657 244.456 68.3246C244.087 70.2835 243.332 72.1496 242.235 73.8146V73.8146Z" fill="#401547"/>
<path d="M359.862 303.531L316.648 285.626L235.959 485.084C235.547 485.481 235.239 485.973 235.062 486.516C233.179 491.619 241.517 499.318 253.71 503.705C265.904 508.091 277.2 507.554 279.083 502.451L359.862 303.531Z" fill="#FBCFFF"/>
<path d="M357.8 302.815L316.379 285.984L314.497 290.55L323.462 356.35C323.462 356.35 282.759 463.24 261.779 506.48C270.745 508.002 277.2 506.48 278.634 502.899L359.324 304.695L357.8 302.815Z" fill="url(#paint5_linear_693_233)"/>
<path style="mix-blend-mode:multiply" opacity="0.94" d="M316.379 285.984L270.207 399.231C274.69 403.797 286.883 427.968 305.173 427.968H308.759L359.862 303.531L316.379 285.984Z" fill="url(#paint6_linear_693_233)"/>
<path opacity="0.16" d="M577.545 144.001C574.22 123.448 567.041 103.706 556.386 85.8108C542.131 61.55 511.559 74.2623 485.559 41.0492C459.559 7.83614 379.048 10.6114 353.138 22.1598C327.228 33.7083 272.448 37.1997 242.772 57.9691C213.097 78.7385 216.772 103.178 197.945 166.829C179.117 230.48 171.586 266.2 194.897 288.76C218.207 311.32 233.807 303.173 248.062 334.327C262.317 365.481 294.952 364.407 331.621 389.921C368.29 415.435 401.552 372.553 403.883 420.001C406.214 467.448 400.924 489.65 416.883 486.516C434.814 483.114 410.966 445.425 416.883 418.837C422.8 392.248 451.221 385.355 459.559 393.412C467.897 401.469 470.228 411.854 476.414 398.067C482.6 384.281 475.786 365.033 497.124 350.083C518.462 335.133 527.159 332.178 524.917 373.717C524.2 387.414 521.421 439.427 537.379 423.761C553.338 408.094 530.566 385.713 538.814 346.413C547.062 307.112 579.786 290.013 588.752 226.989C593.623 198.833 589.711 169.863 577.545 144.001V144.001Z" fill="#FBCFFF"/>
<path opacity="0.21" d="M289.214 24.1294C289.214 24.1294 241.428 43.4664 231.207 66.2053C220.986 88.9442 217.579 107.028 200.545 137.824C183.51 168.62 160.738 194.581 174.366 243.372C187.993 292.162 193.731 276.316 211.931 311.499C230.131 346.681 233.986 371.3 272.179 386.34C310.372 401.38 327.855 404.245 327.855 422.149C327.855 440.054 316.559 507.286 332.428 514.089C348.297 520.893 339.241 449.364 339.241 435.757C339.241 422.149 333.593 416.42 354.035 422.149C369.82 427.86 387.111 427.86 402.897 422.149C416.614 416.42 430.779 411.317 437.055 417.584C443.331 423.85 431.586 443.187 445.035 447.663C458.483 452.139 455.255 429.759 457.497 418.21C459.738 406.662 472.379 403.439 489.324 392.069C506.269 380.7 491.297 378.104 524.379 350.441C569.207 312.841 586.6 295.026 590.007 260.918C593.414 226.81 579.159 192.164 584.897 168.351C590.635 144.538 568.938 99.0603 542.221 72.3824C515.504 45.7045 503.31 26.9046 455.255 13.9238C407.2 0.942923 373.4 17.3257 348.386 11.6857C323.372 6.04574 289.214 24.1294 289.214 24.1294Z" fill="#FBCFFF"/>
<path style="mix-blend-mode:screen" opacity="0.75" d="M528.414 341.131C489.773 436.383 378.869 481.414 280.697 441.665C182.524 401.917 134.29 292.52 172.931 196.999C211.573 101.477 322.566 56.8948 420.738 96.6431C518.91 136.391 567.145 245.789 528.414 341.131Z" fill="url(#paint7_radial_693_233)"/>
<path d="M575.035 211.949C575.034 249.261 563.947 285.733 543.176 316.75C522.405 347.766 492.884 371.93 458.352 386.184C423.819 400.438 385.828 404.14 349.187 396.822C312.546 389.504 278.903 371.494 252.519 345.073C226.134 318.652 208.194 285.008 200.97 248.4C193.745 211.793 197.561 173.868 211.934 139.427C226.308 104.986 250.592 75.5778 281.713 54.9259C312.834 34.2741 349.392 23.3071 386.759 23.4134C436.742 23.5556 484.629 43.4818 519.923 78.8237C555.216 114.166 575.035 162.039 575.035 211.949V211.949Z" fill="url(#paint8_radial_693_233)"/>
<g opacity="0.57">
<g style="mix-blend-mode:overlay" opacity="0.57">
<path d="M519.09 77.9328C533.435 104.79 537.021 141.763 508.331 163.338C489.504 177.662 464.042 175.871 443.959 167.725C455.135 168.339 466.187 165.124 475.285 158.612C484.382 152.1 490.98 142.682 493.986 131.915C498.064 116.226 498.037 99.754 493.908 84.0782C489.779 68.4023 481.687 54.0483 470.407 42.3922C463.82 38.9805 457.022 35.9903 450.055 33.4399C469.331 60.5654 485.379 90.4661 479.642 126.365C475.697 146.149 463.862 162.711 443.779 159.13C454.448 149.641 455.166 138.45 454.359 124.664C453.104 81.6033 425.669 45.3464 389.717 23.5028C378.007 23.2911 366.302 24.1602 354.752 26.099C405.407 48.3007 461.083 105.595 433.917 156.355C427.641 102.641 378.69 65.5787 327.586 57.8797C317.082 55.7981 306.37 54.9568 295.669 55.373C288.981 55.6448 282.354 56.7577 275.945 58.6854C267.765 64.5435 260.088 71.0714 252.993 78.2014C251.828 79.2757 250.841 80.4395 249.766 81.5138C259.419 77.3572 269.531 74.3524 279.89 72.5615C292.046 70.6245 304.405 70.2934 316.648 71.5767C365.6 76.59 413.028 107.386 428.09 155.549C413.213 136.714 394.088 121.658 372.275 111.607C350.462 101.557 326.578 96.7976 302.573 97.7175C292.064 98.0764 281.6 99.2739 271.283 101.298C252.628 104.599 234.951 112.032 219.552 123.053C216.164 129.521 213.171 136.188 210.586 143.016C229.404 133.416 249.471 126.486 270.207 122.426C283.421 119.65 296.871 118.151 310.373 117.95C351.217 116.716 390.935 131.423 421.097 158.951C396.085 144.602 367.527 137.589 338.704 138.719C324.446 139.133 310.294 141.298 296.566 145.165C258.099 155.903 223.744 177.921 197.945 208.368C197.763 219.727 198.573 231.079 200.366 242.297L201.441 240.865C208.025 231.563 215.437 222.874 223.586 214.903C240.528 198.613 259.769 184.889 280.697 174.17C291.114 168.903 301.974 164.559 313.152 161.189C347.121 150.268 383.758 150.897 417.331 162.98C385.097 161.479 353.002 168.098 324 182.227C314.599 187.044 305.604 192.613 297.104 198.879C280.26 211.272 265.622 226.403 253.8 243.64C247.202 254.219 242.046 265.63 238.469 277.569C235.369 287.482 233.767 297.801 233.717 308.186C233.676 314.227 234.429 320.247 235.959 326.091C241.111 332.9 246.743 339.332 252.814 345.338L256.131 348.651C253.743 340.454 252.624 331.94 252.814 323.405C253.149 311.302 255.544 299.344 259.897 288.044C263.899 277.426 268.944 267.23 274.959 257.606C285.433 241.008 298.167 225.943 312.793 212.844C341.997 185.465 380.329 169.868 420.379 169.067C385.602 182.182 355.283 204.912 332.966 234.598C325.695 244.149 319.304 254.337 313.869 265.036C309.608 273.253 305.981 281.782 303.021 290.55C298.526 303.385 295.518 316.691 294.055 330.209C292.486 343.724 292.667 357.384 294.593 370.853C294.778 373.157 295.198 375.437 295.848 377.656C303.662 381.924 311.783 385.605 320.145 388.668C319.129 383.728 318.381 378.737 317.904 373.717C316.962 363.115 316.962 352.45 317.904 341.847C318.607 330.94 320.317 320.122 323.014 309.529C325.696 298.913 329.296 288.549 333.773 278.554C338.566 268.175 344.047 258.126 350.179 248.474C369.184 218.977 394.356 193.935 423.966 175.065C401.731 208.637 380.035 243.819 370.173 283.388C367.728 292.491 365.812 301.728 364.435 311.051C363.132 320.394 362.502 329.818 362.552 339.251C362.743 352.524 365.324 365.654 370.173 378.014C373.439 386.053 377.782 393.612 383.083 400.485C397.537 400.726 411.972 399.345 426.117 396.367C411.599 382.493 401.576 364.595 397.338 344.98C394.217 331.697 392.83 318.065 393.214 304.426C393.659 293.867 394.736 283.345 396.442 272.914C402.94 240.271 414.817 208.931 431.586 180.168C428.717 230.57 419.931 285.716 446.828 330.119C455.707 343.755 468.851 354.078 484.214 359.483C490.267 361.632 496.827 361.913 503.042 360.289C508.987 355.619 514.645 350.597 519.986 345.249C522.407 342.832 524.828 340.325 527.069 337.818C517.789 341.654 507.471 342.191 497.842 339.34C485.059 335.425 473.932 327.399 466.193 316.512C437.324 277.569 443.69 225.556 437.862 179.094C455.345 223.856 470.317 277.569 518.552 297.712C524.477 299.857 530.771 300.803 537.067 300.496C543.362 300.189 549.533 298.634 555.221 295.922C559.275 287.894 562.721 279.575 565.531 271.034C506.807 291.087 460.097 226.81 443.062 177.304C469.51 214.903 520.076 259.128 567.773 223.856C570.437 221.998 572.874 219.834 575.035 217.41C575.382 205.424 574.571 193.432 572.614 181.601C566.335 195.167 555.483 206.099 541.952 212.486C503.4 228.421 470.228 197.894 446.648 173.006C467.179 189.926 499.545 194.94 521.959 175.871C531.769 167.078 538.806 155.626 542.212 142.909C545.619 130.193 545.248 116.762 541.145 104.253C534.765 95.2184 527.627 86.7428 519.807 78.9176L519.09 77.9328Z" fill="#FBCFFF"/>
</g>
</g>
<path style="mix-blend-mode:screen" opacity="0.73" d="M388.193 30.9332C388.193 30.9332 286.973 35.857 257.297 99.2394C228.428 161.189 368.828 119.561 413.655 124.037C458.483 128.513 503.31 186.703 531.283 206.399C559.255 226.094 571.179 169.336 547.779 129.767C524.379 90.1975 474.621 27.5313 388.193 30.9332Z" fill="url(#paint9_linear_693_233)"/>
<path d="M424.504 40.0645C424.504 40.0645 399.49 49.0168 423.428 62.7138C447.366 76.4108 481.973 105.327 496.228 91.1822C510.483 77.0375 459.828 40.0645 424.504 40.0645Z" fill="white"/>
<path d="M509.855 100.224C509.855 100.224 500.89 103.447 513.262 116.159C525.635 128.872 522.317 100.224 509.855 100.224Z" fill="white"/>
<path style="mix-blend-mode:multiply" opacity="0.63" d="M243.31 106.401C226.755 128.382 215.506 153.883 210.442 180.917C205.378 207.951 206.636 235.788 214.116 262.257C221.596 288.727 235.098 313.113 253.568 333.516C272.038 353.919 294.977 369.787 320.598 379.883C346.219 389.979 373.829 394.03 401.275 391.721C428.721 389.411 455.263 380.803 478.83 366.569C502.397 352.334 522.354 332.856 537.144 309.655C551.934 286.453 561.158 260.154 564.097 232.808C549.214 272.109 516.041 268.617 464.49 244.715C401.731 215.62 321.759 292.609 269.759 240.597C231.924 202.818 237.572 138.63 243.31 106.401Z" fill="url(#paint10_linear_693_233)"/>
<path style="mix-blend-mode:screen" opacity="0.58" d="M386.759 400.485C419.802 400.533 452.276 391.897 480.919 375.444C509.561 358.991 533.362 335.301 549.931 306.754C503.848 340.236 440.552 382.401 410.069 327.971C359.862 237.642 367.393 217.947 425.579 188.583C483.766 159.22 495.421 141.852 501.876 110.43C505.193 94.3156 512.276 85.1842 523.841 82.8566C499.365 56.7594 467.943 38.1729 433.261 29.2774C398.58 20.382 362.077 21.5464 328.035 32.6341C372.862 34.3351 435.083 47.0473 447.724 103.715C454.538 134.243 444.138 151.789 428 164.949C396.71 190.553 343.635 199.416 352.69 253.935C362.283 311.141 348.297 364.228 324.717 390.189C344.665 397.102 365.644 400.583 386.759 400.485V400.485Z" fill="url(#paint11_linear_693_233)"/>
<path style="mix-blend-mode:screen" opacity="0.6" d="M387.207 398.336C380.393 414.987 336.462 413.018 289.124 393.86C241.786 374.702 208.883 345.607 215.607 328.866C222.331 312.125 266.352 314.184 313.69 333.342C361.028 352.5 393.931 381.595 387.207 398.336Z" fill="url(#paint12_radial_693_233)"/>
<path style="mix-blend-mode:screen" opacity="0.99" d="M555.759 199.774C533.793 253.935 459.2 274.884 389.269 246.505C319.338 218.126 280.338 151.342 302.393 97.1802C324.448 43.0187 398.862 22.1598 468.883 50.4491C538.903 78.7385 577.724 145.612 555.759 199.774Z" fill="url(#paint13_radial_693_233)"/>
<path opacity="0.74" d="M270.207 419.553C270.207 419.553 236.228 490.097 250.304 477.117C264.379 464.136 278.366 415.883 270.207 419.553Z" fill="white"/>
<path opacity="0.24" d="M294.324 421.344C147.2 349.188 58.6208 220.275 100.4 135.138C118.421 98.5232 162.621 76.5005 214.89 68.8015C214.343 67.469 214.098 66.0322 214.172 64.594C214.264 63.3171 214.505 62.0552 214.89 60.834C156.883 67.3692 111.428 91.7195 90.8966 133.079C48.1311 220.275 133.662 349.725 281.952 422.239C355.379 458.048 430.421 473.357 492.731 468.97C423.857 468.138 356.051 451.862 294.324 421.344V421.344Z" fill="url(#paint14_linear_693_233)"/>
<path opacity="0.39" d="M243.31 59.6702C244.446 61.5526 244.949 63.7486 244.745 65.9368C252.904 65.9368 261.152 65.4892 269.579 65.9368C272.524 63.6876 276.095 62.4053 279.8 62.2663L280.607 61.013C268.219 59.6991 255.768 59.0715 243.31 59.133V59.6702Z" fill="url(#paint15_linear_693_233)"/>
<path d="M164.862 94.6737C164.826 100.485 163.065 106.155 159.8 110.966C156.535 115.776 151.914 119.512 146.522 121.699C141.13 123.885 135.209 124.426 129.51 123.251C123.81 122.075 118.588 119.238 114.504 115.098C110.42 110.957 107.659 105.7 106.569 99.9912C105.479 94.2827 106.11 88.3797 108.383 83.0296C110.655 77.6794 114.466 73.1228 119.333 69.9367C124.2 66.7505 129.905 65.0781 135.724 65.1311C139.582 65.1545 143.397 65.9379 146.951 67.4363C150.505 68.9348 153.727 71.1189 156.434 73.8634C159.141 76.6078 161.279 79.8588 162.725 83.4299C164.171 87.0009 164.898 90.8219 164.862 94.6737V94.6737Z" fill="url(#paint16_linear_693_233)"/>
<path style="mix-blend-mode:screen" opacity="0.77" d="M123.8 99.0604C122.366 107.476 123.8 116.428 120.841 119.74C125.196 122.282 130.142 123.64 135.186 123.679C140.371 123.725 145.476 122.397 149.979 119.83C146.968 120.356 143.868 120.002 141.052 118.811C138.237 117.62 135.827 115.642 134.11 113.116C127.924 101.478 128.014 93.1519 139.4 89.75C150.786 86.3482 153.655 85.4529 151.952 78.2911C151.715 77.7182 151.607 77.1001 151.637 76.481C151.667 75.8618 151.833 75.2569 152.125 74.7095C152.416 74.1621 152.825 73.6857 153.322 73.3144C153.819 72.9431 154.392 72.686 155 72.5616C150.843 68.8672 145.721 66.4266 140.23 65.5233C134.739 64.6201 129.104 65.2912 123.979 67.4588C127.548 66.4937 131.347 66.8727 134.653 68.5235C137.96 70.1743 140.543 72.9817 141.91 76.4111C148.007 90.7348 126.041 86.0796 123.8 99.0604Z" fill="url(#paint17_linear_693_233)"/>
<path style="mix-blend-mode:screen" d="M145.228 68.4434C145.228 68.4434 129.179 62.7139 119.855 72.83C110.531 82.9461 135.455 74.6205 141.641 81.7823C147.828 88.9442 147.738 98.5231 154.552 101.836C161.366 105.148 163.517 104.969 163.517 94.7632C163.454 89.053 161.677 83.4931 158.417 78.8013C155.156 74.1096 150.562 70.5017 145.228 68.4434Z" fill="url(#paint18_linear_693_233)"/>
<path style="mix-blend-mode:multiply" opacity="0.63" d="M108.828 94.5839C108.749 99.6778 110.178 104.681 112.936 108.968C115.693 113.254 119.657 116.631 124.329 118.677C129.002 120.723 134.175 121.346 139.201 120.468C144.226 119.59 148.88 117.25 152.579 113.742C143.614 117.233 138.324 113.742 133.214 106.132C128.104 98.523 125.414 85.6316 119.586 85.9897C115.193 86.3478 110.8 91.8087 108.828 94.5839Z" fill="url(#paint19_linear_693_233)"/>
<path d="M138.862 67.011C138.862 67.011 133.214 67.011 138.862 69.9652C144.51 72.9195 154.821 81.4242 156.255 78.2909C157.69 75.1576 147.379 66.9215 138.862 67.011Z" fill="white"/>
<path d="M157.69 82.0508C157.69 82.0508 156.255 82.8565 157.69 86.5269C159.124 90.1974 161.366 98.8811 162.172 94.1364C162.979 89.3917 160.469 82.5879 157.69 82.0508Z" fill="white"/>
<path d="M104.793 178.199C102.417 181.869 99.0043 184.753 94.9872 186.487C90.9701 188.222 86.5284 188.729 82.2229 187.944C77.9174 187.16 73.9412 185.119 70.7965 182.08C67.6517 179.041 65.4794 175.139 64.5539 170.868C63.6283 166.596 63.991 162.147 65.5962 158.081C67.2013 154.016 69.977 150.516 73.5726 148.025C77.1682 145.533 81.4226 144.162 85.7984 144.083C90.1743 144.004 94.4754 145.222 98.1587 147.582C100.621 149.146 102.748 151.182 104.416 153.572C106.085 155.962 107.261 158.659 107.879 161.507C108.496 164.355 108.541 167.296 108.011 170.162C107.481 173.027 106.388 175.759 104.793 178.199V178.199Z" fill="url(#paint20_linear_693_233)"/>
<path style="mix-blend-mode:screen" opacity="0.77" d="M76.8208 164.502C72.9656 169.246 69.6484 175.513 66.6001 176.498C68.3378 179.911 70.9719 182.789 74.2208 184.824C77.5292 186.818 81.2961 187.928 85.1587 188.046C83.025 187.171 81.1887 185.701 79.8692 183.812C78.5496 181.923 77.8026 179.695 77.7173 177.393C78.4346 167.725 81.9311 162.443 90.8967 164.77C99.8622 167.098 102.014 167.904 103.628 162.532C103.707 162.074 103.884 161.638 104.148 161.254C104.412 160.87 104.756 160.548 105.157 160.31C105.557 160.072 106.004 159.923 106.468 159.874C106.931 159.825 107.4 159.877 107.841 160.026C106.442 154.939 103.26 150.524 98.876 147.582C96.3107 145.938 93.4474 144.813 90.4484 144.27C93.1496 145.045 95.4682 146.791 96.9579 149.171C98.4475 151.551 99.003 154.397 98.5173 157.161C95.6484 168.888 83.4553 157.071 76.8208 164.502Z" fill="url(#paint21_linear_693_233)"/>
<path style="mix-blend-mode:screen" d="M102.91 153.49C100.86 150.764 98.1147 148.637 94.961 147.33C91.8074 146.023 88.3605 145.584 84.9794 146.06C74.938 148.924 93.9449 153.49 95.2001 160.741C96.4552 167.993 92.3311 173.901 95.2001 178.646C98.069 183.391 99.7725 184.197 104.166 177.751C106.444 174.057 107.545 169.758 107.321 165.425C107.096 161.092 105.558 156.93 102.91 153.49V153.49Z" fill="url(#paint22_linear_693_233)"/>
<path style="mix-blend-mode:multiply" opacity="0.63" d="M68.9311 155.549C66.2375 159.919 65.3489 165.162 66.4529 170.172C67.5569 175.183 70.5671 179.57 74.8483 182.406C79.1202 185.159 84.3048 186.124 89.2828 185.092C82.0208 183.66 80.3173 179.184 80.3173 172.469C80.3173 165.755 83.5449 156.176 79.6897 154.117C76.0523 153.198 72.2002 153.711 68.9311 155.549V155.549Z" fill="url(#paint23_linear_693_233)"/>
<path d="M99.8621 149.999C99.8621 149.999 96.1862 147.761 98.6069 151.879C101.028 155.997 104.255 165.665 106.407 164.322C108.559 162.98 104.883 153.401 99.8621 149.999Z" fill="white"/>
<path d="M105.331 167.188C105.331 167.188 104.076 167.187 103.717 170.142C103.359 173.096 101.028 179.542 103.717 176.856C106.407 174.17 106.945 168.709 105.331 167.188Z" fill="white"/>
<path opacity="0.17" d="M552.621 469.238C552.621 469.238 672.131 475.415 660.207 369.599C659.759 369.599 686.924 479.086 552.621 469.238Z" fill="url(#paint24_linear_693_233)"/>
<path d="M589.021 461.719C588.985 466.467 587.539 471.099 584.865 475.026C582.191 478.954 578.41 482 574.001 483.781C569.592 485.561 564.753 485.995 560.097 485.027C555.441 484.059 551.177 481.733 547.846 478.344C544.514 474.955 542.265 470.654 541.383 465.988C540.501 461.321 541.026 456.498 542.891 452.13C544.756 447.761 547.877 444.044 551.86 441.448C555.842 438.852 560.506 437.494 565.262 437.547C571.619 437.618 577.689 440.202 582.142 444.732C586.595 449.263 589.069 455.371 589.021 461.719V461.719Z" fill="url(#paint25_linear_693_233)"/>
<path style="mix-blend-mode:screen" opacity="0.77" d="M555.49 465.568C554.324 472.461 555.49 479.802 553.069 482.488C556.706 484.543 560.814 485.624 564.993 485.624C569.172 485.624 573.28 484.543 576.917 482.488C574.44 482.953 571.88 482.684 569.554 481.714C567.228 480.743 565.237 479.114 563.828 477.027C558.807 467.538 558.897 460.734 568.131 457.959C577.366 455.183 580.145 454.467 578.442 449.006C578.262 448.538 578.186 448.036 578.218 447.535C578.251 447.034 578.391 446.546 578.629 446.105C578.867 445.663 579.198 445.278 579.599 444.975C580 444.672 580.461 444.46 580.952 444.351C576.641 440.478 571.061 438.313 565.262 438.263C561.941 438.237 558.649 438.877 555.579 440.143C558.508 439.276 561.655 439.528 564.407 440.853C567.159 442.177 569.318 444.477 570.462 447.305C575.035 458.496 557.104 454.646 555.49 465.568Z" fill="url(#paint26_linear_693_233)"/>
<path style="mix-blend-mode:screen" d="M572.972 440.323C569.524 438.998 565.782 438.624 562.139 439.238C558.495 439.852 555.084 441.433 552.262 443.814C544.641 452.229 564.993 445.336 570.193 451.334C575.393 457.332 575.214 465.031 580.772 467.538C586.331 470.044 588.124 470.044 588.303 461.719C588.22 457.021 586.709 452.46 583.971 448.639C581.233 444.818 577.398 441.918 572.972 440.323V440.323Z" fill="url(#paint27_linear_693_233)"/>
<path style="mix-blend-mode:multiply" opacity="0.63" d="M543.117 461.629C543.065 465.799 544.244 469.892 546.509 473.397C548.773 476.901 552.021 479.661 555.847 481.333C559.674 483.005 563.908 483.513 568.023 482.795C572.137 482.077 575.948 480.164 578.979 477.296C571.538 480.16 567.324 477.296 563.2 471.029C559.076 464.762 556.835 454.288 551.993 454.646C547.152 455.004 544.821 459.391 543.117 461.629Z" fill="url(#paint28_linear_693_233)"/>
<path d="M567.772 439.159C567.772 439.159 563.11 439.159 567.772 441.486C572.435 443.814 580.772 450.439 582.028 448.38C583.283 446.32 575.035 438.711 567.772 439.159Z" fill="white"/>
<path d="M583.104 451.334C583.104 451.334 581.938 452.05 583.104 455.094C584.269 458.138 586.152 465.121 586.779 461.271C587.407 457.422 585.435 451.871 583.104 451.334Z" fill="white"/>
</g>
<defs>
<linearGradient id="paint0_linear_693_233" x1="578.604" y1="280.337" x2="626.302" y2="262.02" gradientUnits="userSpaceOnUse">
<stop offset="0.11" stop-color="#66F7FF"/>
<stop offset="0.6" stop-color="#94B3FF"/>
<stop offset="1" stop-color="#FF91D5"/>
</linearGradient>
<linearGradient id="paint1_linear_693_233" x1="205.398" y1="75.3547" x2="243.786" y2="60.0805" gradientUnits="userSpaceOnUse">
<stop stop-color="#EB3DAB"/>
<stop offset="0.99" stop-color="#9EA8E3"/>
</linearGradient>
<linearGradient id="paint2_linear_693_233" x1="212.101" y1="79.3458" x2="244.612" y2="55.2924" gradientUnits="userSpaceOnUse">
<stop stop-color="#F5CC5E"/>
<stop offset="1" stop-color="#F8FF75"/>
</linearGradient>
<linearGradient id="paint3_linear_693_233" x1="231.225" y1="65.2358" x2="243.636" y2="60.8556" gradientUnits="userSpaceOnUse">
<stop stop-color="#F5FF75"/>
<stop offset="1" stop-color="#F8FFAB"/>
</linearGradient>
<linearGradient id="paint4_linear_693_233" x1="230.901" y1="66.7307" x2="213.754" y2="72.0083" gradientUnits="userSpaceOnUse">
<stop stop-color="#FF8BF4"/>
<stop offset="1" stop-color="#803D57"/>
</linearGradient>
<linearGradient id="paint5_linear_693_233" x1="257.745" y1="387.325" x2="351.503" y2="413.986" gradientUnits="userSpaceOnUse">
<stop stop-color="#FF8BF4"/>
<stop offset="1" stop-color="#803D57"/>
</linearGradient>
<linearGradient id="paint6_linear_693_233" x1="279.89" y1="450.976" x2="325.673" y2="320.767" gradientUnits="userSpaceOnUse">
<stop stop-color="#FF8BF4"/>
<stop offset="1" stop-color="#803D57"/>
</linearGradient>
<radialGradient id="paint7_radial_693_233" cx="0" cy="0" r="1" gradientUnits="userSpaceOnUse" gradientTransform="translate(345.478 265.125) rotate(22.0217) scale(192.227 185.957)">
<stop offset="0.39" stop-color="#FFDBFF"/>
<stop offset="0.66" stop-color="#E0CCEF"/>
<stop offset="0.93" stop-color="#C4BFE1" stop-opacity="0"/>
</radialGradient>
<radialGradient id="paint8_radial_693_233" cx="0" cy="0" r="1" gradientUnits="userSpaceOnUse" gradientTransform="translate(415.849 151.568) scale(272.927 272.525)">
<stop offset="0.11" stop-color="#66F7FF"/>
<stop offset="0.6" stop-color="#94B3FF"/>
<stop offset="1" stop-color="#FF91D5"/>
</radialGradient>
<linearGradient id="paint9_linear_693_233" x1="443.869" y1="16.52" x2="397.018" y2="182.353" gradientUnits="userSpaceOnUse">
<stop offset="0.07" stop-color="white"/>
<stop offset="0.16" stop-color="#F9F9FE"/>
<stop offset="0.29" stop-color="#E6EAFD"/>
<stop offset="0.44" stop-color="#C9D0FA"/>
<stop offset="0.61" stop-color="#9FACF5"/>
<stop offset="0.79" stop-color="#6A7FF0"/>
<stop offset="0.98" stop-color="#2A47EA"/>
<stop offset="1" stop-color="#2140E9"/>
</linearGradient>
<linearGradient id="paint10_linear_693_233" x1="398.504" y1="170.142" x2="327.601" y2="424.084" gradientUnits="userSpaceOnUse">
<stop stop-color="#FF8BF4"/>
<stop offset="1" stop-color="#803D57"/>
</linearGradient>
<linearGradient id="paint11_linear_693_233" x1="467.717" y1="34.5141" x2="382.695" y2="433.122" gradientUnits="userSpaceOnUse">
<stop offset="0.07" stop-color="white"/>
<stop offset="0.16" stop-color="#F9F9FE"/>
<stop offset="0.29" stop-color="#E6EAFD"/>
<stop offset="0.44" stop-color="#C9D0FA"/>
<stop offset="0.61" stop-color="#9FACF5"/>
<stop offset="0.79" stop-color="#6A7FF0"/>
<stop offset="0.98" stop-color="#2A47EA"/>
<stop offset="1" stop-color="#2140E9"/>
</linearGradient>
<radialGradient id="paint12_radial_693_233" cx="0" cy="0" r="1" gradientUnits="userSpaceOnUse" gradientTransform="translate(297.5 363) rotate(24.2417) scale(93.7683 33.5912)">
<stop offset="0.01" stop-color="#FFDBFF"/>
<stop offset="0.21" stop-color="#FFBFF8"/>
<stop offset="0.72" stop-color="#FF78E8" stop-opacity="0.44"/>
<stop offset="0.97" stop-color="#FF5CE1" stop-opacity="0"/>
</radialGradient>
<radialGradient id="paint13_radial_693_233" cx="0" cy="0" r="1" gradientUnits="userSpaceOnUse" gradientTransform="translate(421.642 162.45) rotate(21.9531) scale(136.552 105.161)">
<stop offset="0.01" stop-color="#FFDBFF"/>
<stop offset="0.21" stop-color="#FFBFF8"/>
<stop offset="0.72" stop-color="#FF78E8"/>
<stop offset="0.97" stop-color="#FF5CE1"/>
</radialGradient>
<linearGradient id="paint14_linear_693_233" x1="227.525" y1="389.865" x2="480.808" y2="102.3" gradientUnits="userSpaceOnUse">
<stop offset="0.11" stop-color="#66F7FF"/>
<stop offset="0.6" stop-color="#94B3FF"/>
<stop offset="1" stop-color="#FF91D5"/>
</linearGradient>
<linearGradient id="paint15_linear_693_233" x1="107.898" y1="284.283" x2="361.043" y2="-3.17625" gradientUnits="userSpaceOnUse">
<stop offset="0.11" stop-color="#66F7FF"/>
<stop offset="0.6" stop-color="#94B3FF"/>
<stop offset="1" stop-color="#FF91D5"/>
</linearGradient>
<linearGradient id="paint16_linear_693_233" x1="105.818" y1="135.094" x2="152.803" y2="70.4902" gradientUnits="userSpaceOnUse">
<stop offset="0.01" stop-color="#40CFD9"/>
<stop offset="0.96" stop-color="#94F2E8"/>
</linearGradient>
<linearGradient id="paint17_linear_693_233" x1="120.975" y1="134.704" x2="149.318" y2="61.9886" gradientUnits="userSpaceOnUse">
<stop stop-color="#F5CC5E"/>
<stop offset="1" stop-color="#F8FF75"/>
</linearGradient>
<linearGradient id="paint18_linear_693_233" x1="137.711" y1="91.984" x2="153.478" y2="72.0614" gradientUnits="userSpaceOnUse">
<stop stop-color="#F5FF75"/>
<stop offset="1" stop-color="#F8FFAB"/>
</linearGradient>
<linearGradient id="paint19_linear_693_233" x1="138.669" y1="94.858" x2="116.126" y2="121.081" gradientUnits="userSpaceOnUse">
<stop stop-color="#FF8BF4"/>
<stop offset="1" stop-color="#803D57"/>
</linearGradient>
<linearGradient id="paint20_linear_693_233" x1="50.842" y1="180.414" x2="107.016" y2="158.035" gradientUnits="userSpaceOnUse">
<stop stop-color="#EB3DAB"/>
<stop offset="0.99" stop-color="#F06EC4"/>
</linearGradient>
<linearGradient id="paint21_linear_693_233" x1="60.7331" y1="186.242" x2="108.223" y2="151.152" gradientUnits="userSpaceOnUse">
<stop stop-color="#F5CC5E"/>
<stop offset="1" stop-color="#F8FF75"/>
</linearGradient>
<linearGradient id="paint22_linear_693_233" x1="88.6316" y1="165.635" x2="106.779" y2="159.296" gradientUnits="userSpaceOnUse">
<stop stop-color="#F5FF75"/>
<stop offset="1" stop-color="#F8FFAB"/>
</linearGradient>
<linearGradient id="paint23_linear_693_233" x1="88.145" y1="167.878" x2="63.0803" y2="175.522" gradientUnits="userSpaceOnUse">
<stop stop-color="#FF8BF4"/>
<stop offset="1" stop-color="#803D57"/>
</linearGradient>
<linearGradient id="paint24_linear_693_233" x1="583.641" y1="152.237" x2="620.024" y2="577.302" gradientUnits="userSpaceOnUse">
<stop offset="0.11" stop-color="#66F7FF"/>
<stop offset="0.6" stop-color="#94B3FF"/>
<stop offset="1" stop-color="#FF91D5"/>
</linearGradient>
<linearGradient id="paint25_linear_693_233" x1="540.823" y1="494.673" x2="579.101" y2="441.904" gradientUnits="userSpaceOnUse">
<stop offset="0.01" stop-color="#40CFD9"/>
<stop offset="0.96" stop-color="#94F2E8"/>
</linearGradient>
<linearGradient id="paint26_linear_693_233" x1="553.11" y1="494.346" x2="576.315" y2="434.924" gradientUnits="userSpaceOnUse">
<stop stop-color="#F5CC5E"/>
<stop offset="1" stop-color="#F8FF75"/>
</linearGradient>
<linearGradient id="paint27_linear_693_233" x1="566.81" y1="459.474" x2="579.677" y2="443.198" gradientUnits="userSpaceOnUse">
<stop stop-color="#F5FF75"/>
<stop offset="1" stop-color="#F8FFAB"/>
</linearGradient>
<linearGradient id="paint28_linear_693_233" x1="567.594" y1="461.809" x2="549.215" y2="483.233" gradientUnits="userSpaceOnUse">
<stop stop-color="#FF8BF4"/>
<stop offset="1" stop-color="#803D57"/>
</linearGradient>
<clipPath id="clip0_693_233">
<rect width="598" height="505" fill="white" transform="translate(64 9)"/>
</clipPath>
</defs>
</svg>
