<svg width="53" height="53" viewBox="0 0 53 53" fill="none" xmlns="http://www.w3.org/2000/svg">
<path d="M16.6079 8.62835C16.6079 9.20506 16.7215 9.77611 16.9422 10.3089C17.1629 10.8417 17.4864 11.3258 17.8942 11.7336C18.302 12.1414 18.7861 12.4649 19.3189 12.6856C19.8517 12.9063 20.4227 13.0199 20.9994 13.0199C21.5762 13.0199 22.1472 12.9063 22.68 12.6856C23.2128 12.4649 23.6969 12.1414 24.1047 11.7336C24.5125 11.3258 24.836 10.8417 25.0567 10.3089C25.2774 9.77611 25.391 9.20506 25.391 8.62835C25.391 8.05165 25.2774 7.48059 25.0567 6.94778C24.836 6.41498 24.5125 5.93086 24.1047 5.52307C23.6969 5.11528 23.2128 4.7918 22.68 4.5711C22.1472 4.35041 21.5762 4.23682 20.9994 4.23682C20.4227 4.23682 19.8517 4.35041 19.3189 4.5711C18.7861 4.7918 18.302 5.11528 17.8942 5.52307C17.4864 5.93086 17.1629 6.41498 16.9422 6.94778C16.7215 7.48059 16.6079 8.05165 16.6079 8.62835V8.62835Z" fill="white"/>
<path d="M16.3403 14.3256H44.1644C45.1789 14.3256 46.0055 15.1476 46.0055 16.1668C46.0055 17.1813 45.1836 18.0079 44.1644 18.0079H27.2605C26.8284 18.0079 26.4808 18.3555 26.4808 18.7876V32.197C26.4808 32.5634 26.6734 32.8969 26.9881 33.08L49.2088 46.0198C50.7634 47.5228 48.0392 51.0031 46.4799 50.1154L24.4142 37.3072C24.1324 37.1428 23.8177 37.0583 23.4936 37.0583L7.30835 37.0019C6.91381 37.0019 6.59443 37.3213 6.59443 37.7111V47.6825C6.59443 49.0258 5.50477 50.1154 4.16147 50.1154C2.81818 50.1154 1.72852 49.0258 1.72852 47.6825V34.4891C1.72852 33.235 2.74303 32.2205 3.99708 32.2205H14.5509C15.0393 32.2205 15.4339 31.826 15.4339 31.3375V18.5199C15.4339 18.1253 15.2272 17.7637 14.889 17.5617L5.92278 12.2919C5.04917 11.7799 4.76267 10.6527 5.28401 9.78377L10.4505 1.151C11.5402 0.159973 13.7947 1.62538 13.123 3.10958L9.58161 9.33288C9.37026 9.70393 9.48768 10.1783 9.84933 10.4085L15.6593 14.1283C15.866 14.2552 16.1008 14.3256 16.3403 14.3256Z" fill="white"/>
</svg>
