<svg width="120" height="120" viewBox="0 0 120 120" fill="none" xmlns="http://www.w3.org/2000/svg">
<g clip-path="url(#clip0_180_3555)">
<path d="M27.8 49V19.8H46.6V25.4H33.72V31.88H45.56V37.48H33.8V49H27.8Z" fill="white"/>
<path d="M80.8 39.44C77.7333 39.44 75.2933 38.6133 73.48 36.96C71.6933 35.28 70.8 33.0267 70.8 30.2H76.8C76.8 31.4267 77.16 32.4133 77.88 33.16C78.6 33.88 79.5733 34.24 80.8 34.24C82.0267 34.24 83 33.8933 83.72 33.2C84.44 32.48 84.8 31.5067 84.8 30.28V15.4H78.2V9.8H90.8V30.28C90.8 33.1067 89.9067 35.3467 88.12 37C86.3333 38.6267 83.8933 39.44 80.8 39.44Z" fill="white"/>
<path d="M51.6079 64.6284C51.6079 65.2051 51.7215 65.7761 51.9422 66.3089C52.1629 66.8417 52.4864 67.3258 52.8942 67.7336C53.302 68.1414 53.7861 68.4649 54.3189 68.6856C54.8517 68.9063 55.4227 69.0199 55.9994 69.0199C56.5762 69.0199 57.1472 68.9063 57.68 68.6856C58.2128 68.4649 58.6969 68.1414 59.1047 67.7336C59.5125 67.3258 59.836 66.8417 60.0567 66.3089C60.2774 65.7761 60.391 65.2051 60.391 64.6284C60.391 64.0516 60.2774 63.4806 60.0567 62.9478C59.836 62.415 59.5125 61.9309 59.1047 61.5231C58.6969 61.1153 58.2128 60.7918 57.68 60.5711C57.1472 60.3504 56.5762 60.2368 55.9994 60.2368C55.4227 60.2368 54.8517 60.3504 54.3189 60.5711C53.7861 60.7918 53.302 61.1153 52.8942 61.5231C52.4864 61.9309 52.1629 62.415 51.9422 62.9478C51.7215 63.4806 51.6079 64.0516 51.6079 64.6284V64.6284Z" fill="white"/>
<path d="M51.3403 70.3256H79.1644C80.1789 70.3256 81.0055 71.1476 81.0055 72.1668C81.0055 73.1813 80.1836 74.0079 79.1644 74.0079H62.2605C61.8284 74.0079 61.4808 74.3555 61.4808 74.7876V88.197C61.4808 88.5634 61.6734 88.8969 61.9881 89.08L84.2088 102.02C85.7634 103.523 83.0392 107.003 81.4799 106.115L59.4142 93.3072C59.1324 93.1428 58.8177 93.0583 58.4936 93.0583L42.3083 93.0019C41.9138 93.0019 41.5944 93.3213 41.5944 93.7111V103.682C41.5944 105.026 40.5048 106.115 39.1615 106.115C37.8182 106.115 36.7285 105.026 36.7285 103.682V90.4891C36.7285 89.235 37.743 88.2205 38.9971 88.2205H49.5509C50.0393 88.2205 50.4339 87.826 50.4339 87.3375V74.5199C50.4339 74.1253 50.2272 73.7637 49.889 73.5617L40.9228 68.2919C40.0492 67.7799 39.7627 66.6527 40.284 65.7838L45.4505 57.151C46.5402 56.16 48.7947 57.6254 48.123 59.1096L44.5816 65.3329C44.3703 65.7039 44.4877 66.1783 44.8493 66.4085L50.6593 70.1283C50.866 70.2552 51.1008 70.3256 51.3403 70.3256Z" fill="white"/>
</g>
<defs>
<clipPath id="clip0_180_3555">
<rect width="120" height="120" fill="white"/>
</clipPath>
</defs>
</svg>
